<?xml version="1.0" standalone="yes"?>

<svg version="1.1" viewBox="0.0 0.0 956.6325459317585 684.7480314960629" fill="none" stroke="none" stroke-linecap="square" stroke-miterlimit="10" xmlns="http://www.w3.org/2000/svg" xmlns:xlink="http://www.w3.org/1999/xlink"><clipPath id="p.0"><path d="m0 0l956.63257 0l0 684.74805l-956.63257 0l0 -684.74805z" clip-rule="nonzero"></path></clipPath><g clip-path="url(#p.0)"><path fill="#000000" fill-opacity="0.0" d="m0 0l956.63257 0l0 684.74805l-956.63257 0z" fill-rule="nonzero"></path><path fill="#d9ead3" d="m21.796587 33.63803l0 0c0 -6.48839 5.259878 -11.748268 11.748266 -11.748268l224.9444 0c3.1158447 0 6.104065 1.2377605 8.3072815 3.4409885c2.203247 2.203228 3.440979 5.1914444 3.440979 8.30728l0 46.991653c0 6.488388 -5.259857 11.748268 -11.7482605 11.748268l-224.9444 0c-6.488388 0 -11.748266 -5.25988 -11.748266 -11.748268z" fill-rule="nonzero"></path><path stroke="#000000" stroke-width="2.0" stroke-linejoin="round" stroke-linecap="butt" d="m21.796587 33.63803l0 0c0 -6.48839 5.259878 -11.748268 11.748266 -11.748268l224.9444 0c3.1158447 0 6.104065 1.2377605 8.3072815 3.4409885c2.203247 2.203228 3.440979 5.1914444 3.440979 8.30728l0 46.991653c0 6.488388 -5.259857 11.748268 -11.7482605 11.748268l-224.9444 0c-6.488388 0 -11.748266 -5.25988 -11.748266 -11.748268z" fill-rule="nonzero"></path><path fill="#000000" d="m103.165504 69.213234q-1.75 0 -3.234375 -0.375q-1.46875 -0.375 -2.390625 -0.96875l0.328125 -2.203125q2.609375 1.390625 5.125 1.390625q3.8125 0 3.921875 -2.6875q0 -1.140625 -0.8125 -1.796875q-0.8125 -0.65625 -3.1875 -1.46875l-1.296875 -0.453125q-2.25 -0.75 -3.21875 -1.859375q-0.953125 -1.109375 -0.96875 -2.765625q0 -2.015625 1.609375 -3.34375q1.625 -1.328125 4.4375 -1.328125q2.90625 0 5.296875 1.125l-0.765625 2.0q-2.421875 -1.0 -4.53125 -1.0q-1.640625 0 -2.578125 0.65625q-0.921875 0.640625 -0.921875 1.8125q0 1.0 0.671875 1.53125q0.671875 0.53125 2.6875 1.21875q0.515625 0.1875 1.296875 0.4375q2.59375 0.84375 3.671875 2.0q1.078125 1.140625 1.078125 3.09375q-0.03125 2.375 -1.703125 3.6875q-1.671875 1.296875 -4.515625 1.296875zm19.65625 -14.328125q-1.140625 -1.375 -3.140625 -1.375q-2.0 0 -3.265625 1.421875q-1.265625 1.40625 -1.484375 3.859375l9.046875 0q0 -2.546875 -1.15625 -3.90625zm-2.625 14.328125q-3.734375 0 -5.890625 -2.375q-2.140625 -2.375 -2.140625 -6.5q0 -3.984375 2.078125 -6.453125q2.078125 -2.484375 5.46875 -2.53125q3.1875 0 5.046875 2.1875q1.875 2.171875 1.875 5.8125q0 0.1875 -0.015625 0.6875q0 0.5 0 0.71875l-11.765625 0q0.046875 2.921875 1.5 4.5625q1.46875 1.625 3.9375 1.625q2.71875 0 5.453125 -1.4375l0.40625 2.109375q-2.609375 1.59375 -5.953125 1.59375zm17.749992 -17.65625q0.703125 0 1.28125 0.09375l-0.09375 2.40625q-0.71875 -0.125 -1.25 -0.125q-2.1875 0 -3.5625 1.53125q-1.359375 1.515625 -1.359375 3.765625l0 9.625l-2.609375 0q-0.015625 -15.78125 -0.015625 -17.140625l2.171875 0l0.25 3.078125q0.890625 -1.453125 2.265625 -2.34375q1.375 -0.890625 2.921875 -0.890625zm8.359375 17.296875l-6.640625 -17.140625l2.796875 0l3.78125 10.1875q0 0 1.5625 4.34375q0.53125 -1.671875 1.46875 -4.3125q1.1875 -3.328125 3.6875 -10.21875l2.78125 0l-6.59375 17.140625l-2.84375 0zm14.796875 -17.140625l0 17.140625l-2.625 0l0 -17.140625l2.625 0zm0 -6.234375l0 3.09375l-2.625 0l0 -3.09375l2.625 0zm12.15625 23.734375q-3.78125 0 -5.921875 -2.453125q-2.125 -2.453125 -2.125 -6.421875q0.015625 -4.0 2.171875 -6.484375q2.171875 -2.5 5.9375 -2.5q1.328125 0 2.5625 0.328125q1.25 0.328125 1.96875 0.859375l-0.71875 2.03125q-1.828125 -0.984375 -3.859375 -0.984375q-2.484375 0 -3.9375 1.8125q-1.4375 1.8125 -1.4375 4.953125q0 3.0625 1.421875 4.859375q1.4375 1.78125 3.96875 1.78125q2.015625 0 4.125 -1.09375l0.328125 2.078125q-1.703125 1.234375 -4.484375 1.234375zm17.75 -14.328125q-1.140625 -1.375 -3.140625 -1.375q-2.0 0 -3.265625 1.421875q-1.265625 1.40625 -1.484375 3.859375l9.046875 0q0 -2.546875 -1.15625 -3.90625zm-2.625 14.328125q-3.734375 0 -5.890625 -2.375q-2.140625 -2.375 -2.140625 -6.5q0 -3.984375 2.078125 -6.453125q2.078125 -2.484375 5.46875 -2.53125q3.1875 0 5.046875 2.1875q1.875 2.171875 1.875 5.8125q0 0.1875 -0.015625 0.6875q0 0.5 0 0.71875l-11.765625 0q0.046875 2.921875 1.5 4.5625q1.46875 1.625 3.9375 1.625q2.71875 0 5.453125 -1.4375l0.40625 2.109375q-2.609375 1.59375 -5.953125 1.59375z" fill-rule="nonzero"></path><path fill="#d9ead3" d="m185.19554 145.97136l0 0c0 -6.488388 5.2598724 -11.7482605 11.7482605 -11.7482605l224.94441 0c3.1158447 0 6.104065 1.2377625 8.3072815 3.440979c2.2032166 2.2032318 3.440979 5.191452 3.440979 8.3072815l0 46.991653c0 6.488388 -5.259857 11.748276 -11.7482605 11.748276l-224.94441 0c-6.488388 0 -11.7482605 -5.2598877 -11.7482605 -11.748276z" fill-rule="nonzero"></path><path stroke="#000000" stroke-width="2.0" stroke-linejoin="round" stroke-linecap="butt" d="m185.19554 145.97136l0 0c0 -6.488388 5.2598724 -11.7482605 11.7482605 -11.7482605l224.94441 0c3.1158447 0 6.104065 1.2377625 8.3072815 3.440979c2.2032166 2.2032318 3.440979 5.191452 3.440979 8.3072815l0 46.991653c0 6.488388 -5.259857 11.748276 -11.7482605 11.748276l-224.94441 0c-6.488388 0 -11.7482605 -5.2598877 -11.7482605 -11.748276z" fill-rule="nonzero"></path><path fill="#000000" d="m302.7129 181.1872l0 -8.921875q0 -1.25 -0.0625 -2.09375q-0.046875 -0.84375 -0.25 -1.71875q-0.1875 -0.875 -0.546875 -1.375q-0.34375 -0.515625 -0.96875 -0.828125q-0.625 -0.328125 -1.5 -0.328125q-1.71875 0 -2.9375 0.921875q-1.203125 0.921875 -1.71875 2.59375q-0.140625 1.125 -0.140625 2.40625l0 9.34375l-2.609375 0l0 -9.203125q0 -1.15625 -0.078125 -2.0q-0.078125 -0.859375 -0.296875 -1.65625q-0.21875 -0.8125 -0.59375 -1.3125q-0.359375 -0.5 -0.96875 -0.796875q-0.609375 -0.296875 -1.453125 -0.296875q-1.875 0 -3.15625 0.953125q-1.265625 0.953125 -1.703125 2.53125q-0.140625 1.203125 -0.140625 2.609375l0 9.171875l-2.609375 0q-0.03125 -16.078125 -0.03125 -17.140625l2.1875 0l0.328125 2.453125q0.78125 -1.1875 2.21875 -2.0q1.4375 -0.8125 3.265625 -0.8125q0.953125 0 1.75 0.203125q0.8125 0.1875 1.34375 0.484375q0.546875 0.296875 0.96875 0.71875q0.421875 0.40625 0.65625 0.8125q0.234375 0.390625 0.390625 0.828125q1.875 -3.046875 5.734375 -3.046875q2.859375 0 4.1875 1.640625q1.34375 1.625 1.34375 4.828125l0 11.03125l-2.609375 0zm5.34375 -5.71875l0 -11.421875l2.625 0l0 11.453125q0 1.125 0.3125 1.90625q0.328125 0.78125 0.921875 1.21875q0.609375 0.421875 1.359375 0.609375q0.765625 0.1875 1.75 0.1875q2.03125 0 3.15625 -0.890625q1.140625 -0.890625 1.140625 -3.03125l0 -11.453125l2.625 0l0 11.421875q0 1.3125 -0.375 2.359375q-0.375 1.046875 -1.015625 1.75q-0.625 0.6875 -1.515625 1.140625q-0.890625 0.453125 -1.890625 0.65625q-0.984375 0.203125 -2.125 0.203125q-1.125 0 -2.125 -0.203125q-1.0 -0.203125 -1.90625 -0.65625q-0.890625 -0.46875 -1.546875 -1.15625q-0.640625 -0.703125 -1.015625 -1.75q-0.375 -1.046875 -0.375 -2.34375zm22.3125 -3.0l-6.046875 -8.421875l2.984375 0l4.578125 6.53125l4.59375 -6.53125l2.984375 0l-6.0625 8.453125l6.21875 8.6875l-2.890625 0l-4.828125 -6.890625l-4.828125 6.890625l-2.984375 0l6.28125 -8.71875z" fill-rule="nonzero"></path><path fill="#000000" fill-opacity="0.0" d="m146.01706 92.37795l0 77.10236l39.181107 0" fill-rule="nonzero"></path><path stroke="#000000" stroke-width="3.0" stroke-linejoin="round" stroke-linecap="butt" d="m146.01706 92.37795l0 77.10236l39.181107 0" fill-rule="nonzero"></path><path fill="#fce5cd" d="m185.19554 342.52222l0 0c0 -6.4884033 5.2598724 -11.7482605 11.7482605 -11.7482605l270.45624 0c3.1158447 0 6.104065 1.2377625 8.3072815 3.440979c2.2032166 2.2032166 3.440979 5.191437 3.440979 8.3072815l0 46.99167c0 6.488373 -5.259857 11.7482605 -11.7482605 11.7482605l-270.45624 0c-6.488388 0 -11.7482605 -5.2598877 -11.7482605 -11.7482605z" fill-rule="nonzero"></path><path stroke="#000000" stroke-width="2.0" stroke-linejoin="round" stroke-linecap="butt" d="m185.19554 342.52222l0 0c0 -6.4884033 5.2598724 -11.7482605 11.7482605 -11.7482605l270.45624 0c3.1158447 0 6.104065 1.2377625 8.3072815 3.440979c2.2032166 2.2032166 3.440979 5.191437 3.440979 8.3072815l0 46.99167c0 6.488373 -5.259857 11.7482605 -11.7482605 11.7482605l-270.45624 0c-6.488388 0 -11.7482605 -5.2598877 -11.7482605 -11.7482605z" fill-rule="nonzero"></path><path fill="#000000" d="m215.85161 375.8474q2.578125 0 3.828125 -1.65625q1.265625 -1.65625 1.265625 -4.734375q0 -3.46875 -1.21875 -5.21875q-1.203125 -1.765625 -3.90625 -1.765625q-1.203125 0 -2.125 0.515625q-0.921875 0.515625 -1.484375 1.4375q-0.5625 0.921875 -0.859375 2.125q-0.28125 1.1875 -0.28125 2.609375q0 2.0 0.484375 3.46875q0.5 1.46875 1.59375 2.34375q1.09375 0.875 2.703125 0.875zm5.140625 -0.59375q-0.84375 1.296875 -2.25 2.0625q-1.40625 0.765625 -3.140625 0.765625q-3.390625 0 -5.3125 -2.40625q-1.921875 -2.421875 -1.921875 -6.578125q0 -3.96875 1.953125 -6.40625q1.953125 -2.453125 5.234375 -2.453125q1.703125 0 3.203125 0.75q1.515625 0.734375 2.265625 1.984375l-0.046875 -1.484375l0 -7.546875l2.578125 -0.15625l0 23.953125l-2.21875 0l-0.34375 -2.484375zm16.96875 -11.484375q-1.140625 -1.375 -3.140625 -1.375q-2.0 0 -3.265625 1.421875q-1.265625 1.40625 -1.484375 3.859375l9.046875 0q0 -2.546875 -1.15625 -3.90625zm-2.625 14.328125q-3.734375 0 -5.890625 -2.375q-2.140625 -2.375 -2.140625 -6.5q0 -3.984375 2.078125 -6.453125q2.078125 -2.484375 5.46875 -2.53125q3.1875 0 5.046875 2.1875q1.875 2.171875 1.875 5.8125q0 0.1875 -0.015625 0.6875q0 0.5 0 0.71875l-11.765625 0q0.046875 2.921875 1.5 4.5625q1.46875 1.625 3.9375 1.625q2.71875 0 5.453125 -1.4375l0.40625 2.109375q-2.609375 1.59375 -5.953125 1.59375zm17.3125 0q-3.78125 0 -5.921875 -2.453125q-2.125 -2.453125 -2.125 -6.421875q0.015625 -4.0 2.171875 -6.484375q2.171875 -2.5 5.9375 -2.5q1.328125 0 2.5625 0.328125q1.2499847 0.328125 1.9687347 0.859375l-0.71875 2.03125q-1.8281097 -0.984375 -3.8593597 -0.984375q-2.484375 0 -3.9375 1.8125q-1.4375 1.8125 -1.4375 4.953125q0 3.0625 1.421875 4.859375q1.4375 1.78125 3.96875 1.78125q2.015625 0 4.1249847 -1.09375l0.328125 2.078125q-1.7031097 1.234375 -4.4843597 1.234375zm9.781235 -8.890625q0 3.046875 1.34375 4.890625q1.359375 1.828125 3.953125 1.828125q2.5625 0 3.859375 -1.828125q1.3125 -1.828125 1.3125 -4.921875q0 -3.140625 -1.296875 -4.9375q-1.28125 -1.8125 -3.921875 -1.8125q-2.5625 0 -3.90625 1.84375q-1.34375 1.84375 -1.34375 4.9375zm13.171875 -0.046875q0 3.984375 -2.125 6.46875q-2.125 2.46875 -5.875 2.46875q-3.609375 0 -5.75 -2.5q-2.125 -2.5 -2.125 -6.421875q0 -4.0 2.140625 -6.46875q2.140625 -2.46875 5.875 -2.46875q3.671875 0 5.765625 2.484375q2.09375 2.46875 2.09375 6.4375zm10.375 6.6875q2.578125 0 3.828125 -1.65625q1.265625 -1.65625 1.265625 -4.734375q0 -3.46875 -1.21875 -5.21875q-1.203125 -1.765625 -3.90625 -1.765625q-1.203125 0 -2.125 0.515625q-0.921875 0.515625 -1.484375 1.4375q-0.5625 0.921875 -0.859375 2.125q-0.28125 1.1875 -0.28125 2.609375q0 2.0 0.484375 3.46875q0.5 1.46875 1.59375 2.34375q1.09375 0.875 2.703125 0.875zm5.140625 -0.59375q-0.84375 1.296875 -2.25 2.0625q-1.40625 0.765625 -3.140625 0.765625q-3.390625 0 -5.3125 -2.40625q-1.921875 -2.421875 -1.921875 -6.578125q0 -3.96875 1.953125 -6.40625q1.953125 -2.453125 5.234375 -2.453125q1.703125 0 3.203125 0.75q1.515625 0.734375 2.265625 1.984375l-0.046875 -1.484375l0 -7.546875l2.578125 -0.15625l0 23.953125l-2.21875 0l-0.34375 -2.484375zm16.96875 -11.484375q-1.140625 -1.375 -3.140625 -1.375q-2.0 0 -3.265625 1.421875q-1.265625 1.40625 -1.484375 3.859375l9.046875 0q0 -2.546875 -1.15625 -3.90625zm-2.625 14.328125q-3.734375 0 -5.890625 -2.375q-2.140625 -2.375 -2.140625 -6.5q0 -3.984375 2.078125 -6.453125q2.078125 -2.484375 5.46875 -2.53125q3.1875 0 5.046875 2.1875q1.875 2.171875 1.875 5.8125q0 0.1875 -0.015625 0.6875q0 0.5 0 0.71875l-11.765625 0q0.046875 2.921875 1.5 4.5625q1.46875 1.625 3.9375 1.625q2.71875 0 5.453125 -1.4375l0.40625 2.109375q-2.609375 1.59375 -5.953125 1.59375zm17.75 -17.65625q0.703125 0 1.28125 0.09375l-0.09375 2.40625q-0.71875 -0.125 -1.25 -0.125q-2.1875 0 -3.5625 1.53125q-1.359375 1.515625 -1.359375 3.765625l0 9.625l-2.609375 0q-0.015625 -15.78125 -0.015625 -17.140625l2.171875 0l0.25 3.078125q0.890625 -1.453125 2.265625 -2.34375q1.375 -0.890625 2.921875 -0.890625zm4.765625 20.703125l-2.25 0l10.5625 -26.3125l2.28125 0l-10.59375 26.3125zm23.953125 -17.375q-1.140625 -1.375 -3.140625 -1.375q-2.0 0 -3.265625 1.421875q-1.265625 1.40625 -1.484375 3.859375l9.046875 0q0 -2.546875 -1.15625 -3.90625zm-2.625 14.328125q-3.734375 0 -5.890625 -2.375q-2.140625 -2.375 -2.140625 -6.5q0 -3.984375 2.078125 -6.453125q2.078125 -2.484375 5.46875 -2.53125q3.1875 0 5.046875 2.1875q1.875 2.171875 1.875 5.8125q0 0.1875 -0.015625 0.6875q0 0.5 0 0.71875l-11.765625 0q0.046875 2.921875 1.5 4.5625q1.46875 1.625 3.9375 1.625q2.71875 0 5.453125 -1.4375l0.40625 2.109375q-2.609375 1.59375 -5.953125 1.59375zm10.0625 -0.359375l0 -17.140625l2.1875 0l0.328125 2.453125q1.015625 -1.265625 2.53125 -2.03125q1.53125 -0.78125 3.296875 -0.78125q2.96875 0 4.390625 1.671875q1.421875 1.65625 1.421875 5.109375l0 10.71875l-2.609375 0q0 -10.3125 -0.015625 -11.046875q-0.0625 -2.1875 -0.890625 -3.203125q-0.8125 -1.015625 -2.734375 -1.015625q-2.015625 0 -3.359375 0.96875q-1.34375 0.96875 -1.75 2.515625q-0.15625 1.046875 -0.15625 2.40625l0 9.375l-2.640625 0zm25.75 0.359375q-3.78125 0 -5.921875 -2.453125q-2.125 -2.453125 -2.125 -6.421875q0.015625 -4.0 2.171875 -6.484375q2.171875 -2.5 5.9375 -2.5q1.328125 0 2.5625 0.328125q1.25 0.328125 1.96875 0.859375l-0.71875 2.03125q-1.828125 -0.984375 -3.859375 -0.984375q-2.484375 0 -3.9375 1.8125q-1.4375 1.8125 -1.4375 4.953125q0 3.0625 1.421875 4.859375q1.4375 1.78125 3.96875 1.78125q2.015625 0 4.125 -1.09375l0.328125 2.078125q-1.703125 1.234375 -4.484375 1.234375zm9.78125 -8.890625q0 3.046875 1.34375 4.890625q1.359375 1.828125 3.953125 1.828125q2.5625 0 3.859375 -1.828125q1.3125 -1.828125 1.3125 -4.921875q0 -3.140625 -1.296875 -4.9375q-1.28125 -1.8125 -3.921875 -1.8125q-2.5625 0 -3.90625 1.84375q-1.34375 1.84375 -1.34375 4.9375zm13.171875 -0.046875q0 3.984375 -2.125 6.46875q-2.125 2.46875 -5.875 2.46875q-3.609375 0 -5.75 -2.5q-2.125 -2.5 -2.125 -6.421875q0 -4.0 2.140625 -6.46875q2.140625 -2.46875 5.875 -2.46875q3.671875 0 5.765625 2.484375q2.09375 2.46875 2.09375 6.4375zm10.375 6.6875q2.578125 0 3.828125 -1.65625q1.265625 -1.65625 1.265625 -4.734375q0 -3.46875 -1.21875 -5.21875q-1.203125 -1.765625 -3.90625 -1.765625q-1.203125 0 -2.125 0.515625q-0.921875 0.515625 -1.484375 1.4375q-0.5625 0.921875 -0.859375 2.125q-0.28125 1.1875 -0.28125 2.609375q0 2.0 0.484375 3.46875q0.5 1.46875 1.59375 2.34375q1.09375 0.875 2.703125 0.875zm5.140625 -0.59375q-0.84375 1.296875 -2.25 2.0625q-1.40625 0.765625 -3.140625 0.765625q-3.390625 0 -5.3125 -2.40625q-1.921875 -2.421875 -1.921875 -6.578125q0 -3.96875 1.953125 -6.40625q1.953125 -2.453125 5.234375 -2.453125q1.703125 0 3.203125 0.75q1.515625 0.734375 2.265625 1.984375l-0.046875 -1.484375l0 -7.546875l2.578125 -0.15625l0 23.953125l-2.21875 0l-0.34375 -2.484375zm16.96875 -11.484375q-1.140625 -1.375 -3.140625 -1.375q-2.0 0 -3.265625 1.421875q-1.265625 1.40625 -1.484375 3.859375l9.046875 0q0 -2.546875 -1.15625 -3.90625zm-2.625 14.328125q-3.734375 0 -5.890625 -2.375q-2.140625 -2.375 -2.140625 -6.5q0 -3.984375 2.078125 -6.453125q2.078125 -2.484375 5.46875 -2.53125q3.1875 0 5.046875 2.1875q1.875 2.171875 1.875 5.8125q0 0.1875 -0.015625 0.6875q0 0.5 0 0.71875l-11.765625 0q0.046875 2.921875 1.5 4.5625q1.46875 1.625 3.9375 1.625q2.71875 0 5.453125 -1.4375l0.40625 2.109375q-2.609375 1.59375 -5.953125 1.59375zm17.75 -17.65625q0.703125 0 1.28125 0.09375l-0.09375 2.40625q-0.71875 -0.125 -1.25 -0.125q-2.1875 0 -3.5625 1.53125q-1.359375 1.515625 -1.359375 3.765625l0 9.625l-2.609375 0q-0.015625 -15.78125 -0.015625 -17.140625l2.171875 0l0.25 3.078125q0.890625 -1.453125 2.265625 -2.34375q1.375 -0.890625 2.921875 -0.890625z" fill-rule="nonzero"></path><path fill="#d9ead3" d="m185.19554 244.24695l0 0c0 -6.488388 5.2598724 -11.7482605 11.7482605 -11.7482605l270.45624 0c3.1158447 0 6.104065 1.2377625 8.3072815 3.4409943c2.2032166 2.2032166 3.440979 5.191437 3.440979 8.307266l0 46.99167c0 6.488373 -5.259857 11.7482605 -11.7482605 11.7482605l-270.45624 0c-6.488388 0 -11.7482605 -5.2598877 -11.7482605 -11.7482605z" fill-rule="nonzero"></path><path stroke="#000000" stroke-width="2.0" stroke-linejoin="round" stroke-linecap="butt" d="m185.19554 244.24695l0 0c0 -6.488388 5.2598724 -11.7482605 11.7482605 -11.7482605l270.45624 0c3.1158447 0 6.104065 1.2377625 8.3072815 3.4409943c2.2032166 2.2032166 3.440979 5.191437 3.440979 8.307266l0 46.99167c0 6.488373 -5.259857 11.7482605 -11.7482605 11.7482605l-270.45624 0c-6.488388 0 -11.7482605 -5.2598877 -11.7482605 -11.7482605z" fill-rule="nonzero"></path><path fill="#000000" d="m263.25003 279.46277l0 -8.921875q0 -1.25 -0.0625 -2.09375q-0.046875 -0.84375 -0.25 -1.71875q-0.1875 -0.875 -0.546875 -1.375q-0.34375 -0.515625 -0.96875 -0.828125q-0.625 -0.328125 -1.5 -0.328125q-1.71875 0 -2.9375 0.921875q-1.2031097 0.921875 -1.7187347 2.59375q-0.140625 1.125 -0.140625 2.40625l0 9.34375l-2.609375 0l0 -9.203125q0 -1.15625 -0.078125 -2.0q-0.078125 -0.859375 -0.296875 -1.65625q-0.21875 -0.8125 -0.59375 -1.3125q-0.359375 -0.5 -0.96875 -0.796875q-0.609375 -0.296875 -1.453125 -0.296875q-1.875 0 -3.15625 0.953125q-1.265625 0.953125 -1.703125 2.53125q-0.140625 1.203125 -0.140625 2.609375l0 9.171875l-2.609375 0q-0.03125 -16.078125 -0.03125 -17.140625l2.1875 0l0.328125 2.453125q0.78125 -1.1875 2.21875 -2.0q1.4375 -0.8125 3.265625 -0.8125q0.953125 0 1.75 0.203125q0.8125 0.1875 1.34375 0.484375q0.546875 0.296875 0.96875 0.71875q0.421875 0.40625 0.65625 0.8125q0.234375 0.390625 0.390625 0.828125q1.8749847 -3.046875 5.7343597 -3.046875q2.859375 0 4.1875 1.640625q1.34375 1.625 1.34375 4.828125l0 11.03125l-2.609375 0zm9.015625 -17.140625l0 17.140625l-2.625 0l0 -17.140625l2.625 0zm0 -6.234375l0 3.09375l-2.625 0l0 -3.09375l2.625 0zm11.59375 21.484375q2.578125 0 3.828125 -1.65625q1.265625 -1.65625 1.265625 -4.734375q0 -3.46875 -1.21875 -5.21875q-1.203125 -1.765625 -3.90625 -1.765625q-1.203125 0 -2.125 0.515625q-0.921875 0.515625 -1.484375 1.4375q-0.5625 0.921875 -0.859375 2.125q-0.28125 1.1875 -0.28125 2.609375q0 2.0 0.484375 3.46875q0.5 1.46875 1.59375 2.34375q1.09375 0.875 2.703125 0.875zm5.140625 -0.59375q-0.84375 1.296875 -2.25 2.0625q-1.40625 0.765625 -3.140625 0.765625q-3.390625 0 -5.3125 -2.40625q-1.921875 -2.421875 -1.921875 -6.578125q0 -3.96875 1.953125 -6.40625q1.953125 -2.453125 5.234375 -2.453125q1.703125 0 3.203125 0.75q1.515625 0.734375 2.265625 1.984375l-0.046875 -1.484375l0 -7.5468597l2.578125 -0.15625l0 23.95311l-2.21875 0l-0.34375 -2.484375zm13.78125 0.59375q2.578125 0 3.828125 -1.65625q1.265625 -1.65625 1.265625 -4.734375q0 -3.46875 -1.21875 -5.21875q-1.203125 -1.765625 -3.90625 -1.765625q-1.203125 0 -2.125 0.515625q-0.921875 0.515625 -1.484375 1.4375q-0.5625 0.921875 -0.859375 2.125q-0.28125 1.1875 -0.28125 2.609375q0 2.0 0.484375 3.46875q0.5 1.46875 1.59375 2.34375q1.09375 0.875 2.703125 0.875zm5.140625 -0.59375q-0.84375 1.296875 -2.25 2.0625q-1.40625 0.765625 -3.140625 0.765625q-3.390625 0 -5.3125 -2.40625q-1.921875 -2.421875 -1.921875 -6.578125q0 -3.96875 1.953125 -6.40625q1.953125 -2.453125 5.234375 -2.453125q1.703125 0 3.203125 0.75q1.515625 0.734375 2.265625 1.984375l-0.046875 -1.484375l0 -7.5468597l2.578125 -0.15625l0 23.95311l-2.21875 0l-0.34375 -2.484375zm11.703125 2.796875q-2.5 0 -3.546875 -1.34375q-1.03125 -1.34375 -1.03125 -4.671875l0 -18.093735l2.59375 -0.15625l0 17.218735q0 1.0625 0.015625 1.703125q0.03125 0.640625 0.125 1.265625q0.09375 0.609375 0.25 0.921875q0.15625 0.3125 0.453125 0.578125q0.296875 0.25 0.703125 0.34375q0.421875 0.078125 1.03125 0.078125q0.5 0 1.96875 -0.1875l0.140625 2.078125q-1.609375 0.265625 -2.703125 0.265625zm14.15625 -14.28125q-1.140625 -1.375 -3.140625 -1.375q-2.0 0 -3.265625 1.421875q-1.265625 1.40625 -1.484375 3.859375l9.046875 0q0 -2.546875 -1.15625 -3.90625zm-2.625 14.328125q-3.734375 0 -5.890625 -2.375q-2.140625 -2.375 -2.140625 -6.5q0 -3.984375 2.078125 -6.453125q2.078125 -2.484375 5.46875 -2.53125q3.1875 0 5.046875 2.1875q1.875 2.171875 1.875 5.8125q0 0.1875 -0.015625 0.6875q0 0.5 0 0.71875l-11.765625 0q0.046875 2.921875 1.5 4.5625q1.46875 1.625 3.9375 1.625q2.71875 0 5.453125 -1.4375l0.40625 2.109375q-2.609375 1.59375 -5.953125 1.59375zm24.859375 -0.359375q-3.609375 -11.53125 -4.46875 -14.359375q-0.484375 1.71875 -1.109375 3.71875q-0.625 2.0 -1.09375 3.4375q-0.46875 1.4375 -1.21875 3.71875q-0.75 2.28125 -1.140625 3.484375l-2.8125 0l-4.890625 -17.140625l2.703125 0l3.671875 14.03125q0.765625 -2.5 4.5 -14.03125l2.953125 0q3.71875 11.78125 4.375 13.984375l3.625 -13.984375l2.671875 0l-4.9375 17.140625l-2.828125 0zm15.25 -1.75q1.859375 0 3.265625 -1.015625q1.421875 -1.03125 1.828125 -2.765625l0 -2.890625q-0.078125 0 -0.953125 0.078125q-0.859375 0.078125 -1.125 0.09375q-3.390625 0.296875 -4.734375 1.109375q-1.328125 0.8125 -1.328125 2.609375q0 1.375 0.8125 2.078125q0.8125 0.703125 2.234375 0.703125zm5.671875 1.75q-0.234375 -1.0 -0.453125 -2.15625q-1.421875 1.421875 -2.671875 1.96875q-1.25 0.546875 -2.9375 0.546875q-2.40625 0 -3.875 -1.25q-1.453125 -1.265625 -1.453125 -3.625q0 -2.625 1.984375 -3.890625q2.0 -1.265625 5.75 -1.578125q0.515625 -0.046875 1.546875 -0.125q1.046875 -0.09375 1.5625 -0.140625l0 -1.515625q0 -1.8125 -0.84375 -2.6875q-0.84375 -0.875 -2.65625 -0.875q-2.53125 0 -5.109375 1.25q-0.078125 -0.1875 -0.40625 -1.078125q-0.328125 -0.90625 -0.34375 -0.9375q1.140625 -0.640625 2.703125 -1.015625q1.578125 -0.390625 3.203125 -0.390625q3.203125 0 4.609375 1.40625q1.421875 1.390625 1.421875 4.75l0 11.34375l-2.03125 0zm14.21875 -17.296875q0.703125 0 1.28125 0.09375l-0.09375 2.40625q-0.71875 -0.125 -1.25 -0.125q-2.1875 0 -3.5625 1.53125q-1.359375 1.515625 -1.359375 3.765625l0 9.625l-2.609375 0q-0.015625 -15.78125 -0.015625 -17.140625l2.171875 0l0.25 3.078125q0.890625 -1.453125 2.265625 -2.34375q1.375 -0.890625 2.921875 -0.890625zm13.84375 3.328125q-1.140625 -1.375 -3.140625 -1.375q-2.0 0 -3.265625 1.421875q-1.265625 1.40625 -1.484375 3.859375l9.046875 0q0 -2.546875 -1.15625 -3.90625zm-2.625 14.328125q-3.734375 0 -5.890625 -2.375q-2.140625 -2.375 -2.140625 -6.5q0 -3.984375 2.078125 -6.453125q2.078125 -2.484375 5.46875 -2.53125q3.1875 0 5.046875 2.1875q1.875 2.171875 1.875 5.8125q0 0.1875 -0.015625 0.6875q0 0.5 0 0.71875l-11.765625 0q0.046875 2.921875 1.5 4.5625q1.46875 1.625 3.9375 1.625q2.71875 0 5.453125 -1.4375l0.40625 2.109375q-2.609375 1.59375 -5.953125 1.59375zm15.171875 0q-1.75 0 -3.234375 -0.375q-1.46875 -0.375 -2.390625 -0.96875l0.328125 -2.203125q2.609375 1.390625 5.125 1.390625q3.8125 0 3.921875 -2.6875q0 -1.140625 -0.8125 -1.796875q-0.8125 -0.65625 -3.1875 -1.46875l-1.296875 -0.453125q-2.25 -0.75 -3.21875 -1.859375q-0.953125 -1.109375 -0.96875 -2.765625q0 -2.015625 1.609375 -3.34375q1.625 -1.328125 4.4375 -1.328125q2.90625 0 5.296875 1.125l-0.765625 2.0q-2.421875 -1.0 -4.53125 -1.0q-1.640625 0 -2.578125 0.65625q-0.921875 0.640625 -0.921875 1.8125q0 1.0 0.671875 1.53125q0.671875 0.53125 2.6875 1.21875q0.515625 0.1875 1.296875 0.4375q2.59375 0.84375 3.671875 2.0q1.078125 1.140625 1.078125 3.09375q-0.03125 2.375 -1.703125 3.6875q-1.671875 1.296875 -4.515625 1.296875z" fill-rule="nonzero"></path><path fill="#000000" fill-opacity="0.0" d="m146.01706 92.37795l0 273.6378l39.181107 0" fill-rule="nonzero"></path><path stroke="#000000" stroke-width="3.0" stroke-linejoin="round" stroke-linecap="butt" d="m146.01706 92.37795l0 273.6378l39.181107 0" fill-rule="nonzero"></path><path fill="#000000" fill-opacity="0.0" d="m146.01706 92.37795l0 175.37006l39.181107 0" fill-rule="nonzero"></path><path stroke="#000000" stroke-width="3.0" stroke-linejoin="round" stroke-linecap="butt" d="m146.01706 92.37795l0 175.37006l39.181107 0" fill-rule="nonzero"></path><path fill="#f4cccc" d="m185.19554 440.79813l0 0c0 -6.488373 5.2598724 -11.7482605 11.7482605 -11.7482605l270.45624 0c3.1158447 0 6.104065 1.2377625 8.3072815 3.440979c2.2032166 2.203247 3.440979 5.1914673 3.440979 8.3072815l0 46.99167c0 6.488373 -5.259857 11.7482605 -11.7482605 11.7482605l-270.45624 0c-6.488388 0 -11.7482605 -5.2598877 -11.7482605 -11.7482605z" fill-rule="nonzero"></path><path stroke="#000000" stroke-width="2.0" stroke-linejoin="round" stroke-linecap="butt" d="m185.19554 440.79813l0 0c0 -6.488373 5.2598724 -11.7482605 11.7482605 -11.7482605l270.45624 0c3.1158447 0 6.104065 1.2377625 8.3072815 3.440979c2.2032166 2.203247 3.440979 5.1914673 3.440979 8.3072815l0 46.99167c0 6.488373 -5.259857 11.7482605 -11.7482605 11.7482605l-270.45624 0c-6.488388 0 -11.7482605 -5.2598877 -11.7482605 -11.7482605z" fill-rule="nonzero"></path><path fill="#660000" d="m263.88284 476.37335q-3.78125 0 -5.921875 -2.453125q-2.1249847 -2.453125 -2.1249847 -6.421875q0.015625 -4.0 2.1718597 -6.484375q2.171875 -2.5 5.9375 -2.5q1.328125 0 2.5625 0.328125q1.25 0.328125 1.96875 0.859375l-0.71875 2.03125q-1.828125 -0.984375 -3.859375 -0.984375q-2.484375 0 -3.9375 1.8125q-1.4375 1.8125 -1.4375 4.953125q0 3.0625 1.421875 4.859375q1.4375 1.78125 3.96875 1.78125q2.015625 0 4.125 -1.09375l0.328125 2.078125q-1.703125 1.234375 -4.484375 1.234375zm9.78125 -8.890625q0 3.046875 1.34375 4.890625q1.359375 1.828125 3.953125 1.828125q2.5625 0 3.859375 -1.828125q1.3125 -1.828125 1.3125 -4.921875q0 -3.140625 -1.296875 -4.9375q-1.28125 -1.8125 -3.921875 -1.8125q-2.5625 0 -3.90625 1.84375q-1.34375 1.84375 -1.34375 4.9375zm13.171875 -0.046875q0 3.984375 -2.125 6.46875q-2.125 2.46875 -5.875 2.46875q-3.609375 0 -5.75 -2.5q-2.125 -2.5 -2.125 -6.421875q0 -4.0 2.140625 -6.46875q2.140625 -2.46875 5.875 -2.46875q3.671875 0 5.765625 2.484375q2.09375 2.46875 2.09375 6.4375zm3.6875 8.578125l0 -17.140625l2.1875 0l0.328125 2.453125q1.015625 -1.265625 2.53125 -2.03125q1.53125 -0.78125 3.296875 -0.78125q2.96875 0 4.390625 1.671875q1.421875 1.65625 1.421875 5.109375l0 10.71875l-2.609375 0q0 -10.3125 -0.015625 -11.046875q-0.0625 -2.1875 -0.890625 -3.203125q-0.8125 -1.015625 -2.734375 -1.015625q-2.015625 0 -3.359375 0.96875q-1.34375 0.96875 -1.75 2.515625q-0.15625 1.046875 -0.15625 2.40625l0 9.375l-2.640625 0zm23.96875 0.3125q-2.53125 0 -3.59375 -1.234375q-1.0625 -1.234375 -1.125 -3.984375l0 -10.296875l-2.546875 0l0.109375 -1.71875l2.421875 -0.21875l0.890625 -3.921875l1.71875 -0.0625l0 3.984375l4.765625 0l0 1.9375l-4.765625 0l0 9.828125q0 1.953125 0.59375 2.75q0.59375 0.796875 2.03125 0.796875q0.515625 0 2.234375 -0.25l0.109375 2.0625q-1.859375 0.328125 -2.84375 0.328125zm13.3125 -17.609375q0.703125 0 1.28125 0.09375l-0.09375 2.40625q-0.71875 -0.125 -1.25 -0.125q-2.1875 0 -3.5625 1.53125q-1.359375 1.515625 -1.359375 3.765625l0 9.625l-2.609375 0q-0.015625 -15.78125 -0.015625 -17.140625l2.171875 0l0.25 3.078125q0.890625 -1.453125 2.265625 -2.34375q1.375 -0.890625 2.921875 -0.890625zm5.875 8.765625q0 3.046875 1.34375 4.890625q1.359375 1.828125 3.953125 1.828125q2.5625 0 3.859375 -1.828125q1.3125 -1.828125 1.3125 -4.921875q0 -3.140625 -1.296875 -4.9375q-1.28125 -1.8125 -3.921875 -1.8125q-2.5625 0 -3.90625 1.84375q-1.34375 1.84375 -1.34375 4.9375zm13.171875 -0.046875q0 3.984375 -2.125 6.46875q-2.125 2.46875 -5.875 2.46875q-3.609375 0 -5.75 -2.5q-2.125 -2.5 -2.125 -6.421875q0 -4.0 2.140625 -6.46875q2.140625 -2.46875 5.875 -2.46875q3.671875 0 5.765625 2.484375q2.09375 2.46875 2.09375 6.4375zm8.296875 8.890625q-2.5 0 -3.546875 -1.34375q-1.03125 -1.34375 -1.03125 -4.671875l0 -18.09375l2.59375 -0.15625l0 17.21875q0 1.0625 0.015625 1.703125q0.03125 0.640625 0.125 1.265625q0.09375 0.609375 0.25 0.921875q0.15625 0.3125 0.453125 0.578125q0.296875 0.25 0.703125 0.34375q0.421875 0.078125 1.03125 0.078125q0.5 0 1.96875 -0.1875l0.140625 2.078125q-1.609375 0.265625 -2.703125 0.265625zm8.890625 0q-2.5 0 -3.546875 -1.34375q-1.03125 -1.34375 -1.03125 -4.671875l0 -18.09375l2.59375 -0.15625l0 17.21875q0 1.0625 0.015625 1.703125q0.03125 0.640625 0.125 1.265625q0.09375 0.609375 0.25 0.921875q0.15625 0.3125 0.453125 0.578125q0.296875 0.25 0.703125 0.34375q0.421875 0.078125 1.03125 0.078125q0.5 0 1.96875 -0.1875l0.140625 2.078125q-1.609375 0.265625 -2.703125 0.265625zm14.15625 -14.28125q-1.140625 -1.375 -3.140625 -1.375q-2.0 0 -3.265625 1.421875q-1.265625 1.40625 -1.484375 3.859375l9.046875 0q0 -2.546875 -1.15625 -3.90625zm-2.625 14.328125q-3.734375 0 -5.890625 -2.375q-2.140625 -2.375 -2.140625 -6.5q0 -3.984375 2.078125 -6.453125q2.078125 -2.484375 5.46875 -2.53125q3.1875 0 5.046875 2.1875q1.875 2.171875 1.875 5.8125q0 0.1875 -0.015625 0.6875q0 0.5 0 0.71875l-11.765625 0q0.046875 2.921875 1.5 4.5625q1.46875 1.625 3.9375 1.625q2.71875 0 5.453125 -1.4375l0.40625 2.109375q-2.609375 1.59375 -5.953125 1.59375zm17.75 -17.65625q0.703125 0 1.28125 0.09375l-0.09375 2.40625q-0.71875 -0.125 -1.25 -0.125q-2.1875 0 -3.5625 1.53125q-1.359375 1.515625 -1.359375 3.765625l0 9.625l-2.609375 0q-0.015625 -15.78125 -0.015625 -17.140625l2.171875 0l0.25 3.078125q0.890625 -1.453125 2.265625 -2.34375q1.375 -0.890625 2.921875 -0.890625zm9.078125 17.65625q-1.75 0 -3.234375 -0.375q-1.46875 -0.375 -2.390625 -0.96875l0.328125 -2.203125q2.609375 1.390625 5.125 1.390625q3.8125 0 3.921875 -2.6875q0 -1.140625 -0.8125 -1.796875q-0.8125 -0.65625 -3.1875 -1.46875l-1.296875 -0.453125q-2.25 -0.75 -3.21875 -1.859375q-0.953125 -1.109375 -0.96875 -2.765625q0 -2.015625 1.609375 -3.34375q1.625 -1.328125 4.4375 -1.328125q2.90625 0 5.296875 1.125l-0.765625 2.0q-2.421875 -1.0 -4.53125 -1.0q-1.640625 0 -2.578125 0.65625q-0.921875 0.640625 -0.921875 1.8125q0 1.0 0.671875 1.53125q0.671875 0.53125 2.6875 1.21875q0.515625 0.1875 1.296875 0.4375q2.59375 0.84375 3.671875 2.0q1.078125 1.140625 1.078125 3.09375q-0.03125 2.375 -1.703125 3.6875q-1.671875 1.296875 -4.515625 1.296875z" fill-rule="nonzero"></path><path fill="#000000" fill-opacity="0.0" d="m146.01706 92.37795l0 371.90552l39.181107 0" fill-rule="nonzero"></path><path stroke="#000000" stroke-width="3.0" stroke-linejoin="round" stroke-linecap="butt" stroke-dasharray="3.0,9.0" d="m146.01706 92.37795l0 371.90552l39.181107 0" fill-rule="nonzero"></path><path fill="#f4cccc" d="m201.19554 456.79813l0 0c0 -6.488373 5.2598724 -11.7482605 11.7482605 -11.7482605l270.45624 0c3.1158447 0 6.104065 1.2377625 8.3072815 3.440979c2.2032166 2.203247 3.440979 5.1914673 3.440979 8.3072815l0 46.99167c0 6.488373 -5.259857 11.748291 -11.7482605 11.748291l-270.45624 0c-6.488388 0 -11.7482605 -5.259918 -11.7482605 -11.748291z" fill-rule="nonzero"></path><path stroke="#000000" stroke-width="2.0" stroke-linejoin="round" stroke-linecap="butt" d="m201.19554 456.79813l0 0c0 -6.488373 5.2598724 -11.7482605 11.7482605 -11.7482605l270.45624 0c3.1158447 0 6.104065 1.2377625 8.3072815 3.440979c2.2032166 2.203247 3.440979 5.1914673 3.440979 8.3072815l0 46.99167c0 6.488373 -5.259857 11.748291 -11.7482605 11.748291l-270.45624 0c-6.488388 0 -11.7482605 -5.259918 -11.7482605 -11.748291z" fill-rule="nonzero"></path><path fill="#660000" d="m279.88284 492.37335q-3.78125 0 -5.921875 -2.453125q-2.125 -2.453125 -2.125 -6.421875q0.015625 -4.0 2.171875 -6.484375q2.171875 -2.5 5.9375 -2.5q1.328125 0 2.5625 0.328125q1.25 0.328125 1.96875 0.859375l-0.71875 2.03125q-1.828125 -0.984375 -3.859375 -0.984375q-2.484375 0 -3.9375 1.8125q-1.4375 1.8125 -1.4375 4.953125q0 3.0625 1.421875 4.859375q1.4375 1.78125 3.96875 1.78125q2.015625 0 4.125 -1.09375l0.328125 2.078125q-1.703125 1.234375 -4.484375 1.234375zm9.78125 -8.890625q0 3.046875 1.34375 4.890625q1.359375 1.828125 3.953125 1.828125q2.5625 0 3.859375 -1.828125q1.3125 -1.828125 1.3125 -4.921875q0 -3.140625 -1.296875 -4.9375q-1.28125 -1.8125 -3.921875 -1.8125q-2.5625 0 -3.90625 1.84375q-1.34375 1.84375 -1.34375 4.9375zm13.171875 -0.046875q0 3.984375 -2.125 6.46875q-2.125 2.46875 -5.875 2.46875q-3.609375 0 -5.75 -2.5q-2.125 -2.5 -2.125 -6.421875q0 -4.0 2.140625 -6.46875q2.140625 -2.46875 5.875 -2.46875q3.671875 0 5.765625 2.484375q2.09375 2.46875 2.09375 6.4375zm3.6875 8.578125l0 -17.140625l2.1875 0l0.328125 2.453125q1.015625 -1.265625 2.53125 -2.03125q1.53125 -0.78125 3.296875 -0.78125q2.96875 0 4.390625 1.671875q1.421875 1.65625 1.421875 5.109375l0 10.71875l-2.609375 0q0 -10.3125 -0.015625 -11.046875q-0.0625 -2.1875 -0.890625 -3.203125q-0.8125 -1.015625 -2.734375 -1.015625q-2.015625 0 -3.359375 0.96875q-1.34375 0.96875 -1.75 2.515625q-0.15625 1.046875 -0.15625 2.40625l0 9.375l-2.640625 0zm23.96875 0.3125q-2.53125 0 -3.59375 -1.234375q-1.0625 -1.234375 -1.125 -3.984375l0 -10.296875l-2.546875 0l0.109375 -1.71875l2.421875 -0.21875l0.890625 -3.921875l1.71875 -0.0625l0 3.984375l4.765625 0l0 1.9375l-4.765625 0l0 9.828125q0 1.953125 0.59375 2.75q0.59375 0.796875 2.03125 0.796875q0.515625 0 2.234375 -0.25l0.109375 2.0625q-1.859375 0.328125 -2.84375 0.328125zm13.3125 -17.609375q0.703125 0 1.28125 0.09375l-0.09375 2.40625q-0.71875 -0.125 -1.25 -0.125q-2.1875 0 -3.5625 1.53125q-1.359375 1.515625 -1.359375 3.765625l0 9.625l-2.609375 0q-0.015625 -15.78125 -0.015625 -17.140625l2.171875 0l0.25 3.078125q0.890625 -1.453125 2.265625 -2.34375q1.375 -0.890625 2.921875 -0.890625zm5.875 8.765625q0 3.046875 1.34375 4.890625q1.359375 1.828125 3.953125 1.828125q2.5625 0 3.859375 -1.828125q1.3125 -1.828125 1.3125 -4.921875q0 -3.140625 -1.296875 -4.9375q-1.28125 -1.8125 -3.921875 -1.8125q-2.5625 0 -3.90625 1.84375q-1.34375 1.84375 -1.34375 4.9375zm13.171875 -0.046875q0 3.984375 -2.125 6.46875q-2.125 2.46875 -5.875 2.46875q-3.609375 0 -5.75 -2.5q-2.125 -2.5 -2.125 -6.421875q0 -4.0 2.140625 -6.46875q2.140625 -2.46875 5.875 -2.46875q3.671875 0 5.765625 2.484375q2.09375 2.46875 2.09375 6.4375zm8.296875 8.890625q-2.5 0 -3.546875 -1.34375q-1.03125 -1.34375 -1.03125 -4.671875l0 -18.09375l2.59375 -0.15625l0 17.21875q0 1.0625 0.015625 1.703125q0.03125 0.640625 0.125 1.265625q0.09375 0.609375 0.25 0.921875q0.15625 0.3125 0.453125 0.578125q0.296875 0.25 0.703125 0.34375q0.421875 0.078125 1.03125 0.078125q0.5 0 1.96875 -0.1875l0.140625 2.078125q-1.609375 0.265625 -2.703125 0.265625zm8.890625 0q-2.5 0 -3.546875 -1.34375q-1.03125 -1.34375 -1.03125 -4.671875l0 -18.09375l2.59375 -0.15625l0 17.21875q0 1.0625 0.015625 1.703125q0.03125 0.640625 0.125 1.265625q0.09375 0.609375 0.25 0.921875q0.15625 0.3125 0.453125 0.578125q0.296875 0.25 0.703125 0.34375q0.421875 0.078125 1.03125 0.078125q0.5 0 1.96875 -0.1875l0.140625 2.078125q-1.609375 0.265625 -2.703125 0.265625zm14.15625 -14.28125q-1.140625 -1.375 -3.140625 -1.375q-2.0 0 -3.265625 1.421875q-1.265625 1.40625 -1.484375 3.859375l9.046875 0q0 -2.546875 -1.15625 -3.90625zm-2.625 14.328125q-3.734375 0 -5.890625 -2.375q-2.140625 -2.375 -2.140625 -6.5q0 -3.984375 2.078125 -6.453125q2.078125 -2.484375 5.46875 -2.53125q3.1875 0 5.046875 2.1875q1.875 2.171875 1.875 5.8125q0 0.1875 -0.015625 0.6875q0 0.5 0 0.71875l-11.765625 0q0.046875 2.921875 1.5 4.5625q1.46875 1.625 3.9375 1.625q2.71875 0 5.453125 -1.4375l0.40625 2.109375q-2.609375 1.59375 -5.953125 1.59375zm17.75 -17.65625q0.703125 0 1.28125 0.09375l-0.09375 2.40625q-0.71875 -0.125 -1.25 -0.125q-2.1875 0 -3.5625 1.53125q-1.359375 1.515625 -1.359375 3.765625l0 9.625l-2.609375 0q-0.015625 -15.78125 -0.015625 -17.140625l2.171875 0l0.25 3.078125q0.890625 -1.453125 2.265625 -2.34375q1.375 -0.890625 2.921875 -0.890625zm9.078125 17.65625q-1.75 0 -3.234375 -0.375q-1.46875 -0.375 -2.390625 -0.96875l0.328125 -2.203125q2.609375 1.390625 5.125 1.390625q3.8125 0 3.921875 -2.6875q0 -1.140625 -0.8125 -1.796875q-0.8125 -0.65625 -3.1875 -1.46875l-1.296875 -0.453125q-2.25 -0.75 -3.21875 -1.859375q-0.953125 -1.109375 -0.96875 -2.765625q0 -2.015625 1.609375 -3.34375q1.625 -1.328125 4.4375 -1.328125q2.90625 0 5.296875 1.125l-0.765625 2.0q-2.421875 -1.0 -4.53125 -1.0q-1.640625 0 -2.578125 0.65625q-0.921875 0.640625 -0.921875 1.8125q0 1.0 0.671875 1.53125q0.671875 0.53125 2.6875 1.21875q0.515625 0.1875 1.296875 0.4375q2.59375 0.84375 3.671875 2.0q1.078125 1.140625 1.078125 3.09375q-0.03125 2.375 -1.703125 3.6875q-1.671875 1.296875 -4.515625 1.296875z" fill-rule="nonzero"></path><path fill="#f4cccc" d="m217.19554 472.79813l0 0c0 -6.488373 5.2598724 -11.7482605 11.7482605 -11.7482605l270.45624 0c3.1158447 0 6.104065 1.2377625 8.3072815 3.440979c2.2032166 2.203247 3.440979 5.1914673 3.440979 8.3072815l0 46.99167c0 6.4884033 -5.259857 11.748291 -11.7482605 11.748291l-270.45624 0c-6.488388 0 -11.7482605 -5.2598877 -11.7482605 -11.748291z" fill-rule="nonzero"></path><path stroke="#000000" stroke-width="2.0" stroke-linejoin="round" stroke-linecap="butt" d="m217.19554 472.79813l0 0c0 -6.488373 5.2598724 -11.7482605 11.7482605 -11.7482605l270.45624 0c3.1158447 0 6.104065 1.2377625 8.3072815 3.440979c2.2032166 2.203247 3.440979 5.1914673 3.440979 8.3072815l0 46.99167c0 6.4884033 -5.259857 11.748291 -11.7482605 11.748291l-270.45624 0c-6.488388 0 -11.7482605 -5.2598877 -11.7482605 -11.748291z" fill-rule="nonzero"></path><path fill="#000000" d="m295.88284 508.37335q-3.78125 0 -5.921875 -2.453125q-2.125 -2.453125 -2.125 -6.421875q0.015625 -4.0 2.171875 -6.484375q2.171875 -2.5 5.9375 -2.5q1.328125 0 2.5625 0.328125q1.25 0.328125 1.96875 0.859375l-0.71875 2.03125q-1.828125 -0.984375 -3.859375 -0.984375q-2.484375 0 -3.9375 1.8125q-1.4375 1.8125 -1.4375 4.953125q0 3.0625 1.421875 4.859375q1.4375 1.78125 3.96875 1.78125q2.015625 0 4.125 -1.09375l0.328125 2.078125q-1.703125 1.234375 -4.484375 1.234375zm9.78125 -8.890625q0 3.046875 1.34375 4.890625q1.359375 1.828125 3.953125 1.828125q2.5625 0 3.859375 -1.828125q1.3125 -1.828125 1.3125 -4.921875q0 -3.140625 -1.296875 -4.9375q-1.28125 -1.8125 -3.921875 -1.8125q-2.5625 0 -3.90625 1.84375q-1.34375 1.84375 -1.34375 4.9375zm13.171875 -0.046875q0 3.984375 -2.125 6.46875q-2.125 2.46875 -5.875 2.46875q-3.609375 0 -5.75 -2.5q-2.125 -2.5 -2.125 -6.421875q0 -4.0 2.140625 -6.46875q2.140625 -2.46875 5.875 -2.46875q3.671875 0 5.765625 2.484375q2.09375 2.46875 2.09375 6.4375zm3.6875 8.578125l0 -17.140625l2.1875 0l0.328125 2.453125q1.015625 -1.265625 2.53125 -2.03125q1.53125 -0.78125 3.296875 -0.78125q2.96875 0 4.390625 1.671875q1.421875 1.65625 1.421875 5.109375l0 10.71875l-2.609375 0q0 -10.3125 -0.015625 -11.046875q-0.0625 -2.1875 -0.890625 -3.203125q-0.8125 -1.015625 -2.734375 -1.015625q-2.015625 0 -3.359375 0.96875q-1.34375 0.96875 -1.75 2.515625q-0.15625 1.046875 -0.15625 2.40625l0 9.375l-2.640625 0zm23.96875 0.3125q-2.53125 0 -3.59375 -1.234375q-1.0625 -1.234375 -1.125 -3.984375l0 -10.296875l-2.546875 0l0.109375 -1.71875l2.421875 -0.21875l0.890625 -3.921875l1.71875 -0.0625l0 3.984375l4.765625 0l0 1.9375l-4.765625 0l0 9.828125q0 1.953125 0.59375 2.75q0.59375 0.796875 2.03125 0.796875q0.515625 0 2.234375 -0.25l0.109375 2.0625q-1.859375 0.328125 -2.84375 0.328125zm13.3125 -17.609375q0.703125 0 1.28125 0.09375l-0.09375 2.40625q-0.71875 -0.125 -1.25 -0.125q-2.1875 0 -3.5625 1.53125q-1.359375 1.515625 -1.359375 3.765625l0 9.625l-2.609375 0q-0.015625 -15.78125 -0.015625 -17.140625l2.171875 0l0.25 3.078125q0.890625 -1.453125 2.265625 -2.34375q1.375 -0.890625 2.921875 -0.890625zm5.875 8.765625q0 3.046875 1.34375 4.890625q1.359375 1.828125 3.953125 1.828125q2.5625 0 3.859375 -1.828125q1.3125 -1.828125 1.3125 -4.921875q0 -3.140625 -1.296875 -4.9375q-1.28125 -1.8125 -3.921875 -1.8125q-2.5625 0 -3.90625 1.84375q-1.34375 1.84375 -1.34375 4.9375zm13.171875 -0.046875q0 3.984375 -2.125 6.46875q-2.125 2.46875 -5.875 2.46875q-3.609375 0 -5.75 -2.5q-2.125 -2.5 -2.125 -6.421875q0 -4.0 2.140625 -6.46875q2.140625 -2.46875 5.875 -2.46875q3.671875 0 5.765625 2.484375q2.09375 2.46875 2.09375 6.4375zm8.296875 8.890625q-2.5 0 -3.546875 -1.34375q-1.03125 -1.34375 -1.03125 -4.671875l0 -18.09375l2.59375 -0.15625l0 17.21875q0 1.0625 0.015625 1.703125q0.03125 0.640625 0.125 1.265625q0.09375 0.609375 0.25 0.921875q0.15625 0.3125 0.453125 0.578125q0.296875 0.25 0.703125 0.34375q0.421875 0.078125 1.03125 0.078125q0.5 0 1.96875 -0.1875l0.140625 2.078125q-1.609375 0.265625 -2.703125 0.265625zm8.890625 0q-2.5 0 -3.546875 -1.34375q-1.03125 -1.34375 -1.03125 -4.671875l0 -18.09375l2.59375 -0.15625l0 17.21875q0 1.0625 0.015625 1.703125q0.03125 0.640625 0.125 1.265625q0.09375 0.609375 0.25 0.921875q0.15625 0.3125 0.453125 0.578125q0.296875 0.25 0.703125 0.34375q0.421875 0.078125 1.03125 0.078125q0.5 0 1.96875 -0.1875l0.140625 2.078125q-1.609375 0.265625 -2.703125 0.265625zm14.15625 -14.28125q-1.140625 -1.375 -3.140625 -1.375q-2.0 0 -3.265625 1.421875q-1.265625 1.40625 -1.484375 3.859375l9.046875 0q0 -2.546875 -1.15625 -3.90625zm-2.625 14.328125q-3.734375 0 -5.890625 -2.375q-2.140625 -2.375 -2.140625 -6.5q0 -3.984375 2.078125 -6.453125q2.078125 -2.484375 5.46875 -2.53125q3.1875 0 5.046875 2.1875q1.875 2.171875 1.875 5.8125q0 0.1875 -0.015625 0.6875q0 0.5 0 0.71875l-11.765625 0q0.046875 2.921875 1.5 4.5625q1.46875 1.625 3.9375 1.625q2.71875 0 5.453125 -1.4375l0.40625 2.109375q-2.609375 1.59375 -5.953125 1.59375zm17.75 -17.65625q0.703125 0 1.28125 0.09375l-0.09375 2.40625q-0.71875 -0.125 -1.25 -0.125q-2.1875 0 -3.5625 1.53125q-1.359375 1.515625 -1.359375 3.765625l0 9.625l-2.609375 0q-0.015625 -15.78125 -0.015625 -17.140625l2.171875 0l0.25 3.078125q0.890625 -1.453125 2.265625 -2.34375q1.375 -0.890625 2.921875 -0.890625zm9.078125 17.65625q-1.75 0 -3.234375 -0.375q-1.46875 -0.375 -2.390625 -0.96875l0.328125 -2.203125q2.609375 1.390625 5.125 1.390625q3.8125 0 3.921875 -2.6875q0 -1.140625 -0.8125 -1.796875q-0.8125 -0.65625 -3.1875 -1.46875l-1.296875 -0.453125q-2.25 -0.75 -3.21875 -1.859375q-0.953125 -1.109375 -0.96875 -2.765625q0 -2.015625 1.609375 -3.34375q1.625 -1.328125 4.4375 -1.328125q2.90625 0 5.296875 1.125l-0.765625 2.0q-2.421875 -1.0 -4.53125 -1.0q-1.640625 0 -2.578125 0.65625q-0.921875 0.640625 -0.921875 1.8125q0 1.0 0.671875 1.53125q0.671875 0.53125 2.6875 1.21875q0.515625 0.1875 1.296875 0.4375q2.59375 0.84375 3.671875 2.0q1.078125 1.140625 1.078125 3.09375q-0.03125 2.375 -1.703125 3.6875q-1.671875 1.296875 -4.515625 1.296875z" fill-rule="nonzero"></path><path fill="#cfe2f3" d="m399.5105 572.11835l0 0c0 -6.4884033 5.2598877 -11.748291 11.7482605 -11.748291l224.94443 0c3.1158447 0 6.104065 1.237793 8.307251 3.44104c2.203247 2.203186 3.440979 5.1914062 3.440979 8.307251l0 46.99164c0 6.4884033 -5.2598267 11.748291 -11.74823 11.748291l-224.94443 0c-6.488373 0 -11.7482605 -5.2598877 -11.7482605 -11.748291z" fill-rule="nonzero"></path><path stroke="#000000" stroke-width="2.0" stroke-linejoin="round" stroke-linecap="butt" d="m399.5105 572.11835l0 0c0 -6.4884033 5.2598877 -11.748291 11.7482605 -11.748291l224.94443 0c3.1158447 0 6.104065 1.237793 8.307251 3.44104c2.203247 2.203186 3.440979 5.1914062 3.440979 8.307251l0 46.99164c0 6.4884033 -5.2598267 11.748291 -11.74823 11.748291l-224.94443 0c-6.488373 0 -11.7482605 -5.2598877 -11.7482605 -11.748291z" fill-rule="nonzero"></path><path fill="#073763" d="m479.16068 605.58417q1.859375 0 3.265625 -1.015625q1.421875 -1.03125 1.828125 -2.765625l0 -2.890625q-0.078125 0 -0.953125 0.078125q-0.859375 0.078125 -1.125 0.09375q-3.390625 0.296875 -4.734375 1.109375q-1.328125 0.8125 -1.328125 2.609375q0 1.375 0.8125 2.078125q0.8125 0.703125 2.234375 0.703125zm5.671875 1.75q-0.234375 -1.0 -0.453125 -2.15625q-1.421875 1.421875 -2.671875 1.96875q-1.25 0.546875 -2.9375 0.546875q-2.40625 0 -3.875 -1.25q-1.453125 -1.265625 -1.453125 -3.625q0 -2.625 1.984375 -3.890625q2.0 -1.265625 5.75 -1.578125q0.515625 -0.046875 1.546875 -0.125q1.046875 -0.09375 1.5625 -0.140625l0 -1.515625q0 -1.8125 -0.84375 -2.6875q-0.84375 -0.875 -2.65625 -0.875q-2.53125 0 -5.109375 1.25q-0.078125 -0.1875 -0.40625 -1.078125q-0.328125 -0.90625 -0.34375 -0.9375q1.140625 -0.640625 2.703125 -1.015625q1.578125 -0.390625 3.203125 -0.390625q3.203125 0 4.609375 1.40625q1.421875 1.390625 1.421875 4.75l0 11.34375l-2.03125 0zm13.78125 0.359375q-3.78125 0 -5.921875 -2.453125q-2.125 -2.453125 -2.125 -6.421875q0.015625 -4.0 2.171875 -6.484375q2.171875 -2.5 5.9375 -2.5q1.328125 0 2.5625 0.328125q1.25 0.328125 1.96875 0.859375l-0.71875 2.03125q-1.828125 -0.984375 -3.859375 -0.984375q-2.484375 0 -3.9375 1.8125q-1.4375 1.8125 -1.4375 4.953125q0 3.0625 1.421875 4.859375q1.4375 1.78125 3.96875 1.78125q2.015625 0 4.125 -1.09375l0.328125 2.078125q-1.703125 1.234375 -4.484375 1.234375zm13.34375 -0.046875q-2.53125 0 -3.59375 -1.234375q-1.0625 -1.234375 -1.125 -3.984375l0 -10.296875l-2.546875 0l0.109375 -1.71875l2.421875 -0.21875l0.890625 -3.921875l1.71875 -0.0625l0 3.984375l4.7655945 0l0 1.9375l-4.7655945 0l0 9.828125q0 1.953125 0.59375 2.75q0.59375 0.796875 2.0312195 0.796875q0.515625 0 2.234375 -0.25l0.109375 2.0625q-1.859375 0.328125 -2.8437195 0.328125zm8.7030945 -17.453125l0 17.140625l-2.625 0l0 -17.140625l2.625 0zm0 -6.234375l0 3.09375l-2.625 0l0 -3.09375l2.625 0zm6.8125 14.84375q0 3.046875 1.34375 4.890625q1.359375 1.828125 3.953125 1.828125q2.5625 0 3.859375 -1.828125q1.3125 -1.828125 1.3125 -4.921875q0 -3.140625 -1.296875 -4.9375q-1.28125 -1.8125 -3.921875 -1.8125q-2.5625 0 -3.90625 1.84375q-1.34375 1.84375 -1.34375 4.9375zm13.171875 -0.046875q0 3.984375 -2.125 6.46875q-2.125 2.46875 -5.875 2.46875q-3.609375 0 -5.75 -2.5q-2.125 -2.5 -2.125 -6.421875q0 -4.0 2.140625 -6.46875q2.140625 -2.46875 5.875 -2.46875q3.671875 0 5.765625 2.484375q2.09375 2.46875 2.09375 6.4375zm3.6875 8.578125l0 -17.140625l2.1875 0l0.328125 2.453125q1.015625 -1.265625 2.53125 -2.03125q1.53125 -0.78125 3.296875 -0.78125q2.96875 0 4.390625 1.671875q1.421875 1.65625 1.421875 5.109375l0 10.71875l-2.609375 0q0 -10.3125 -0.015625 -11.046875q-0.0625 -2.1875 -0.890625 -3.203125q-0.8125 -1.015625 -2.734375 -1.015625q-2.015625 0 -3.359375 0.96875q-1.34375 0.96875 -1.75 2.515625q-0.15625 1.046875 -0.15625 2.40625l0 9.375l-2.640625 0zm23.609375 0.359375q-1.75 0 -3.234375 -0.375q-1.46875 -0.375 -2.390625 -0.96875l0.328125 -2.203125q2.609375 1.390625 5.125 1.390625q3.8125 0 3.921875 -2.6875q0 -1.140625 -0.8125 -1.796875q-0.8125 -0.65625 -3.1875 -1.46875l-1.296875 -0.453125q-2.25 -0.75 -3.21875 -1.859375q-0.953125 -1.109375 -0.96875 -2.765625q0 -2.015625 1.609375 -3.34375q1.625 -1.328125 4.4375 -1.328125q2.90625 0 5.296875 1.125l-0.765625 2.0q-2.421875 -1.0 -4.53125 -1.0q-1.640625 0 -2.578125 0.65625q-0.921875 0.640625 -0.921875 1.8125q0 1.0 0.671875 1.53125q0.671875 0.53125 2.6875 1.21875q0.515625 0.1875 1.296875 0.4375q2.59375 0.84375 3.671875 2.0q1.078125 1.140625 1.078125 3.09375q-0.03125 2.375 -1.703125 3.6875q-1.671875 1.296875 -4.515625 1.296875z" fill-rule="nonzero"></path><path fill="#000000" fill-opacity="0.0" d="m364.1719 531.5381l0 64.06299l35.338593 0" fill-rule="nonzero"></path><path stroke="#000000" stroke-width="3.0" stroke-linejoin="round" stroke-linecap="butt" d="m364.1719 531.5381l0 64.06299l35.338593 0" fill-rule="nonzero"></path><path fill="#cfe2f3" d="m415.5105 588.11835l0 0c0 -6.4884033 5.2598877 -11.748291 11.7482605 -11.748291l224.94443 0c3.1158447 0 6.104065 1.237793 8.307251 3.44104c2.203247 2.203186 3.440979 5.1914062 3.440979 8.307251l0 46.99164c0 6.4884033 -5.2598267 11.748291 -11.74823 11.748291l-224.94443 0c-6.488373 0 -11.7482605 -5.2598877 -11.7482605 -11.748291z" fill-rule="nonzero"></path><path stroke="#000000" stroke-width="2.0" stroke-linejoin="round" stroke-linecap="butt" d="m415.5105 588.11835l0 0c0 -6.4884033 5.2598877 -11.748291 11.7482605 -11.748291l224.94443 0c3.1158447 0 6.104065 1.237793 8.307251 3.44104c2.203247 2.203186 3.440979 5.1914062 3.440979 8.307251l0 46.99164c0 6.4884033 -5.2598267 11.748291 -11.74823 11.748291l-224.94443 0c-6.488373 0 -11.7482605 -5.2598877 -11.7482605 -11.748291z" fill-rule="nonzero"></path><path fill="#073763" d="m495.16068 621.58417q1.859375 0 3.265625 -1.015625q1.421875 -1.03125 1.828125 -2.765625l0 -2.890625q-0.078125 0 -0.953125 0.078125q-0.859375 0.078125 -1.125 0.09375q-3.390625 0.296875 -4.734375 1.109375q-1.328125 0.8125 -1.328125 2.609375q0 1.375 0.8125 2.078125q0.8125 0.703125 2.234375 0.703125zm5.671875 1.75q-0.234375 -1.0 -0.453125 -2.15625q-1.421875 1.421875 -2.671875 1.96875q-1.25 0.546875 -2.9375 0.546875q-2.40625 0 -3.875 -1.25q-1.453125 -1.265625 -1.453125 -3.625q0 -2.625 1.984375 -3.890625q2.0 -1.265625 5.75 -1.578125q0.515625 -0.046875 1.546875 -0.125q1.046875 -0.09375 1.5625 -0.140625l0 -1.515625q0 -1.8125 -0.84375 -2.6875q-0.84375 -0.875 -2.65625 -0.875q-2.53125 0 -5.109375 1.25q-0.078125 -0.1875 -0.40625 -1.078125q-0.328125 -0.90625 -0.34375 -0.9375q1.140625 -0.640625 2.703125 -1.015625q1.578125 -0.390625 3.203125 -0.390625q3.203125 0 4.609375 1.40625q1.421875 1.390625 1.421875 4.75l0 11.34375l-2.03125 0zm13.7812195 0.359375q-3.7812195 0 -5.9218445 -2.453125q-2.125 -2.453125 -2.125 -6.421875q0.015625 -4.0 2.171875 -6.484375q2.171875 -2.5 5.9374695 -2.5q1.328125 0 2.5625 0.328125q1.25 0.328125 1.96875 0.859375l-0.71875 2.03125q-1.828125 -0.984375 -3.859375 -0.984375q-2.484375 0 -3.9374695 1.8125q-1.4375 1.8125 -1.4375 4.953125q0 3.0625 1.421875 4.859375q1.4374695 1.78125 3.9687195 1.78125q2.015625 0 4.125 -1.09375l0.328125 2.078125q-1.703125 1.234375 -4.484375 1.234375zm13.34375 -0.046875q-2.53125 0 -3.59375 -1.234375q-1.0625 -1.234375 -1.125 -3.984375l0 -10.296875l-2.546875 0l0.109375 -1.71875l2.421875 -0.21875l0.890625 -3.921875l1.71875 -0.0625l0 3.984375l4.765625 0l0 1.9375l-4.765625 0l0 9.828125q0 1.953125 0.59375 2.75q0.59375 0.796875 2.03125 0.796875q0.515625 0 2.234375 -0.25l0.109375 2.0625q-1.859375 0.328125 -2.84375 0.328125zm8.703125 -17.453125l0 17.140625l-2.625 0l0 -17.140625l2.625 0zm0 -6.234375l0 3.09375l-2.625 0l0 -3.09375l2.625 0zm6.8125 14.84375q0 3.046875 1.34375 4.890625q1.359375 1.828125 3.953125 1.828125q2.5625 0 3.859375 -1.828125q1.3125 -1.828125 1.3125 -4.921875q0 -3.140625 -1.296875 -4.9375q-1.28125 -1.8125 -3.921875 -1.8125q-2.5625 0 -3.90625 1.84375q-1.34375 1.84375 -1.34375 4.9375zm13.171875 -0.046875q0 3.984375 -2.125 6.46875q-2.125 2.46875 -5.875 2.46875q-3.609375 0 -5.75 -2.5q-2.125 -2.5 -2.125 -6.421875q0 -4.0 2.140625 -6.46875q2.140625 -2.46875 5.875 -2.46875q3.671875 0 5.765625 2.484375q2.09375 2.46875 2.09375 6.4375zm3.6875 8.578125l0 -17.140625l2.1875 0l0.328125 2.453125q1.015625 -1.265625 2.53125 -2.03125q1.53125 -0.78125 3.296875 -0.78125q2.96875 0 4.390625 1.671875q1.421875 1.65625 1.421875 5.109375l0 10.71875l-2.609375 0q0 -10.3125 -0.015625 -11.046875q-0.0625 -2.1875 -0.890625 -3.203125q-0.8125 -1.015625 -2.734375 -1.015625q-2.015625 0 -3.359375 0.96875q-1.34375 0.96875 -1.75 2.515625q-0.15625 1.046875 -0.15625 2.40625l0 9.375l-2.640625 0zm23.609375 0.359375q-1.75 0 -3.234375 -0.375q-1.46875 -0.375 -2.390625 -0.96875l0.328125 -2.203125q2.609375 1.390625 5.125 1.390625q3.8125 0 3.921875 -2.6875q0 -1.140625 -0.8125 -1.796875q-0.8125 -0.65625 -3.1875 -1.46875l-1.296875 -0.453125q-2.25 -0.75 -3.21875 -1.859375q-0.953125 -1.109375 -0.96875 -2.765625q0 -2.015625 1.609375 -3.34375q1.625 -1.328125 4.4375 -1.328125q2.90625 0 5.296875 1.125l-0.765625 2.0q-2.421875 -1.0 -4.53125 -1.0q-1.640625 0 -2.578125 0.65625q-0.921875 0.640625 -0.921875 1.8125q0 1.0 0.671875 1.53125q0.671875 0.53125 2.6875 1.21875q0.515625 0.1875 1.296875 0.4375q2.59375 0.84375 3.671875 2.0q1.078125 1.140625 1.078125 3.09375q-0.03125 2.375 -1.703125 3.6875q-1.671875 1.296875 -4.515625 1.296875z" fill-rule="nonzero"></path><path fill="#cfe2f3" d="m431.5105 604.11835l0 0c0 -6.4884033 5.2598877 -11.748291 11.7482605 -11.748291l224.94443 0c3.1158447 0 6.104065 1.237793 8.307251 3.44104c2.203247 2.203186 3.440979 5.1914062 3.440979 8.307251l0 46.99164c0 6.4884033 -5.2598267 11.748291 -11.74823 11.748291l-224.94443 0c-6.488373 0 -11.7482605 -5.2598877 -11.7482605 -11.748291z" fill-rule="nonzero"></path><path stroke="#000000" stroke-width="2.0" stroke-linejoin="round" stroke-linecap="butt" d="m431.5105 604.11835l0 0c0 -6.4884033 5.2598877 -11.748291 11.7482605 -11.748291l224.94443 0c3.1158447 0 6.104065 1.237793 8.307251 3.44104c2.203247 2.203186 3.440979 5.1914062 3.440979 8.307251l0 46.99164c0 6.4884033 -5.2598267 11.748291 -11.74823 11.748291l-224.94443 0c-6.488373 0 -11.7482605 -5.2598877 -11.7482605 -11.748291z" fill-rule="nonzero"></path><path fill="#000000" d="m507.16068 639.33417l0 -10.359375q0 -2.578125 -0.828125 -3.75q-0.8125 -1.171875 -2.859375 -1.171875q-1.96875 0 -3.328125 0.984375q-1.34375 0.984375 -1.75 2.546875q-0.140625 1.171875 -0.140625 2.609375l0 9.140625l-2.609375 0l0 -23.796875l2.609375 -0.15625l0 6.96875q0 0.890625 -0.0625 2.203125q2.203125 -2.71875 5.84375 -2.71875q5.734375 0 5.734375 6.734375l0 10.765625l-2.609375 0zm10.7812195 -1.75q1.859375 0 3.265625 -1.015625q1.421875 -1.03125 1.828125 -2.765625l0 -2.890625q-0.078125 0 -0.953125 0.078125q-0.859375 0.078125 -1.125 0.09375q-3.390625 0.296875 -4.734375 1.109375q-1.328125 0.8125 -1.328125 2.609375q0 1.375 0.8125 2.078125q0.8125 0.703125 2.234375 0.703125zm5.671875 1.75q-0.234375 -1.0 -0.453125 -2.15625q-1.421875 1.421875 -2.671875 1.96875q-1.25 0.546875 -2.9375 0.546875q-2.40625 0 -3.875 -1.25q-1.453125 -1.265625 -1.453125 -3.625q0 -2.625 1.984375 -3.890625q2.0 -1.265625 5.75 -1.578125q0.515625 -0.046875 1.546875 -0.125q1.046875 -0.09375 1.5625 -0.140625l0 -1.515625q0 -1.8125 -0.84375 -2.6875q-0.84375 -0.875 -2.65625 -0.875q-2.53125 0 -5.109375 1.25q-0.078125 -0.1875 -0.40625 -1.078125q-0.328125 -0.90625 -0.34375 -0.9375q1.140625 -0.640625 2.703125 -1.015625q1.578125 -0.390625 3.203125 -0.390625q3.203125 0 4.609375 1.40625q1.421875 1.390625 1.421875 4.75l0 11.34375l-2.03125 0zm6.53125 0l0 -17.140625l2.1875 0l0.328125 2.453125q1.015625 -1.265625 2.53125 -2.03125q1.53125 -0.78125 3.296875 -0.78125q2.96875 0 4.390625 1.671875q1.421875 1.65625 1.421875 5.109375l0 10.71875l-2.609375 0q0 -10.3125 -0.015625 -11.046875q-0.0625 -2.1875 -0.890625 -3.203125q-0.8125 -1.015625 -2.734375 -1.015625q-2.015625 0 -3.359375 0.96875q-1.34375 0.96875 -1.75 2.515625q-0.15625 1.046875 -0.15625 2.40625l0 9.375l-2.640625 0zm25.1875 -1.890625q2.578125 0 3.828125 -1.65625q1.265625 -1.65625 1.265625 -4.734375q0 -3.46875 -1.21875 -5.21875q-1.203125 -1.765625 -3.90625 -1.765625q-1.203125 0 -2.125 0.515625q-0.921875 0.515625 -1.484375 1.4375q-0.5625 0.921875 -0.859375 2.125q-0.28125 1.1875 -0.28125 2.609375q0 2.0 0.484375 3.46875q0.5 1.46875 1.59375 2.34375q1.09375 0.875 2.703125 0.875zm5.140625 -0.59375q-0.84375 1.296875 -2.25 2.0625q-1.40625 0.765625 -3.140625 0.765625q-3.390625 0 -5.3125 -2.40625q-1.921875 -2.421875 -1.921875 -6.578125q0 -3.96875 1.953125 -6.40625q1.953125 -2.453125 5.234375 -2.453125q1.703125 0 3.203125 0.75q1.515625 0.734375 2.265625 1.984375l-0.046875 -1.484375l0 -7.546875l2.578125 -0.15625l0 23.953125l-2.21875 0l-0.34375 -2.484375zm11.703125 2.796875q-2.5 0 -3.546875 -1.34375q-1.03125 -1.34375 -1.03125 -4.671875l0 -18.09375l2.59375 -0.15625l0 17.21875q0 1.0625 0.015625 1.703125q0.03125 0.640625 0.125 1.265625q0.09375 0.609375 0.25 0.921875q0.15625 0.3125 0.453125 0.578125q0.296875 0.25 0.703125 0.34375q0.421875 0.078125 1.03125 0.078125q0.5 0 1.96875 -0.1875l0.140625 2.078125q-1.609375 0.265625 -2.703125 0.265625zm14.15625 -14.28125q-1.140625 -1.375 -3.140625 -1.375q-2.0 0 -3.265625 1.421875q-1.265625 1.40625 -1.484375 3.859375l9.046875 0q0 -2.546875 -1.15625 -3.90625zm-2.625 14.328125q-3.734375 0 -5.890625 -2.375q-2.140625 -2.375 -2.140625 -6.5q0 -3.984375 2.078125 -6.453125q2.078125 -2.484375 5.46875 -2.53125q3.1875 0 5.046875 2.1875q1.875 2.171875 1.875 5.8125q0 0.1875 -0.015625 0.6875q0 0.5 0 0.71875l-11.765625 0q0.046875 2.921875 1.5 4.5625q1.46875 1.625 3.9375 1.625q2.71875 0 5.453125 -1.4375l0.40625 2.109375q-2.609375 1.59375 -5.953125 1.59375zm17.75 -17.65625q0.703125 0 1.28125 0.09375l-0.09375 2.40625q-0.71875 -0.125 -1.25 -0.125q-2.1875 0 -3.5625 1.53125q-1.359375 1.515625 -1.359375 3.765625l0 9.625l-2.609375 0q-0.015625 -15.78125 -0.015625 -17.140625l2.171875 0l0.25 3.078125q0.890625 -1.453125 2.265625 -2.34375q1.375 -0.890625 2.921875 -0.890625zm9.078125 17.65625q-1.75 0 -3.234375 -0.375q-1.46875 -0.375 -2.390625 -0.96875l0.328125 -2.203125q2.609375 1.390625 5.125 1.390625q3.8125 0 3.921875 -2.6875q0 -1.140625 -0.8125 -1.796875q-0.8125 -0.65625 -3.1875 -1.46875l-1.296875 -0.453125q-2.25 -0.75 -3.21875 -1.859375q-0.953125 -1.109375 -0.96875 -2.765625q0 -2.015625 1.609375 -3.34375q1.625 -1.328125 4.4375 -1.328125q2.90625 0 5.296875 1.125l-0.765625 2.0q-2.421875 -1.0 -4.53125 -1.0q-1.640625 0 -2.578125 0.65625q-0.921875 0.640625 -0.921875 1.8125q0 1.0 0.671875 1.53125q0.671875 0.53125 2.6875 1.21875q0.515625 0.1875 1.296875 0.4375q2.59375 0.84375 3.671875 2.0q1.078125 1.140625 1.078125 3.09375q-0.03125 2.375 -1.703125 3.6875q-1.671875 1.296875 -4.515625 1.296875z" fill-rule="nonzero"></path><path fill="#f4cccc" d="m725.1037 604.11835l0 0c0 -6.4884033 5.2598267 -11.748291 11.74823 -11.748291l186.23578 0c3.1158447 0 6.104065 1.237793 8.307251 3.44104c2.203247 2.203186 3.440979 5.1914062 3.440979 8.307251l0 46.99164c0 6.4884033 -5.2598877 11.748291 -11.74823 11.748291l-186.23578 0c-6.4884033 0 -11.74823 -5.2598877 -11.74823 -11.748291z" fill-rule="nonzero"></path><path stroke="#000000" stroke-width="2.0" stroke-linejoin="round" stroke-linecap="butt" d="m725.1037 604.11835l0 0c0 -6.4884033 5.2598267 -11.748291 11.74823 -11.748291l186.23578 0c3.1158447 0 6.104065 1.237793 8.307251 3.44104c2.203247 2.203186 3.440979 5.1914062 3.440979 8.307251l0 46.99164c0 6.4884033 -5.2598877 11.748291 -11.74823 11.748291l-186.23578 0c-6.4884033 0 -11.74823 -5.2598877 -11.74823 -11.748291z" fill-rule="nonzero"></path><path fill="#000000" d="m777.8057 639.69354q-3.78125 0 -5.921875 -2.453125q-2.125 -2.453125 -2.125 -6.421875q0.015625 -4.0 2.171875 -6.484375q2.171875 -2.5 5.9375 -2.5q1.328125 0 2.5625 0.328125q1.25 0.328125 1.96875 0.859375l-0.71875 2.03125q-1.828125 -0.984375 -3.859375 -0.984375q-2.484375 0 -3.9375 1.8125q-1.4375 1.8125 -1.4375 4.953125q0 3.0625 1.421875 4.859375q1.4375 1.78125 3.96875 1.78125q2.015625 0 4.125 -1.09375l0.328125 2.078125q-1.703125 1.234375 -4.484375 1.234375zm9.78125 -8.890625q0 3.046875 1.34375 4.890625q1.359375 1.828125 3.953125 1.828125q2.5625 0 3.859375 -1.828125q1.3125 -1.828125 1.3125 -4.921875q0 -3.140625 -1.296875 -4.9375q-1.28125 -1.8125 -3.921875 -1.8125q-2.5625 0 -3.90625 1.84375q-1.34375 1.84375 -1.34375 4.9375zm13.171875 -0.046875q0 3.984375 -2.125 6.46875q-2.125 2.46875 -5.875 2.46875q-3.609375 0 -5.75 -2.5q-2.125 -2.5 -2.125 -6.421875q0 -4.0 2.140625 -6.46875q2.140625 -2.46875 5.875 -2.46875q3.671875 0 5.765625 2.484375q2.09375 2.46875 2.09375 6.4375zm3.6875 8.578125l0 -17.140625l2.1875 0l0.328125 2.453125q1.015625 -1.265625 2.53125 -2.03125q1.53125 -0.78125 3.296875 -0.78125q2.96875 0 4.390625 1.671875q1.421875 1.65625 1.421875 5.109375l0 10.71875l-2.609375 0q0 -10.3125 -0.015625 -11.046875q-0.0625 -2.1875 -0.890625 -3.203125q-0.8125 -1.015625 -2.734375 -1.015625q-2.015625 0 -3.359375 0.96875q-1.34375 0.96875 -1.75 2.515625q-0.15625 1.046875 -0.15625 2.40625l0 9.375l-2.640625 0zm23.96875 0.3125q-2.53125 0 -3.59375 -1.234375q-1.0625 -1.234375 -1.125 -3.984375l0 -10.296875l-2.546875 0l0.109375 -1.71875l2.421875 -0.21875l0.890625 -3.921875l1.71875 -0.0625l0 3.984375l4.765625 0l0 1.9375l-4.765625 0l0 9.828125q0 1.953125 0.59375 2.75q0.59375 0.796875 2.03125 0.796875q0.515625 0 2.234375 -0.25l0.109375 2.0625q-1.859375 0.328125 -2.84375 0.328125zm15.5 -14.28125q-1.140625 -1.375 -3.140625 -1.375q-2.0 0 -3.265625 1.421875q-1.265625 1.40625 -1.484375 3.859375l9.046875 0q0 -2.546875 -1.15625 -3.90625zm-2.625 14.328125q-3.734375 0 -5.890625 -2.375q-2.140625 -2.375 -2.140625 -6.5q0 -3.984375 2.078125 -6.453125q2.078125 -2.484375 5.46875 -2.53125q3.1875 0 5.046875 2.1875q1.875 2.171875 1.875 5.8125q0 0.1875 -0.015625 0.6875q0 0.5 0 0.71875l-11.765625 0q0.046875 2.921875 1.5 4.5625q1.46875 1.625 3.9375 1.625q2.71875 0 5.453125 -1.4375l0.40625 2.109375q-2.609375 1.59375 -5.953125 1.59375zm14.59375 -9.078125l-6.046875 -8.421875l2.984375 0l4.578186 6.53125l4.59375 -6.53125l2.984375 0l-6.0625 8.453125l6.21875 8.6875l-2.890625 0l-4.828125 -6.890625l-4.828186 6.890625l-2.984375 0l6.28125 -8.71875zm17.453186 9.03125q-2.53125 0 -3.59375 -1.234375q-1.0625 -1.234375 -1.125 -3.984375l0 -10.296875l-2.546875 0l0.109375 -1.71875l2.421875 -0.21875l0.890625 -3.921875l1.71875 -0.0625l0 3.984375l4.765625 0l0 1.9375l-4.765625 0l0 9.828125q0 1.953125 0.59375 2.75q0.59375 0.796875 2.03125 0.796875q0.515625 0 2.234375 -0.25l0.109375 2.0625q-1.859375 0.328125 -2.84375 0.328125zm10.734375 0.046875q-1.75 0 -3.234375 -0.375q-1.46875 -0.375 -2.390625 -0.96875l0.328125 -2.203125q2.609375 1.390625 5.125 1.390625q3.8125 0 3.921875 -2.6875q0 -1.140625 -0.8125 -1.796875q-0.8125 -0.65625 -3.1875 -1.46875l-1.296875 -0.453125q-2.25 -0.75 -3.21875 -1.859375q-0.953125 -1.109375 -0.96875 -2.765625q0 -2.015625 1.609375 -3.34375q1.625 -1.328125 4.4375 -1.328125q2.90625 0 5.296875 1.125l-0.765625 2.0q-2.421875 -1.0 -4.53125 -1.0q-1.640625 0 -2.578125 0.65625q-0.921875 0.640625 -0.921875 1.8125q0 1.0 0.671875 1.53125q0.671875 0.53125 2.6875 1.21875q0.515625 0.1875 1.296875 0.4375q2.59375 0.84375 3.671875 2.0q1.078125 1.140625 1.078125 3.09375q-0.03125 2.375 -1.703125 3.6875q-1.671875 1.296875 -4.515625 1.296875z" fill-rule="nonzero"></path><path fill="#000000" fill-opacity="0.0" d="m679.9514 627.6142l22.582703 0l0 0.06298828l22.582703 0" fill-rule="nonzero"></path><path stroke="#000000" stroke-width="3.0" stroke-linejoin="round" stroke-linecap="butt" d="m679.9514 627.6142l22.582703 0l0 0.06298828l22.582703 0" fill-rule="nonzero"></path><path fill="#fce5cd" d="m686.3964 124.18834l0 0c0 -6.488388 5.2598877 -11.748268 11.74823 -11.748268l224.94446 0c3.1157837 0 6.104004 1.2377625 8.307251 3.4409866c2.203247 2.2032242 3.440979 5.1914444 3.440979 8.3072815l0 46.991653c0 6.488388 -5.2598877 11.7482605 -11.74823 11.7482605l-224.94446 0c-6.4883423 0 -11.74823 -5.2598724 -11.74823 -11.7482605z" fill-rule="nonzero"></path><path stroke="#000000" stroke-width="2.0" stroke-linejoin="round" stroke-linecap="butt" d="m686.3964 124.18834l0 0c0 -6.488388 5.2598877 -11.748268 11.74823 -11.748268l224.94446 0c3.1157837 0 6.104004 1.2377625 8.307251 3.4409866c2.203247 2.2032242 3.440979 5.1914444 3.440979 8.3072815l0 46.991653c0 6.488388 -5.2598877 11.7482605 -11.74823 11.7482605l-224.94446 0c-6.4883423 0 -11.74823 -5.2598724 -11.74823 -11.7482605z" fill-rule="nonzero"></path><path fill="#000000" d="m742.8747 159.76353q-3.78125 0 -5.921875 -2.453125q-2.125 -2.453125 -2.125 -6.421875q0.015625 -4.0 2.171875 -6.484375q2.171875 -2.5 5.9375 -2.5q1.328125 0 2.5625 0.328125q1.25 0.328125 1.96875 0.859375l-0.71875 2.03125q-1.828125 -0.984375 -3.859375 -0.984375q-2.484375 0 -3.9375 1.8125q-1.4375 1.8125 -1.4375 4.953125q0 3.0625 1.421875 4.859375q1.4375 1.78125 3.96875 1.78125q2.015625 0 4.125 -1.09375l0.328125 2.078125q-1.703125 1.234375 -4.484375 1.234375zm9.78125 -8.890625q0 3.046875 1.34375 4.890625q1.359375 1.828125 3.953125 1.828125q2.5625 0 3.859375 -1.828125q1.3125 -1.828125 1.3125 -4.921875q0 -3.140625 -1.296875 -4.9375q-1.28125 -1.8125 -3.921875 -1.8125q-2.5625 0 -3.90625 1.84375q-1.34375 1.84375 -1.34375 4.9375zm13.171875 -0.046875q0 3.984375 -2.125 6.46875q-2.125 2.46875 -5.875 2.46875q-3.609375 0 -5.75 -2.5q-2.125 -2.5 -2.125 -6.421875q0 -4.0 2.140625 -6.46875q2.140625 -2.46875 5.875 -2.46875q3.671875 0 5.765625 2.484375q2.09375 2.46875 2.09375 6.4375zm3.6875 8.578125l0 -17.140625l2.1875 0l0.328125 2.453125q1.015625 -1.265625 2.53125 -2.03125q1.53125 -0.78125 3.296875 -0.78125q2.96875 0 4.390625 1.671875q1.421875 1.65625 1.421875 5.109375l0 10.71875l-2.609375 0q0 -10.3125 -0.015625 -11.046875q-0.0625 -2.1875 -0.890625 -3.203125q-0.8125 -1.015625 -2.734375 -1.015625q-2.015625 0 -3.359375 0.96875q-1.34375 0.96875 -1.75 2.515625q-0.15625 1.046875 -0.15625 2.40625l0 9.375l-2.640625 0zm25.015625 -22.125q-1.625 0 -2.234375 0.9375q-0.59375 0.9375 -0.59375 3.25l0 0.796875l4.125 0l0 1.9375l-4.125 0l0 15.203125l-2.609375 0l0 -15.203125l-2.78125 0l0.21875 -1.71875l2.5625 -0.21875l0 -0.765625q0.03125 -3.3125 1.234375 -4.796875q1.21875 -1.5 3.921875 -1.5q1.046875 0 2.5625 0.234375l-0.171875 2.046875q-1.390625 -0.203125 -2.109375 -0.203125zm7.015625 4.984375l0 17.140625l-2.625 0l0 -17.140625l2.625 0zm0 -6.234375l0 3.09375l-2.625 0l0 -3.09375l2.625 0zm11.5625 21.140625q1.328125 0 2.328125 -0.46875q1.0 -0.46875 1.5625 -1.296875q0.5625 -0.828125 0.828125 -1.84375q0.28125 -1.015625 0.28125 -2.21875l0 -1.265625q0 -1.25 -0.28125 -2.296875q-0.28125 -1.0625 -0.875 -1.890625q-0.578125 -0.84375 -1.5625 -1.3125q-0.96875 -0.46875 -2.265625 -0.46875q-1.078125 0 -1.96875 0.40625q-0.875 0.40625 -1.453125 1.078125q-0.5625 0.65625 -0.96875 1.546875q-0.390625 0.875 -0.5625 1.78125q-0.171875 0.90625 -0.171875 1.828125q0 0.90625 0.1875 1.796875q0.1875 0.890625 0.59375 1.734375q0.40625 0.84375 0.984375 1.484375q0.578125 0.625 1.4375 1.015625q0.875 0.390625 1.90625 0.390625zm-4.015625 10.078125l-0.234375 -2.359375l3.1875 0q1.328125 0 2.3125 -0.1875q0.984375 -0.1875 1.640625 -0.625q0.65625 -0.421875 1.0625 -0.953125q0.40625 -0.515625 0.609375 -1.359375q0.21875 -0.828125 0.28125 -1.65625q0.078125 -0.8125 0.078125 -2.0l0 -1.515625q-0.9375 1.34375 -2.171875 2.078125q-1.234375 0.71875 -3.140625 0.71875q-1.46875 0 -2.71875 -0.5q-1.234375 -0.515625 -2.09375 -1.359375q-0.84375 -0.84375 -1.453125 -1.953125q-0.59375 -1.109375 -0.875 -2.296875q-0.265625 -1.1875 -0.265625 -2.390625q0 -1.875 0.453125 -3.46875q0.46875 -1.59375 1.375 -2.84375q0.90625 -1.25 2.375 -1.953125q1.484375 -0.71875 3.390625 -0.71875q1.6875 0 2.9375 0.65625q1.265625 0.640625 2.265625 1.984375l0 -2.28125l2.546875 0l0 15.90625q0 1.09375 -0.0625 1.90625q-0.046875 0.828125 -0.265625 1.828125q-0.203125 1.0 -0.5625 1.71875q-0.359375 0.71875 -1.015625 1.4375q-0.640625 0.734375 -1.546875 1.171875q-0.890625 0.453125 -2.21875 0.734375q-1.328125 0.28125 -3.0 0.28125l-2.890625 0zm15.3125 -13.5625l0 -11.421875l2.625 0l0 11.453125q0 1.125 0.3125 1.90625q0.328125 0.78125 0.921875 1.21875q0.609375 0.421875 1.359375 0.609375q0.765625 0.1875 1.75 0.1875q2.03125 0 3.15625 -0.890625q1.140625 -0.890625 1.140625 -3.03125l0 -11.453125l2.625 0l0 11.421875q0 1.3125 -0.375 2.359375q-0.375 1.046875 -1.015625 1.75q-0.625 0.6875 -1.515625 1.140625q-0.890625 0.453125 -1.890625 0.65625q-0.984375 0.203125 -2.125 0.203125q-1.125 0 -2.125 -0.203125q-1.0 -0.203125 -1.90625 -0.65625q-0.890625 -0.46875 -1.546875 -1.15625q-0.640625 -0.703125 -1.015625 -1.75q-0.375 -1.046875 -0.375 -2.34375zm25.46875 -11.578125q0.703125 0 1.28125 0.09375l-0.09375 2.40625q-0.71875 -0.125 -1.25 -0.125q-2.1875 0 -3.5625 1.53125q-1.359375 1.515625 -1.359375 3.765625l0 9.625l-2.609375 0q-0.015625 -15.78125 -0.015625 -17.140625l2.171875 0l0.25 3.078125q0.890625 -1.453125 2.265625 -2.34375q1.375 -0.890625 2.921875 -0.890625zm13.84375 3.328125q-1.140625 -1.375 -3.140625 -1.375q-2.0 0 -3.265625 1.421875q-1.265625 1.40625 -1.484375 3.859375l9.046875 0q0 -2.546875 -1.15625 -3.90625zm-2.625 14.328125q-3.734375 0 -5.890625 -2.375q-2.140625 -2.375 -2.140625 -6.5q0 -3.984375 2.078125 -6.453125q2.078125 -2.484375 5.46875 -2.53125q3.1875 0 5.046875 2.1875q1.875 2.171875 1.875 5.8125q0 0.1875 -0.015625 0.6875q0 0.5 0 0.71875l-11.765625 0q0.046875 2.921875 1.5 4.5625q1.46875 1.625 3.9375 1.625q2.71875 0 5.453125 -1.4375l0.40625 2.109375q-2.609375 1.59375 -5.953125 1.59375zm16.75 -2.25q2.578125 0 3.828125 -1.65625q1.265625 -1.65625 1.265625 -4.734375q0 -3.46875 -1.21875 -5.21875q-1.203125 -1.765625 -3.90625 -1.765625q-1.203125 0 -2.125 0.515625q-0.921875 0.515625 -1.484375 1.4375q-0.5625 0.921875 -0.859375 2.125q-0.28125 1.1875 -0.28125 2.609375q0 2.0 0.484375 3.46875q0.5 1.46875 1.59375 2.34375q1.09375 0.875 2.703125 0.875zm5.140625 -0.59375q-0.84375 1.296875 -2.25 2.0625q-1.40625 0.765625 -3.140625 0.765625q-3.390625 0 -5.3125 -2.40625q-1.921875 -2.421875 -1.921875 -6.578125q0 -3.96875 1.953125 -6.40625q1.953125 -2.453125 5.234375 -2.453125q1.703125 0 3.203125 0.75q1.515625 0.734375 2.265625 1.984375l-0.046875 -1.484375l0 -7.546875l2.578125 -0.15625l0 23.953125l-2.21875 0l-0.34375 -2.484375z" fill-rule="nonzero"></path><path fill="#d9ead3" d="m686.3964 33.63803l0 0c0 -6.48839 5.2598877 -11.748268 11.74823 -11.748268l224.94446 0c3.1157837 0 6.104004 1.2377605 8.307251 3.4409885c2.203247 2.203228 3.440979 5.1914444 3.440979 8.30728l0 46.991653c0 6.488388 -5.2598877 11.748268 -11.74823 11.748268l-224.94446 0c-6.4883423 0 -11.74823 -5.25988 -11.74823 -11.748268z" fill-rule="nonzero"></path><path stroke="#000000" stroke-width="2.0" stroke-linejoin="round" stroke-linecap="butt" d="m686.3964 33.63803l0 0c0 -6.48839 5.2598877 -11.748268 11.74823 -11.748268l224.94446 0c3.1157837 0 6.104004 1.2377605 8.307251 3.4409885c2.203247 2.203228 3.440979 5.1914444 3.440979 8.30728l0 46.991653c0 6.488388 -5.2598877 11.748268 -11.74823 11.748268l-224.94446 0c-6.4883423 0 -11.74823 -5.25988 -11.74823 -11.748268z" fill-rule="nonzero"></path><path fill="#000000" d="m771.3122 69.16636q-2.5 0 -3.546875 -1.34375q-1.03125 -1.34375 -1.03125 -4.671875l0 -18.09375l2.59375 -0.15625l0 17.21875q0 1.0625 0.015625 1.703125q0.03125 0.640625 0.125 1.265625q0.09375 0.609375 0.25 0.921875q0.15625 0.3125 0.453125 0.578125q0.296875 0.25 0.703125 0.34375q0.421875 0.078125 1.03125 0.078125q0.5 0 1.96875 -0.1875l0.140625 2.078125q-1.609375 0.265625 -2.703125 0.265625zm7.359375 -17.453125l0 17.140625l-2.625 0l0 -17.140625l2.625 0zm0 -6.234375l0 3.09375l-2.625 0l0 -3.09375l2.625 0zm12.703125 8.046875q-2.484375 0 -3.8125 1.71875q-1.3125 1.703125 -1.3125 5.015625q0 6.78125 5.109375 6.78125q1.265625 0 2.21875 -0.515625q0.96875 -0.53125 1.515625 -1.46875q0.5625 -0.953125 0.828125 -2.140625q0.28125 -1.1875 0.28125 -2.640625q0 -1.96875 -0.46875 -3.4375q-0.453125 -1.46875 -1.5625 -2.390625q-1.109375 -0.921875 -2.796875 -0.921875zm0.265625 -2.171875q2.28125 0 3.9375 1.15625q1.65625 1.15625 2.484375 3.140625q0.828125 1.984375 0.828125 4.546875q0 2.65625 -0.828125 4.671875q-0.8125 2.015625 -2.484375 3.1875q-1.65625 1.15625 -3.96875 1.15625q-1.703125 0 -3.109375 -0.734375q-1.40625 -0.734375 -2.34375 -2.0l-0.265625 2.375l-2.234375 0l0 -23.796875l2.609375 -0.15625l0 5.671875q0 2.09375 -0.0625 3.59375q0.90625 -1.296875 2.34375 -2.046875q1.453125 -0.765625 3.09375 -0.765625zm18.609375 0.203125q0.703125 0 1.28125 0.09375l-0.09375 2.40625q-0.71875 -0.125 -1.25 -0.125q-2.1875 0 -3.5625 1.53125q-1.359375 1.515625 -1.359375 3.765625l0 9.625l-2.609375 0q-0.015625 -15.78125 -0.015625 -17.140625l2.171875 0l0.25 3.078125q0.890625 -1.453125 2.265625 -2.34375q1.375 -0.890625 2.921875 -0.890625zm8.921875 15.546875q1.859375 0 3.265625 -1.015625q1.421875 -1.03125 1.828125 -2.765625l0 -2.890625q-0.078125 0 -0.953125 0.078125q-0.859375 0.078125 -1.125 0.09375q-3.390625 0.296875 -4.734375 1.109375q-1.328125 0.8125 -1.328125 2.609375q0 1.375 0.8125 2.078125q0.8125 0.703125 2.234375 0.703125zm5.671875 1.75q-0.234375 -1.0 -0.453125 -2.15625q-1.421875 1.421875 -2.671875 1.96875q-1.25 0.546875 -2.9375 0.546875q-2.40625 0 -3.875 -1.25q-1.453125 -1.265625 -1.453125 -3.625q0 -2.625 1.984375 -3.890625q2.0 -1.265625 5.75 -1.578125q0.515625 -0.046875 1.546875 -0.125q1.046875 -0.09375 1.5625 -0.140625l0 -1.515625q0 -1.8125 -0.84375 -2.6875q-0.84375 -0.875 -2.65625 -0.875q-2.53125 0 -5.109375 1.25q-0.078125 -0.1875 -0.40625 -1.078125q-0.328125 -0.90625 -0.34375 -0.9375q1.140625 -0.640625 2.703125 -1.015625q1.578125 -0.390625 3.203125 -0.390625q3.203125 0 4.609375 1.40625q1.421875 1.390625 1.421875 4.75l0 11.34375l-2.03125 0zm14.21875 -17.296875q0.703125 0 1.28125 0.09375l-0.09375 2.40625q-0.71875 -0.125 -1.25 -0.125q-2.1875 0 -3.5625 1.53125q-1.359375 1.515625 -1.359375 3.765625l0 9.625l-2.609375 0q-0.015625 -15.78125 -0.015625 -17.140625l2.171875 0l0.25 3.078125q0.890625 -1.453125 2.265625 -2.34375q1.375 -0.890625 2.921875 -0.890625zm1.78125 0.15625l2.765625 0l5.40625 14.265625l4.8125 -14.265625l2.765625 0q-6.9375 19.09375 -7.171875 19.6875q-1.078125 2.703125 -2.609375 3.953125q-1.53125 1.265625 -4.03125 1.265625q-0.75 0 -1.578125 -0.125l-0.15625 -2.21875q0.875 0.0625 1.3125 0.0625q1.765625 0 2.671875 -0.65625q0.921875 -0.640625 1.640625 -2.421875q0.640625 -1.640625 0.953125 -2.53125l-6.78125 -17.015625z" fill-rule="nonzero"></path><path fill="#f4cccc" d="m686.39795 214.73865l0 0c0 -6.488388 5.2598877 -11.748276 11.748291 -11.748276l224.9444 0c3.1158447 0 6.104065 1.2377625 8.307312 3.4409943c2.203186 2.2032318 3.440979 5.191437 3.440979 8.3072815l0 46.99164c0 6.4884033 -5.2598877 11.748291 -11.748291 11.748291l-224.9444 0c-6.4884033 0 -11.748291 -5.2598877 -11.748291 -11.748291z" fill-rule="nonzero"></path><path stroke="#000000" stroke-width="2.0" stroke-linejoin="round" stroke-linecap="butt" d="m686.39795 214.73865l0 0c0 -6.488388 5.2598877 -11.748276 11.748291 -11.748276l224.9444 0c3.1158447 0 6.104065 1.2377625 8.307312 3.4409943c2.203186 2.2032318 3.440979 5.191437 3.440979 8.3072815l0 46.99164c0 6.4884033 -5.2598877 11.748291 -11.748291 11.748291l-224.9444 0c-6.4884033 0 -11.748291 -5.2598877 -11.748291 -11.748291z" fill-rule="nonzero"></path><path fill="#000000" d="m745.60284 247.7201q1.328125 0 2.328125 -0.46875q1.0 -0.46875 1.5625 -1.296875q0.5625 -0.828125 0.828125 -1.84375q0.28125 -1.015625 0.28125 -2.21875l0 -1.265625q0 -1.25 -0.28125 -2.296875q-0.28125 -1.0625 -0.875 -1.890625q-0.578125 -0.84375 -1.5625 -1.3125q-0.96875 -0.46875 -2.265625 -0.46875q-1.078125 0 -1.96875 0.40625q-0.875 0.40625 -1.453125 1.078125q-0.5625 0.65625 -0.96875 1.546875q-0.390625 0.875 -0.5625 1.78125q-0.171875 0.90625 -0.171875 1.828125q0 0.90625 0.1875 1.796875q0.1875 0.890625 0.59375 1.734375q0.40625 0.84375 0.984375 1.484375q0.578125 0.625 1.4375 1.015625q0.875 0.390625 1.90625 0.390625zm-4.015625 10.078125l-0.234375 -2.359375l3.1875 0q1.328125 0 2.3125 -0.1875q0.984375 -0.1875 1.640625 -0.625q0.65625 -0.421875 1.0625 -0.953125q0.40625 -0.515625 0.609375 -1.359375q0.21875 -0.828125 0.28125 -1.65625q0.078125 -0.8125 0.078125 -2.0l0 -1.515625q-0.9375 1.34375 -2.171875 2.078125q-1.234375 0.71875 -3.140625 0.71875q-1.46875 0 -2.71875 -0.5q-1.234375 -0.515625 -2.09375 -1.359375q-0.84375 -0.84375 -1.453125 -1.953125q-0.59375 -1.109375 -0.875 -2.296875q-0.265625 -1.1875 -0.265625 -2.390625q0 -1.875 0.453125 -3.46875q0.46875 -1.59375 1.375 -2.84375q0.90625 -1.25 2.375 -1.953125q1.484375 -0.71875 3.390625 -0.71875q1.6875 0 2.9375 0.65625q1.265625 0.640625 2.265625 1.984375l0 -2.28125l2.546875 0l0 15.90625q0 1.09375 -0.0625 1.90625q-0.046875 0.828125 -0.265625 1.828125q-0.203125 1.0 -0.5625 1.71875q-0.359375 0.71875 -1.015625 1.4375q-0.640625 0.734375 -1.546875 1.171875q-0.890625 0.453125 -2.21875 0.734375q-1.328125 0.28125 -3.0 0.28125l-2.890625 0zm25.78125 -21.8125q-1.140625 -1.375 -3.140625 -1.375q-2.0 0 -3.265625 1.421875q-1.265625 1.40625 -1.484375 3.859375l9.046875 0q0 -2.546875 -1.15625 -3.90625zm-2.625 14.328125q-3.734375 0 -5.890625 -2.375q-2.140625 -2.375 -2.140625 -6.5q0 -3.984375 2.078125 -6.453125q2.078125 -2.484375 5.46875 -2.53125q3.1875 0 5.046875 2.1875q1.875 2.171875 1.875 5.8125q0 0.1875 -0.015625 0.6875q0 0.5 0 0.71875l-11.765625 0q0.046875 2.921875 1.5 4.5625q1.46875 1.625 3.9375 1.625q2.71875 0 5.453125 -1.4375l0.40625 2.109375q-2.609375 1.59375 -5.953125 1.59375zm10.0625 -0.359375l0 -17.140625l2.1875 0l0.328125 2.453125q1.015625 -1.265625 2.53125 -2.03125q1.53125 -0.78125 3.296875 -0.78125q2.96875 0 4.390625 1.671875q1.421875 1.65625 1.421875 5.109375l0 10.71875l-2.609375 0q0 -10.3125 -0.015625 -11.046875q-0.0625 -2.1875 -0.890625 -3.203125q-0.8125 -1.015625 -2.734375 -1.015625q-2.015625 0 -3.359375 0.96875q-1.34375 0.96875 -1.75 2.515625q-0.15625 1.046875 -0.15625 2.40625l0 9.375l-2.640625 0zm28.375 -13.96875q-1.140625 -1.375 -3.140625 -1.375q-2.0 0 -3.265625 1.421875q-1.265625 1.40625 -1.484375 3.859375l9.046875 0q0 -2.546875 -1.15625 -3.90625zm-2.625 14.328125q-3.734375 0 -5.890625 -2.375q-2.140625 -2.375 -2.140625 -6.5q0 -3.984375 2.078125 -6.453125q2.078125 -2.484375 5.46875 -2.53125q3.1875 0 5.046875 2.1875q1.875 2.171875 1.875 5.8125q0 0.1875 -0.015625 0.6875q0 0.5 0 0.71875l-11.765625 0q0.046875 2.921875 1.5 4.5625q1.46875 1.625 3.9375 1.625q2.71875 0 5.453125 -1.4375l0.40625 2.109375q-2.609375 1.59375 -5.953125 1.59375zm17.75 -17.65625q0.703125 0 1.28125 0.09375l-0.09375 2.40625q-0.71875 -0.125 -1.25 -0.125q-2.1875 0 -3.5625 1.53125q-1.359375 1.515625 -1.359375 3.765625l0 9.625l-2.609375 0q-0.015625 -15.78125 -0.015625 -17.140625l2.171875 0l0.25 3.078125q0.890625 -1.453125 2.265625 -2.34375q1.375 -0.890625 2.921875 -0.890625zm8.921875 15.546875q1.859375 0 3.265625 -1.015625q1.421875 -1.03125 1.828125 -2.765625l0 -2.890625q-0.078125 0 -0.953125 0.078125q-0.859375 0.078125 -1.125 0.09375q-3.390625 0.296875 -4.734375 1.109375q-1.328125 0.8125 -1.328125 2.609375q0 1.375 0.8125 2.078125q0.8125 0.703125 2.234375 0.703125zm5.671875 1.75q-0.234375 -1.0 -0.453125 -2.15625q-1.421875 1.421875 -2.671875 1.96875q-1.25 0.546875 -2.9375 0.546875q-2.40625 0 -3.875 -1.25q-1.453125 -1.265625 -1.453125 -3.625q0 -2.625 1.984375 -3.890625q2.0 -1.265625 5.75 -1.578125q0.515625 -0.046875 1.546875 -0.125q1.046875 -0.09375 1.5625 -0.140625l0 -1.515625q0 -1.8125 -0.84375 -2.6875q-0.84375 -0.875 -2.65625 -0.875q-2.53125 0 -5.109375 1.25q-0.078125 -0.1875 -0.40625 -1.078125q-0.328125 -0.90625 -0.34375 -0.9375q1.140625 -0.640625 2.703125 -1.015625q1.578125 -0.390625 3.203125 -0.390625q3.203125 0 4.609375 1.40625q1.421875 1.390625 1.421875 4.75l0 11.34375l-2.03125 0zm12.0 0.3125q-2.53125 0 -3.59375 -1.234375q-1.0625 -1.234375 -1.125 -3.984375l0 -10.296875l-2.546875 0l0.109375 -1.71875l2.421875 -0.21875l0.890625 -3.921875l1.71875 -0.0625l0 3.984375l4.765625 0l0 1.9375l-4.765625 0l0 9.828125q0 1.953125 0.59375 2.75q0.59375 0.796875 2.03125 0.796875q0.515625 0 2.234375 -0.25l0.109375 2.0625q-1.859375 0.328125 -2.84375 0.328125zm15.5 -14.28125q-1.140625 -1.375 -3.140625 -1.375q-2.0 0 -3.265625 1.421875q-1.265625 1.40625 -1.484375 3.859375l9.046875 0q0 -2.546875 -1.15625 -3.90625zm-2.625 14.328125q-3.734375 0 -5.890625 -2.375q-2.140625 -2.375 -2.140625 -6.5q0 -3.984375 2.078125 -6.453125q2.078125 -2.484375 5.46875 -2.53125q3.1875 0 5.046875 2.1875q1.875 2.171875 1.875 5.8125q0 0.1875 -0.015625 0.6875q0 0.5 0 0.71875l-11.765625 0q0.046875 2.921875 1.5 4.5625q1.46875 1.625 3.9375 1.625q2.71875 0 5.453125 -1.4375l0.40625 2.109375q-2.609375 1.59375 -5.953125 1.59375zm16.75 -2.25q2.578125 0 3.828125 -1.65625q1.265625 -1.65625 1.265625 -4.734375q0 -3.46875 -1.21875 -5.21875q-1.203125 -1.765625 -3.90625 -1.765625q-1.203125 0 -2.125 0.515625q-0.921875 0.515625 -1.484375 1.4375q-0.5625 0.921875 -0.859375 2.125q-0.28125 1.1875 -0.28125 2.609375q0 2.0 0.484375 3.46875q0.5 1.46875 1.59375 2.34375q1.09375 0.875 2.703125 0.875zm5.140625 -0.59375q-0.84375 1.296875 -2.25 2.0625q-1.40625 0.765625 -3.140625 0.765625q-3.390625 0 -5.3125 -2.40625q-1.921875 -2.421875 -1.921875 -6.578125q0 -3.96875 1.953125 -6.40625q1.953125 -2.453125 5.234375 -2.453125q1.703125 0 3.203125 0.75q1.515625 0.734375 2.265625 1.984375l-0.046875 -1.484375l0 -7.546875l2.578125 -0.15625l0 23.953125l-2.21875 0l-0.34375 -2.484375z" fill-rule="nonzero"></path><path fill="#cfe2f3" d="m686.3977 305.28894l0 0c0 -6.488373 5.2598877 -11.7482605 11.748291 -11.7482605l224.9444 0c3.1158447 0 6.104065 1.2377625 8.307251 3.440979c2.203247 2.203247 3.44104 5.1914673 3.44104 8.3072815l0 46.99167c0 6.488373 -5.2598877 11.7482605 -11.748291 11.7482605l-224.9444 0c-6.4884033 0 -11.748291 -5.2598877 -11.748291 -11.7482605z" fill-rule="nonzero"></path><path stroke="#000000" stroke-width="2.0" stroke-linejoin="round" stroke-linecap="butt" d="m686.3977 305.28894l0 0c0 -6.488373 5.2598877 -11.7482605 11.748291 -11.7482605l224.9444 0c3.1158447 0 6.104065 1.2377625 8.307251 3.440979c2.203247 2.203247 3.44104 5.1914673 3.44104 8.3072815l0 46.99167c0 6.488373 -5.2598877 11.7482605 -11.748291 11.7482605l-224.9444 0c-6.4884033 0 -11.748291 -5.2598877 -11.748291 -11.7482605z" fill-rule="nonzero"></path><path fill="#000000" d="m739.8213 323.36414l2.765625 0l5.40625 14.265625l4.8125 -14.265625l2.765625 0q-6.9375 19.09375 -7.171875 19.6875q-1.078125 2.703125 -2.609375 3.953125q-1.53125 1.265625 -4.03125 1.265625q-0.75 0 -1.578125 -0.125l-0.15625 -2.21875q0.875 0.0625 1.3125 0.0625q1.765625 0 2.671875 -0.65625q0.921875 -0.640625 1.640625 -2.421875q0.640625 -1.640625 0.953125 -2.53125l-6.78125 -17.015625zm20.0625 8.609375q0 3.046875 1.34375 4.890625q1.359375 1.828125 3.953125 1.828125q2.5625 0 3.859375 -1.828125q1.3125 -1.828125 1.3125 -4.921875q0 -3.140625 -1.296875 -4.9375q-1.28125 -1.8125 -3.921875 -1.8125q-2.5625 0 -3.90625 1.84375q-1.34375 1.84375 -1.34375 4.9375zm13.171875 -0.046875q0 3.984375 -2.125 6.46875q-2.125 2.46875 -5.875 2.46875q-3.609375 0 -5.75 -2.5q-2.125 -2.5 -2.125 -6.421875q0 -4.0 2.140625 -6.46875q2.140625 -2.46875 5.875 -2.46875q3.671875 0 5.765625 2.484375q2.09375 2.46875 2.09375 6.4375zm3.09375 2.859375l0 -11.421875l2.625 0l0 11.453125q0 1.125 0.3125 1.90625q0.328125 0.78125 0.921875 1.21875q0.609375 0.421875 1.359375 0.609375q0.765625 0.1875 1.75 0.1875q2.03125 0 3.15625 -0.890625q1.140625 -0.890625 1.140625 -3.03125l0 -11.453125l2.625 0l0 11.421875q0 1.3125 -0.375 2.359375q-0.375 1.046875 -1.015625 1.75q-0.625 0.6875 -1.515625 1.140625q-0.890625 0.453125 -1.890625 0.65625q-0.984375 0.203125 -2.125 0.203125q-1.125 0 -2.125 -0.203125q-1.0 -0.203125 -1.90625 -0.65625q-0.890625 -0.46875 -1.546875 -1.15625q-0.640625 -0.703125 -1.015625 -1.75q-0.375 -1.046875 -0.375 -2.34375zm25.46875 -11.578125q0.703125 0 1.28125 0.09375l-0.09375 2.40625q-0.71875 -0.125 -1.25 -0.125q-2.1875 0 -3.5625 1.53125q-1.359375 1.515625 -1.359375 3.765625l0 9.625l-2.609375 0q-0.015625 -15.78125 -0.015625 -17.140625l2.171875 0l0.25 3.078125q0.890625 -1.453125 2.265625 -2.34375q1.375 -0.890625 2.921875 -0.890625zm19.203125 17.65625q-3.78125 0 -5.921875 -2.453125q-2.125 -2.453125 -2.125 -6.421875q0.015625 -4.0 2.171875 -6.484375q2.171875 -2.5 5.9375 -2.5q1.328125 0 2.5625 0.328125q1.25 0.328125 1.96875 0.859375l-0.71875 2.03125q-1.828125 -0.984375 -3.859375 -0.984375q-2.484375 0 -3.9375 1.8125q-1.4375 1.8125 -1.4375 4.953125q0 3.0625 1.421875 4.859375q1.4375 1.78125 3.96875 1.78125q2.015625 0 4.125 -1.09375l0.328125 2.078125q-1.703125 1.234375 -4.484375 1.234375zm9.78125 -8.890625q0 3.046875 1.34375 4.890625q1.359375 1.828125 3.953125 1.828125q2.5625 0 3.859375 -1.828125q1.3125 -1.828125 1.3125 -4.921875q0 -3.140625 -1.296875 -4.9375q-1.28125 -1.8125 -3.921875 -1.8125q-2.5625 0 -3.90625 1.84375q-1.34375 1.84375 -1.34375 4.9375zm13.171875 -0.046875q0 3.984375 -2.125 6.46875q-2.125 2.46875 -5.875 2.46875q-3.609375 0 -5.75 -2.5q-2.125 -2.5 -2.125 -6.421875q0 -4.0 2.140625 -6.46875q2.140625 -2.46875 5.875 -2.46875q3.671875 0 5.765625 2.484375q2.09375 2.46875 2.09375 6.4375zm10.375 6.6875q2.578125 0 3.828125 -1.65625q1.265625 -1.65625 1.265625 -4.734375q0 -3.46875 -1.21875 -5.21875q-1.203125 -1.765625 -3.90625 -1.765625q-1.203125 0 -2.125 0.515625q-0.921875 0.515625 -1.484375 1.4375q-0.5625 0.921875 -0.859375 2.125q-0.28125 1.1875 -0.28125 2.609375q0 2.0 0.484375 3.46875q0.5 1.46875 1.59375 2.34375q1.09375 0.875 2.703125 0.875zm5.140625 -0.59375q-0.84375 1.296875 -2.25 2.0625q-1.40625 0.765625 -3.140625 0.765625q-3.390625 0 -5.3125 -2.40625q-1.921875 -2.421875 -1.921875 -6.578125q0 -3.96875 1.953125 -6.40625q1.953125 -2.453125 5.234375 -2.453125q1.703125 0 3.203125 0.75q1.515625 0.734375 2.265625 1.984375l-0.046875 -1.484375l0 -7.546875l2.578125 -0.15625l0 23.953125l-2.21875 0l-0.34375 -2.484375zm16.96875 -11.484375q-1.140625 -1.375 -3.140625 -1.375q-2.0 0 -3.265625 1.421875q-1.265625 1.40625 -1.484375 3.859375l9.046875 0q0 -2.546875 -1.15625 -3.90625zm-2.625 14.328125q-3.734375 0 -5.890625 -2.375q-2.140625 -2.375 -2.140625 -6.5q0 -3.984375 2.078125 -6.453125q2.078125 -2.484375 5.46875 -2.53125q3.1875 0 5.046875 2.1875q1.875 2.171875 1.875 5.8125q0 0.1875 -0.015625 0.6875q0 0.5 0 0.71875l-11.765625 0q0.046875 2.921875 1.5 4.5625q1.46875 1.625 3.9375 1.625q2.71875 0 5.453125 -1.4375l0.40625 2.109375q-2.609375 1.59375 -5.953125 1.59375z" fill-rule="nonzero"></path></g></svg>

