<?xml version="1.0" standalone="yes"?>

<svg version="1.1" viewBox="0.0 0.0 1162.3464566929133 421.0603674540682" fill="none" stroke="none" stroke-linecap="square" stroke-miterlimit="10" xmlns="http://www.w3.org/2000/svg" xmlns:xlink="http://www.w3.org/1999/xlink"><clipPath id="p.0"><path d="m0 0l1162.3464 0l0 421.06036l-1162.3464 0l0 -421.06036z" clip-rule="nonzero"></path></clipPath><g clip-path="url(#p.0)"><path fill="#000000" fill-opacity="0.0" d="m0 0l1162.3464 0l0 421.06036l-1162.3464 0z" fill-rule="nonzero"></path><path fill="#d9ead3" d="m316.99426 76.54855l28.472443 0l0 181.98425l-28.472443 0z" fill-rule="nonzero"></path><path stroke="#000000" stroke-width="2.0" stroke-linejoin="round" stroke-linecap="butt" d="m316.99426 76.54855l28.472443 0l0 181.98425l-28.472443 0z" fill-rule="nonzero"></path><path fill="#d9d9d9" d="m132.22949 114.49606l143.55905 0l0 -10.157478l20.314972 20.314957l-20.314972 20.314964l0 -10.157486l-143.55905 0z" fill-rule="nonzero"></path><path stroke="#000000" stroke-width="1.0" stroke-linejoin="round" stroke-linecap="butt" stroke-dasharray="1.0,3.0" d="m132.22949 114.49606l143.55905 0l0 -10.157478l20.314972 20.314957l-20.314972 20.314964l0 -10.157486l-143.55905 0z" fill-rule="nonzero"></path><path fill="#d9ead3" d="m616.8542 114.49606l165.38586 0l0 -10.157478l20.314941 20.314957l-20.314941 20.314964l0 -10.157486l-165.38586 0z" fill-rule="nonzero"></path><path stroke="#000000" stroke-width="1.0" stroke-linejoin="round" stroke-linecap="butt" d="m616.8542 114.49606l165.38586 0l0 -10.157478l20.314941 20.314957l-20.314941 20.314964l0 -10.157486l-165.38586 0z" fill-rule="nonzero"></path><path fill="#d9ead3" d="m569.3115 76.54855l28.472412 0l0 98.708664l-28.472412 0z" fill-rule="nonzero"></path><path stroke="#000000" stroke-width="2.0" stroke-linejoin="round" stroke-linecap="butt" d="m569.3115 76.54855l28.472412 0l0 98.708664l-28.472412 0z" fill-rule="nonzero"></path><path fill="#f4cccc" d="m869.1704 114.49606l165.38586 0l0 -10.157478l20.314941 20.314957l-20.314941 20.314964l0 -10.157486l-165.38586 0z" fill-rule="nonzero"></path><path stroke="#000000" stroke-width="1.0" stroke-linejoin="round" stroke-linecap="butt" d="m869.1704 114.49606l165.38586 0l0 -10.157478l20.314941 20.314957l-20.314941 20.314964l0 -10.157486l-165.38586 0z" fill-rule="nonzero"></path><path fill="#f4cccc" d="m821.62616 76.54855l28.472412 0l0 181.98425l-28.472412 0z" fill-rule="nonzero"></path><path stroke="#000000" stroke-width="2.0" stroke-linejoin="round" stroke-linecap="butt" d="m821.62616 76.54855l28.472412 0l0 181.98425l-28.472412 0z" fill-rule="nonzero"></path><path fill="#cfe2f3" d="m1073.9421 76.54855l28.472412 0l0 181.98425l-28.472412 0z" fill-rule="nonzero"></path><path stroke="#000000" stroke-width="2.0" stroke-linejoin="round" stroke-linecap="butt" d="m1073.9421 76.54855l28.472412 0l0 181.98425l-28.472412 0z" fill-rule="nonzero"></path><path fill="#f4cccc" d="m1054.8726 197.39896l-165.38586 0l0 -10.157486l-20.314941 20.314957l20.314941 20.314957l0 -10.157471l165.38586 0z" fill-rule="nonzero"></path><path stroke="#000000" stroke-width="1.0" stroke-linejoin="round" stroke-linecap="butt" d="m1054.8726 197.39896l-165.38586 0l0 -10.157486l-20.314941 20.314957l20.314941 20.314957l0 -10.157471l165.38586 0z" fill-rule="nonzero"></path><path fill="#d9d9d9" d="m296.10342 200.25197l-143.55907 0l0 -10.157486l-20.314957 20.314972l20.314957 20.314957l0 -10.157486l143.55907 0z" fill-rule="nonzero"></path><path stroke="#000000" stroke-width="1.0" stroke-linejoin="round" stroke-linecap="butt" stroke-dasharray="1.0,3.0" d="m296.10342 200.25197l-143.55907 0l0 -10.157486l-20.314957 20.314972l20.314957 20.314957l0 -10.157486l143.55907 0z" fill-rule="nonzero"></path><path fill="#d9ead3" d="m802.555 197.39896l-417.70078 0l0 -10.157486l-20.314972 20.314957l20.314972 20.314957l0 -10.157471l417.70078 0z" fill-rule="nonzero"></path><path stroke="#000000" stroke-width="1.0" stroke-linejoin="round" stroke-linecap="butt" d="m802.555 197.39896l-417.70078 0l0 -10.157486l-20.314972 20.314957l20.314972 20.314957l0 -10.157471l417.70078 0z" fill-rule="nonzero"></path><path fill="#d9d9d9" d="m10.253116 167.54068l0 0c0 -24.735397 22.138988 -44.7874 49.44882 -44.7874c27.30983 0 49.448822 20.052002 49.448822 44.7874c0 24.735397 -22.138992 44.7874 -49.448822 44.7874c-27.30983 0 -49.44882 -20.052002 -49.44882 -44.7874z" fill-rule="nonzero"></path><path fill="#adadad" d="m38.70908 154.14594c0 -2.5766144 2.3061447 -4.6653595 5.150917 -4.6653595c2.8447762 0 5.150921 2.088745 5.150921 4.6653595c0 2.5765991 -2.3061447 4.665344 -5.150921 4.665344c-2.8447723 0 -5.150917 -2.088745 -5.150917 -4.665344m31.683872 0c0 -2.5766144 2.3061447 -4.6653595 5.150917 -4.6653595c2.8447723 0 5.1509247 2.088745 5.1509247 4.6653595c0 2.5765991 -2.3061523 4.665344 -5.1509247 4.665344c-2.8447723 0 -5.150917 -2.088745 -5.150917 -4.665344" fill-rule="nonzero"></path><path fill="#000000" fill-opacity="0.0" d="m32.900352 187.07277q26.801582 16.671661 53.540573 0" fill-rule="nonzero"></path><path fill="#000000" fill-opacity="0.0" d="m10.253116 167.54068l0 0c0 -24.735397 22.138988 -44.7874 49.44882 -44.7874c27.30983 0 49.448822 20.052002 49.448822 44.7874c0 24.735397 -22.138992 44.7874 -49.448822 44.7874c-27.30983 0 -49.44882 -20.052002 -49.44882 -44.7874z" fill-rule="nonzero"></path><path stroke="#000000" stroke-width="1.0" stroke-linejoin="round" stroke-linecap="butt" d="m38.70908 154.14594c0 -2.5766144 2.3061447 -4.6653595 5.150917 -4.6653595c2.8447762 0 5.150921 2.088745 5.150921 4.6653595c0 2.5765991 -2.3061447 4.665344 -5.150921 4.665344c-2.8447723 0 -5.150917 -2.088745 -5.150917 -4.665344m31.683872 0c0 -2.5766144 2.3061447 -4.6653595 5.150917 -4.6653595c2.8447723 0 5.1509247 2.088745 5.1509247 4.6653595c0 2.5765991 -2.3061523 4.665344 -5.1509247 4.665344c-2.8447723 0 -5.150917 -2.088745 -5.150917 -4.665344" fill-rule="nonzero"></path><path stroke="#000000" stroke-width="1.0" stroke-linejoin="round" stroke-linecap="butt" d="m32.900352 187.07277q26.801582 16.671661 53.540573 0" fill-rule="nonzero"></path><path stroke="#000000" stroke-width="1.0" stroke-linejoin="round" stroke-linecap="butt" d="m10.253116 167.54068l0 0c0 -24.735397 22.138988 -44.7874 49.44882 -44.7874c27.30983 0 49.448822 20.052002 49.448822 44.7874c0 24.735397 -22.138992 44.7874 -49.448822 44.7874c-27.30983 0 -49.44882 -20.052002 -49.44882 -44.7874z" fill-rule="nonzero"></path><path fill="#000000" fill-opacity="0.0" d="m10.255905 219.87138l98.89764 0l0 50.61418l-98.89764 0z" fill-rule="nonzero"></path><path fill="#000000" d="m29.735973 259.95078q-3.78125 0 -5.921875 -2.453125q-2.125 -2.4531403 -2.125 -6.4218903q0.015625 -4.0 2.171875 -6.484375q2.171875 -2.5 5.9375 -2.5q1.328125 0 2.5625 0.328125q1.25 0.328125 1.96875 0.859375l-0.71875 2.03125q-1.828125 -0.984375 -3.859375 -0.984375q-2.484375 0 -3.9375 1.8125q-1.4375 1.8125 -1.4375 4.953125q0 3.0625 1.421875 4.859375q1.4375 1.7812653 3.96875 1.7812653q2.015625 0 4.125 -1.09375l0.328125 2.078125q-1.703125 1.234375 -4.484375 1.234375zm12.484375 -0.046875q-2.5 0 -3.546875 -1.34375q-1.03125 -1.34375 -1.03125 -4.6718903l0 -18.09375l2.59375 -0.15625l0 17.21875q0 1.0625 0.015625 1.703125q0.03125 0.640625 0.125 1.265625q0.09375 0.60939026 0.25 0.92189026q0.15625 0.3125 0.453125 0.578125q0.296875 0.25 0.703125 0.34375q0.421875 0.078125 1.03125 0.078125q0.5 0 1.96875 -0.1875l0.140625 2.078125q-1.609375 0.265625 -2.703125 0.265625zm7.359375 -17.45314l0 17.14064l-2.625 0l0 -17.14064l2.625 0zm0 -6.234375l0 3.09375l-2.625 0l0 -3.09375l2.625 0zm14.781254 9.40625q-1.1406288 -1.375 -3.1406288 -1.375q-2.0 0 -3.265625 1.421875q-1.265625 1.40625 -1.484375 3.859375l9.046879 0q0 -2.546875 -1.15625 -3.90625zm-2.6250038 14.32814q-3.734375 0 -5.890625 -2.375q-2.140625 -2.3750153 -2.140625 -6.5000153q0 -3.984375 2.078125 -6.453125q2.078125 -2.484375 5.46875 -2.53125q3.1875038 0 5.046879 2.1875q1.875 2.171875 1.875 5.8125q0 0.1875 -0.015625 0.6875q0 0.5 0 0.71875l-11.765629 0q0.046875 2.921875 1.5 4.5625153q1.46875 1.625 3.9375 1.625q2.7187538 0 5.453129 -1.4375l0.40625 2.109375q-2.609375 1.59375 -5.953129 1.59375zm10.062504 -0.359375l0 -17.14064l2.1875 0l0.328125 2.453125q1.015625 -1.265625 2.53125 -2.03125q1.53125 -0.78125 3.296875 -0.78125q2.96875 0 4.390625 1.671875q1.421875 1.65625 1.421875 5.109375l0 10.718765l-2.609375 0q0 -10.312515 -0.015625 -11.04689q-0.0625 -2.1875 -0.890625 -3.203125q-0.8125 -1.015625 -2.734375 -1.015625q-2.015625 0 -3.359375 0.96875q-1.34375 0.96875 -1.75 2.515625q-0.15625 1.046875 -0.15625 2.40625l0 9.375015l-2.640625 0zm23.96875 0.3125q-2.53125 0 -3.59375 -1.234375q-1.0625 -1.234375 -1.125 -3.9843903l0 -10.296875l-2.546875 0l0.109375 -1.71875l2.421875 -0.21875l0.890625 -3.921875l1.71875 -0.0625l0 3.984375l4.765625 0l0 1.9375l-4.765625 0l0 9.828125q0 1.9531403 0.59375 2.7500153q0.59375 0.796875 2.03125 0.796875q0.515625 0 2.234375 -0.25l0.109375 2.0625q-1.859375 0.328125 -2.84375 0.328125z" fill-rule="nonzero"></path><path fill="#000000" fill-opacity="0.0" d="m180.20587 9.535433l302.04724 0l0 55.401573l-302.04724 0z" fill-rule="nonzero"></path><path fill="#000000" d="m270.73007 46.695435l0 -9.390625q0 -2.328125 -0.75 -3.390625q-0.734375 -1.0625 -2.59375 -1.0625q-1.78125 0 -3.015625 0.890625q-1.21875 0.890625 -1.578125 2.296875q-0.125 1.0625 -0.125 2.375l0 8.28125l-2.375 0l0 -21.562502l2.375 -0.140625l0 6.3125q0 0.8125019 -0.0625 2.000002q2.0 -2.468752 5.296875 -2.468752q5.203125 0 5.203125 6.109377l0 9.75l-2.375 0zm10.424255 0.28125q-2.296875 0 -3.265625 -1.109375q-0.953125 -1.125 -1.015625 -3.625l0 -9.328125l-2.3125 0l0.109375 -1.5468769l2.1875 -0.203125l0.8125 -3.5625l1.5625 -0.046875l0 3.609375l4.3125 0l0 1.7500019l-4.3125 0l0 8.90625q0 1.78125 0.53125 2.5q0.53125 0.71875 1.84375 0.71875q0.46875 0 2.015625 -0.234375l0.109375 1.875q-1.6875 0.296875 -2.578125 0.296875zm10.16748 0q-2.296875 0 -3.265625 -1.109375q-0.953125 -1.125 -1.015625 -3.625l0 -9.328125l-2.3125 0l0.109375 -1.5468769l2.1875 -0.203125l0.8125 -3.5625l1.5625 -0.046875l0 3.609375l4.3125 0l0 1.7500019l-4.3125 0l0 8.90625q0 1.78125 0.53125 2.5q0.53125 0.71875 1.84375 0.71875q0.46875 0 2.015625 -0.234375l0.109375 1.875q-1.6875 0.296875 -2.578125 0.296875zm5.214325 6.453125l0 -22.265627l2.078125 0l0.21875 2.109377q2.046875 -2.437502 4.90625 -2.437502q2.125 0 3.59375 1.0625q1.46875 1.0625019 2.171875 2.875002q0.703125 1.8125 0.703125 4.234375q0 2.328125 -0.765625 4.140625q-0.765625 1.796875 -2.25 2.84375q-1.46875 1.03125 -3.453125 1.03125q-1.5 0 -2.828125 -0.671875q-1.3125 -0.671875 -2.09375 -1.78125q0.078125 1.53125 0.078125 2.96875l0 5.734375l-2.359375 0.15625zm6.875 -8.40625q1.078125 0 1.921875 -0.484375q0.859375 -0.484375 1.375 -1.328125q0.53125 -0.859375 0.796875 -1.9375q0.265625 -1.09375 0.265625 -2.359375q0 -2.65625 -1.125 -4.359375q-1.109375 -1.703125 -3.265625 -1.703125q-4.5 0 -4.5 5.8125q0 3.15625 1.046875 4.765625q1.0625 1.59375 3.484375 1.59375zm11.9956665 1.84375q-0.890625 0 -1.390625 -0.5625q-0.5 -0.5625 -0.5 -1.3125q0 -0.765625 0.484375 -1.3125q0.5 -0.546875 1.390625 -0.546875q0.90625 0 1.390625 0.546875q0.5 0.546875 0.5 1.3125q0 0.765625 -0.5 1.328125q-0.484375 0.546875 -1.375 0.546875zm5.4336243 -3.625q3.28125 1.609375 7.015625 1.609375q4.59375 0 4.59375 -4.1875q0 -1.359375 -0.734375 -2.203125q-0.71875 -0.84375 -2.640625 -1.328125l-4.171875 -1.046875q-4.765625 -1.203125 -4.765625 -5.093752q0 -2.984375 2.046875 -4.4375q2.0625 -1.453125 5.6875 -1.453125q1.890625 0 3.546875 0.421875q1.65625 0.40625 2.78125 1.09375l-0.703125 2.0q-0.953125 -0.53125 -2.515625 -0.9375q-1.5625 -0.40625 -3.171875 -0.40625q-5.125 0 -5.125 3.546875q0 1.2031269 0.78125 1.9375019q0.796875 0.71875 2.359375 1.109375l3.984375 0.96875q2.546875 0.609375 3.859375 1.953125q1.328125 1.328125 1.328125 3.78125q0 3.203125 -1.96875 4.828125q-1.953125 1.625 -5.328125 1.625q-2.515625 0 -4.484375 -0.515625q-1.953125 -0.515625 -3.109375 -1.234375l0.734375 -2.03125zm26.477356 -9.203125q-1.03125 -1.25 -2.84375 -1.25q-1.8125 0 -2.96875 1.28125q-1.140625 1.28125 -1.328125 3.5l8.1875 0q0 -2.296875 -1.046875 -3.53125zm-2.375 12.984375q-3.375 0 -5.328125 -2.15625q-1.953125 -2.15625 -1.953125 -5.890625q0 -3.609375 1.875 -5.84375q1.890625 -2.250002 4.96875 -2.296877q2.890625 0 4.578125 1.9843769q1.6875 1.96875 1.6875 5.265625q0 0.171875 0 0.625q0 0.453125 0 0.65625l-10.671875 0q0.046875 2.640625 1.359375 4.125q1.328125 1.46875 3.578125 1.46875q2.453125 0 4.9375 -1.296875l0.359375 1.90625q-2.359375 1.453125 -5.390625 1.453125zm16.257599 -16.000002q0.640625 0 1.171875 0.078125l-0.09375 2.187502q-0.640625 -0.109375 -1.125 -0.109375q-1.984375 0 -3.234375 1.375q-1.234375 1.375 -1.234375 3.421875l0 8.71875l-2.359375 0q-0.015625 -14.296875 -0.015625 -15.531252l1.96875 0l0.234375 2.781252q0.796875 -1.3125 2.046875 -2.109377q1.25 -0.8125 2.640625 -0.8125zm7.698639 15.671877l-6.015625 -15.531252l2.53125 0l3.4375 9.234377q0 0 1.40625 3.9375q0.484375 -1.515625 1.328125 -3.90625q1.078125 -3.03125 3.34375 -9.265627l2.53125 0l-5.984375 15.531252l-2.578125 0zm19.733063 -12.65625q-1.03125 -1.25 -2.84375 -1.25q-1.8125 0 -2.96875 1.28125q-1.140625 1.28125 -1.328125 3.5l8.1875 0q0 -2.296875 -1.046875 -3.53125zm-2.375 12.984375q-3.375 0 -5.328125 -2.15625q-1.953125 -2.15625 -1.953125 -5.890625q0 -3.609375 1.875 -5.84375q1.890625 -2.250002 4.96875 -2.296877q2.890625 0 4.578125 1.9843769q1.6875 1.96875 1.6875 5.265625q0 0.171875 0 0.625q0 0.453125 0 0.65625l-10.671875 0q0.046875 2.640625 1.359375 4.125q1.328125 1.46875 3.578125 1.46875q2.453125 0 4.9375 -1.296875l0.359375 1.90625q-2.359375 1.453125 -5.390625 1.453125zm16.257599 -16.000002q0.640625 0 1.171875 0.078125l-0.09375 2.187502q-0.640625 -0.109375 -1.125 -0.109375q-1.984375 0 -3.234375 1.375q-1.234375 1.375 -1.234375 3.421875l0 8.71875l-2.359375 0q-0.015625 -14.296875 -0.015625 -15.531252l1.96875 0l0.234375 2.781252q0.796875 -1.3125 2.046875 -2.109377q1.25 -0.8125 2.640625 -0.8125z" fill-rule="nonzero"></path><path fill="#000000" fill-opacity="0.0" d="m529.4843 9.162729l108.12598 0l0 55.40158l-108.12598 0z" fill-rule="nonzero"></path><path fill="#000000" d="m577.1577 46.32273l0 -8.078125q0 -1.140625 -0.046875 -1.90625q-0.046875 -0.765625 -0.234375 -1.546875q-0.171875 -0.796875 -0.5 -1.25q-0.3125 -0.46875 -0.875 -0.75q-0.5625 -0.296875 -1.359375 -0.296875q-1.5625 0 -2.65625 0.84375q-1.09375 0.828125 -1.5625 2.328125q-0.125 1.03125 -0.125 2.1875l0 8.46875l-2.375 0l0 -8.34375q0 -1.046875 -0.078125 -1.8125q-0.0625 -0.78125 -0.265625 -1.5q-0.1875 -0.734375 -0.53125 -1.1875q-0.328125 -0.453125 -0.875 -0.71875q-0.546875 -0.265625 -1.3125 -0.265625q-1.703125 0 -2.859375 0.859375q-1.15625 0.859375 -1.546875 2.296875q-0.125 1.078125 -0.125 2.359375l0 8.3125l-2.375 0q-0.015625 -14.578127 -0.015625 -15.531252l1.96875 0l0.3125 2.218752q0.703125 -1.0781269 2.0 -1.8125019q1.3125 -0.734375 2.96875 -0.734375q0.859375 0 1.578125 0.1875q0.734375 0.171875 1.21875 0.4375q0.5 0.265625 0.875 0.640625q0.390625 0.3750019 0.59375 0.7343769q0.21875 0.359375 0.359375 0.765625q1.703125 -2.765627 5.203125 -2.765627q2.578125 0 3.78125 1.484375q1.21875 1.4687519 1.21875 4.375002l0 10.0l-2.359375 0zm5.1244507 -5.1875l0 -10.343752l2.375 0l0 10.375002q0 1.015625 0.296875 1.734375q0.296875 0.703125 0.828125 1.09375q0.546875 0.390625 1.234375 0.5625q0.6875 0.171875 1.578125 0.171875q1.84375 0 2.875 -0.8125q1.03125 -0.8125 1.03125 -2.75l0 -10.375002l2.375 0l0 10.343752q0 1.1875 -0.34375 2.140625q-0.34375 0.953125 -0.921875 1.59375q-0.5625 0.625 -1.375 1.03125q-0.796875 0.40625 -1.703125 0.59375q-0.890625 0.1875 -1.9375 0.1875q-1.015625 0 -1.921875 -0.1875q-0.90625 -0.1875 -1.71875 -0.59375q-0.8125 -0.421875 -1.40625 -1.046875q-0.578125 -0.640625 -0.921875 -1.578125q-0.34375 -0.953125 -0.34375 -2.140625zm20.393005 -2.71875l-5.46875 -7.625002l2.703125 0l4.140625 5.921877l4.171875 -5.921877l2.703125 0l-5.5 7.656252l5.640625 7.875l-2.625 0l-4.375 -6.25l-4.375 6.25l-2.703125 0l5.6875 -7.90625z" fill-rule="nonzero"></path><path fill="#000000" fill-opacity="0.0" d="m738.31915 6.664042l195.08661 0l0 55.401573l-195.08661 0z" fill-rule="nonzero"></path><path fill="#000000" d="m780.0002 44.15217q-3.421875 0 -5.359375 -2.21875q-1.9375 -2.234375 -1.9375 -5.828125q0.015625 -3.625 1.96875 -5.875002q1.96875 -2.265625 5.390625 -2.265625q1.203125 0 2.328125 0.296875q1.125 0.296875 1.78125 0.78125l-0.65625 1.84375q-1.65625 -0.890625 -3.5 -0.890625q-2.25 0 -3.5625 1.640625q-1.3125 1.6406269 -1.3125 4.484377q0 2.78125 1.296875 4.40625q1.296875 1.609375 3.59375 1.609375q1.828125 0 3.734375 -0.984375l0.296875 1.875q-1.546875 1.125 -4.0625 1.125zm9.018372 -8.0625q0 2.765625 1.21875 4.4375q1.234375 1.65625 3.578125 1.65625q2.328125 0 3.5 -1.65625q1.1875 -1.65625 1.1875 -4.46875q0 -2.84375 -1.171875 -4.468752q-1.15625 -1.640625 -3.546875 -1.640625q-2.328125 0 -3.546875 1.671875q-1.21875 1.6718769 -1.21875 4.468752zm11.9375 -0.046875q0 3.625 -1.921875 5.875q-1.921875 2.234375 -5.328125 2.234375q-3.265625 0 -5.203125 -2.265625q-1.9375 -2.265625 -1.9375 -5.828125q0 -3.625 1.9375 -5.859377q1.953125 -2.234375 5.328125 -2.234375q3.328125 0 5.21875 2.25q1.90625 2.234377 1.90625 5.828127zm3.5425415 7.78125l0 -15.531252l1.96875 0l0.3125 2.21875q0.90625 -1.140625 2.28125 -1.84375q1.390625 -0.703125 3.0 -0.703125q2.6875 0 3.96875 1.515625q1.296875 1.5 1.296875 4.625002l0 9.71875l-2.375 0q0 -9.34375 -0.015625 -10.015625q-0.046875 -1.9843769 -0.796875 -2.890627q-0.734375 -0.921875 -2.484375 -0.921875q-1.828125 0 -3.046875 0.875q-1.21875 0.875 -1.578125 2.281252q-0.140625 0.9375 -0.140625 2.171875l0 8.5l-2.390625 0zm21.908447 0.28125q-2.296875 0 -3.265625 -1.109375q-0.953125 -1.125 -1.015625 -3.625l0 -9.328127l-2.3125 0l0.109375 -1.546875l2.1875 -0.203125l0.8125 -3.5625l1.5625 -0.046875l0 3.609375l4.3125 0l0 1.75l-4.3125 0l0 8.906252q0 1.78125 0.53125 2.5q0.53125 0.71875 1.84375 0.71875q0.46875 0 2.015625 -0.234375l0.109375 1.875q-1.6875 0.296875 -2.578125 0.296875zm12.16748 -15.953127q0.640625 0 1.171875 0.078125l-0.09375 2.1875q-0.640625 -0.109375 -1.125 -0.109375q-1.984375 0 -3.234375 1.375q-1.234375 1.3750019 -1.234375 3.421877l0 8.71875l-2.359375 0q-0.015625 -14.296877 -0.015625 -15.531252l1.96875 0l0.234375 2.78125q0.796875 -1.3125 2.046875 -2.109375q1.25 -0.8125 2.640625 -0.8125zm5.4486084 7.937502q0 2.765625 1.21875 4.4375q1.234375 1.65625 3.578125 1.65625q2.328125 0 3.5 -1.65625q1.1875 -1.65625 1.1875 -4.46875q0 -2.84375 -1.171875 -4.468752q-1.15625 -1.640625 -3.546875 -1.640625q-2.328125 0 -3.546875 1.671875q-1.21875 1.6718769 -1.21875 4.468752zm11.9375 -0.046875q0 3.625 -1.921875 5.875q-1.921875 2.234375 -5.328125 2.234375q-3.265625 0 -5.203125 -2.265625q-1.9375 -2.265625 -1.9375 -5.828125q0 -3.625 1.9375 -5.859377q1.953125 -2.234375 5.328125 -2.234375q3.328125 0 5.21875 2.25q1.90625 2.234377 1.90625 5.828127zm7.7144165 8.0625q-2.265625 0 -3.21875 -1.21875q-0.9375 -1.21875 -0.9375 -4.234375l0 -16.390627l2.359375 -0.140625l0 15.593752q0 0.96875 0.015625 1.546875q0.03125 0.578125 0.109375 1.140625q0.078125 0.5625 0.21875 0.84375q0.15625 0.28125 0.421875 0.515625q0.265625 0.234375 0.640625 0.3125q0.375 0.078125 0.921875 0.078125q0.453125 0 1.796875 -0.171875l0.125 1.890625q-1.46875 0.234375 -2.453125 0.234375zm8.148254 0q-2.265625 0 -3.21875 -1.21875q-0.9375 -1.21875 -0.9375 -4.234375l0 -16.390627l2.359375 -0.140625l0 15.593752q0 0.96875 0.015625 1.546875q0.03125 0.578125 0.109375 1.140625q0.078125 0.5625 0.21875 0.84375q0.15625 0.28125 0.421875 0.515625q0.265625 0.234375 0.640625 0.3125q0.375 0.078125 0.921875 0.078125q0.453125 0 1.796875 -0.171875l0.125 1.890625q-1.46875 0.234375 -2.453125 0.234375zm12.91394 -12.937502q-1.03125 -1.25 -2.84375 -1.25q-1.8125 0 -2.96875 1.28125q-1.140625 1.2812519 -1.328125 3.500002l8.1875 0q0 -2.296875 -1.046875 -3.531252zm-2.375 12.984377q-3.375 0 -5.328125 -2.15625q-1.953125 -2.15625 -1.953125 -5.890625q0 -3.609375 1.875 -5.843752q1.890625 -2.25 4.96875 -2.296875q2.890625 0 4.578125 1.984375q1.6875 1.96875 1.6875 5.265627q0 0.171875 0 0.625q0 0.453125 0 0.65625l-10.671875 0q0.046875 2.640625 1.359375 4.125q1.328125 1.46875 3.578125 1.46875q2.453125 0 4.9375 -1.296875l0.359375 1.90625q-2.359375 1.453125 -5.390625 1.453125zm16.257568 -16.000002q0.640625 0 1.171875 0.078125l-0.09375 2.1875q-0.640625 -0.109375 -1.125 -0.109375q-1.984375 0 -3.234375 1.375q-1.234375 1.3750019 -1.234375 3.421877l0 8.71875l-2.359375 0q-0.015625 -14.296877 -0.015625 -15.531252l1.96875 0l0.234375 2.78125q0.796875 -1.3125 2.046875 -2.109375q1.25 -0.8125 2.640625 -0.8125z" fill-rule="nonzero"></path><path fill="#000000" fill-opacity="0.0" d="m1023.32697 9.535433l129.70074 0l0 55.401573l-129.70074 0z" fill-rule="nonzero"></path><path fill="#000000" d="m1050.34 46.695435l0 -9.390625q0 -2.328125 -0.75 -3.390625q-0.734375 -1.0625 -2.59375 -1.0625q-1.78125 0 -3.015625 0.890625q-1.21875 0.890625 -1.578125 2.296875q-0.125 1.0625 -0.125 2.375l0 8.28125l-2.375 0l0 -21.562502l2.375 -0.140625l0 6.3125q0 0.8125019 -0.0625 2.000002q2.0 -2.468752 5.296875 -2.468752q5.203125 0 5.203125 6.109377l0 9.75l-2.375 0zm9.955444 -1.59375q1.6875 0 2.96875 -0.921875q1.28125 -0.921875 1.640625 -2.5l0 -2.609375q-0.0625 0 -0.859375 0.078125q-0.78125 0.0625 -1.015625 0.0625q-3.078125 0.28125 -4.296875 1.015625q-1.203125 0.734375 -1.203125 2.359375q0 1.25 0.734375 1.890625q0.734375 0.625 2.03125 0.625zm5.140625 1.59375q-0.21875 -0.90625 -0.40625 -1.953125q-1.296875 1.28125 -2.4375 1.78125q-1.125 0.5 -2.65625 0.5q-2.171875 0 -3.5 -1.140625q-1.328125 -1.140625 -1.328125 -3.28125q0 -2.375 1.796875 -3.515625q1.8125 -1.15625 5.21875 -1.4375q0.46875 -0.046875 1.40625 -0.125q0.9375 -0.078125 1.40625 -0.125l0 -1.359375q0 -1.65625 -0.765625 -2.4375q-0.765625 -0.796875 -2.40625 -0.796875q-2.296875 0 -4.625 1.125q-0.078125 -0.15625 -0.375 -0.96875q-0.296875 -0.828125 -0.3125 -0.84375q1.03125 -0.5937519 2.453125 -0.9375019q1.4375 -0.34375 2.90625 -0.34375q2.90625 0 4.1875 1.2656269q1.28125 1.265625 1.28125 4.3125l0 10.28125l-1.84375 0zm6.098755 0l0 -15.531252l1.96875 0l0.3125 2.218752q0.90625 -1.140625 2.28125 -1.8437519q1.390625 -0.703125 3.0 -0.703125q2.6875 0 3.96875 1.5156269q1.296875 1.5 1.296875 4.625l0 9.71875l-2.375 0q0 -9.34375 -0.015625 -10.015625q-0.046875 -1.984375 -0.796875 -2.890625q-0.734375 -0.921875 -2.484375 -0.921875q-1.828125 0 -3.046875 0.875q-1.21875 0.875 -1.578125 2.28125q-0.140625 0.9375 -0.140625 2.171875l0 8.5l-2.390625 0zm23.002197 -1.71875q2.34375 0 3.484375 -1.5q1.140625 -1.5 1.140625 -4.28125q0 -3.15625 -1.109375 -4.734375q-1.09375 -1.59375 -3.53125 -1.59375q-1.09375 0 -1.9375 0.46875q-0.828125 0.453125 -1.34375 1.296875q-0.5 0.828125 -0.765625 1.921875q-0.265625 1.078125 -0.265625 2.359375q0 1.8125 0.4375 3.15625q0.453125 1.328125 1.4375 2.125q1.0 0.78125 2.453125 0.78125zm4.671875 -0.53125q-0.765625 1.171875 -2.046875 1.875q-1.265625 0.6875 -2.84375 0.6875q-3.078125 0 -4.828125 -2.1875q-1.734375 -2.1875 -1.734375 -5.953125q0 -3.59375 1.765625 -5.8125q1.78125 -2.218752 4.75 -2.218752q1.546875 0 2.90625 0.671875q1.375 0.6718769 2.046875 1.8125019l-0.03125 -1.3593769l0 -6.828125l2.328125 -0.140625l0 21.703127l-2.0 0l-0.3125 -2.25zm10.795166 2.53125q-2.265625 0 -3.21875 -1.21875q-0.9375 -1.21875 -0.9375 -4.234375l0 -16.390627l2.359375 -0.140625l0 15.593752q0 0.96875 0.015625 1.546875q0.03125 0.578125 0.109375 1.140625q0.078125 0.5625 0.21875 0.84375q0.15625 0.28125 0.421875 0.515625q0.265625 0.234375 0.640625 0.3125q0.375 0.078125 0.921875 0.078125q0.453125 0 1.796875 -0.171875l0.125 1.890625q-1.46875 0.234375 -2.453125 0.234375zm12.91394 -12.9375q-1.03125 -1.25 -2.84375 -1.25q-1.8125 0 -2.96875 1.28125q-1.140625 1.28125 -1.328125 3.5l8.1875 0q0 -2.296875 -1.046875 -3.53125zm-2.375 12.984375q-3.375 0 -5.328125 -2.15625q-1.953125 -2.15625 -1.953125 -5.890625q0 -3.609375 1.875 -5.84375q1.890625 -2.250002 4.96875 -2.296877q2.890625 0 4.578125 1.9843769q1.6875 1.96875 1.6875 5.265625q0 0.171875 0 0.625q0 0.453125 0 0.65625l-10.671875 0q0.046875 2.640625 1.359375 4.125q1.328125 1.46875 3.578125 1.46875q2.453125 0 4.9375 -1.296875l0.359375 1.90625q-2.359375 1.453125 -5.390625 1.453125zm16.257568 -16.000002q0.640625 0 1.171875 0.078125l-0.09375 2.187502q-0.640625 -0.109375 -1.125 -0.109375q-1.984375 0 -3.234375 1.375q-1.234375 1.375 -1.234375 3.421875l0 8.71875l-2.359375 0q-0.015625 -14.296875 -0.015625 -15.531252l1.96875 0l0.234375 2.781252q0.796875 -1.3125 2.046875 -2.109377q1.25 -0.8125 2.640625 -0.8125z" fill-rule="nonzero"></path><path fill="#000000" fill-opacity="0.0" d="m383.30823 64.937004l148.15747 0l0 40.62993l-148.15747 0z" fill-rule="nonzero"></path><path fill="#000000" d="m436.84595 96.977005q-2.71875 -8.65625 -3.359375 -10.765625q-0.359375 1.28125 -0.828125 2.78125q-0.46875 1.5 -0.828125 2.578125q-0.34375 1.078125 -0.90625 2.796875q-0.5625 1.703125 -0.859375 2.609375l-2.109375 0l-3.671875 -12.859375l2.03125 0l2.75 10.53125q0.578125 -1.875 3.375 -10.53125l2.21875 0q2.796875 8.84375 3.28125 10.484375l2.71875 -10.484375l2.0 0l-3.703125 12.859375l-2.109375 0zm7.3203125 3.265625q0.03125 -0.34375 0.203125 -1.8125q0.171875 -1.453125 0.265625 -2.453125q0.09375 -1.0 0.140625 -1.75l2.3125 0l0 0.515625q-0.578125 2.328125 -1.6875 5.5l-1.234375 0zm18.0625 -16.234375q0.53125 0 0.96875 0.0625l-0.078125 1.8125q-0.53125 -0.09375 -0.9375 -0.09375q-1.640625 0 -2.671875 1.140625q-1.015625 1.140625 -1.015625 2.828125l0 7.21875l-1.953125 0q-0.015625 -11.84375 -0.015625 -12.859375l1.625 0l0.1875 2.3125q0.671875 -1.09375 1.703125 -1.75q1.03125 -0.671875 2.1875 -0.671875zm10.3984375 2.484375q-0.859375 -1.03125 -2.359375 -1.03125q-1.5 0 -2.453125 1.0625q-0.953125 1.0625 -1.109375 2.90625l6.78125 0q0 -1.90625 -0.859375 -2.9375zm-1.984375 10.75q-2.796875 0 -4.40625 -1.78125q-1.609375 -1.78125 -1.609375 -4.875q0 -2.984375 1.546875 -4.84375q1.5625 -1.859375 4.109375 -1.890625q2.390625 0 3.78125 1.640625q1.40625 1.625 1.40625 4.359375q0 0.140625 0 0.515625q0 0.375 0 0.53125l-8.828125 0q0.03125 2.203125 1.125 3.421875q1.09375 1.21875 2.953125 1.21875q2.03125 0 4.09375 -1.078125l0.296875 1.59375q-1.953125 1.1875 -4.46875 1.1875zm12.34375 0q-1.671875 0 -2.90625 -0.859375q-1.21875 -0.875 -1.828125 -2.34375q-0.609375 -1.484375 -0.609375 -3.40625q0 -1.984375 0.609375 -3.5q0.609375 -1.53125 1.84375 -2.40625q1.25 -0.875 2.984375 -0.875q2.40625 0 4.046875 2.078125l0.140625 -1.8125l1.734375 0l0 18.328125l-1.953125 0.109375l0 -5.703125q0 -0.859375 0.046875 -1.734375q-0.65625 0.984375 -1.71875 1.5625q-1.0625 0.5625 -2.390625 0.5625zm0.265625 -1.6875q1.9375 0 2.859375 -1.21875q0.921875 -1.21875 0.9375 -3.5625q0 -2.59375 -0.90625 -3.90625q-0.890625 -1.328125 -2.90625 -1.328125q-1.21875 0 -2.046875 0.703125q-0.828125 0.6875 -1.1875 1.78125q-0.34375 1.09375 -0.34375 2.546875q0 1.078125 0.203125 1.96875q0.203125 0.890625 0.625 1.578125q0.421875 0.671875 1.125 1.0625q0.703125 0.375 1.640625 0.375z" fill-rule="nonzero"></path><path fill="#000000" fill-opacity="0.0" d="m608.8702 64.937004l185.7008 0l0 40.62993l-185.7008 0z" fill-rule="nonzero"></path><path fill="#000000" d="m634.9784 96.977005q-2.71875 -8.65625 -3.359375 -10.765625q-0.359375 1.28125 -0.828125 2.78125q-0.46875 1.5 -0.828125 2.578125q-0.34375 1.078125 -0.90625 2.796875q-0.5625 1.703125 -0.859375 2.609375l-2.109375 0l-3.671875 -12.859375l2.03125 0l2.75 10.53125q0.578125 -1.875 3.375 -10.53125l2.21875 0q2.796875 8.84375 3.28125 10.484375l2.71875 -10.484375l2.0 0l-3.703125 12.859375l-2.109375 0zm7.3203125 3.265625q0.03125 -0.34375 0.203125 -1.8125q0.171875 -1.453125 0.265625 -2.453125q0.09375 -1.0 0.140625 -1.75l2.3125 0l0 0.515625q-0.578125 2.328125 -1.6875 5.5l-1.234375 0zm18.0625 -16.234375q0.53125 0 0.96875 0.0625l-0.078125 1.8125q-0.53125 -0.09375 -0.9375 -0.09375q-1.640625 0 -2.671875 1.140625q-1.015625 1.140625 -1.015625 2.828125l0 7.21875l-1.953125 0q-0.015625 -11.84375 -0.015625 -12.859375l1.625 0l0.1875 2.3125q0.671875 -1.09375 1.703125 -1.75q1.03125 -0.671875 2.1875 -0.671875zm10.3984375 2.484375q-0.859375 -1.03125 -2.359375 -1.03125q-1.5 0 -2.453125 1.0625q-0.953125 1.0625 -1.109375 2.90625l6.78125 0q0 -1.90625 -0.859375 -2.9375zm-1.984375 10.75q-2.796875 0 -4.40625 -1.78125q-1.609375 -1.78125 -1.609375 -4.875q0 -2.984375 1.546875 -4.84375q1.5625 -1.859375 4.109375 -1.890625q2.390625 0 3.78125 1.640625q1.40625 1.625 1.40625 4.359375q0 0.140625 0 0.515625q0 0.375 0 0.53125l-8.828125 0q0.03125 2.203125 1.125 3.421875q1.09375 1.21875 2.953125 1.21875q2.03125 0 4.09375 -1.078125l0.296875 1.59375q-1.953125 1.1875 -4.46875 1.1875zm12.34375 0q-1.671875 0 -2.90625 -0.859375q-1.21875 -0.875 -1.828125 -2.34375q-0.609375 -1.484375 -0.609375 -3.40625q0 -1.984375 0.609375 -3.5q0.609375 -1.53125 1.84375 -2.40625q1.25 -0.875 2.984375 -0.875q2.40625 0 4.046875 2.078125l0.140625 -1.8125l1.734375 0l0 18.328125l-1.953125 0.109375l0 -5.703125q0 -0.859375 0.046875 -1.734375q-0.65625 0.984375 -1.71875 1.5625q-1.0625 0.5625 -2.390625 0.5625zm0.265625 -1.6875q1.9375 0 2.859375 -1.21875q0.921875 -1.21875 0.9375 -3.5625q0 -2.59375 -0.90625 -3.90625q-0.890625 -1.328125 -2.90625 -1.328125q-1.21875 0 -2.046875 0.703125q-0.828125 0.6875 -1.1875 1.78125q-0.34375 1.09375 -0.34375 2.546875q0 1.078125 0.203125 1.96875q0.203125 0.890625 0.625 1.578125q0.421875 0.671875 1.125 1.0625q0.703125 0.375 1.640625 0.375zm8.738281 4.6875q0.03125 -0.34375 0.203125 -1.8125q0.171875 -1.453125 0.265625 -2.453125q0.09375 -1.0 0.140625 -1.75l2.3125 0l0 0.515625q-0.578125 2.328125 -1.6875 5.5l-1.234375 0zm12.296875 2.3125l0 -18.4375l1.734375 0l0.1875 1.75q1.6875 -2.015625 4.046875 -2.015625q1.765625 0 2.984375 0.875q1.21875 0.875 1.796875 2.375q0.578125 1.5 0.578125 3.515625q0 1.921875 -0.640625 3.421875q-0.625 1.484375 -1.859375 2.34375q-1.21875 0.859375 -2.859375 0.859375q-1.234375 0 -2.328125 -0.546875q-1.09375 -0.5625 -1.75 -1.484375q0.078125 1.265625 0.078125 2.46875l0 4.75l-1.96875 0.125zm5.703125 -6.96875q0.890625 0 1.59375 -0.390625q0.703125 -0.40625 1.125 -1.109375q0.4375 -0.703125 0.65625 -1.59375q0.234375 -0.90625 0.234375 -1.953125q0 -2.203125 -0.9375 -3.609375q-0.921875 -1.421875 -2.703125 -1.421875q-3.71875 0 -3.71875 4.828125q0 2.609375 0.875 3.9375q0.875 1.3125 2.875 1.3125zm12.089844 0.078125q1.390625 0 2.453125 -0.765625q1.0625 -0.765625 1.375 -2.078125l0 -2.15625q-0.0625 0 -0.71875 0.0625q-0.640625 0.046875 -0.84375 0.0625q-2.546875 0.21875 -3.546875 0.828125q-1.0 0.609375 -1.0 1.953125q0 1.03125 0.609375 1.5625q0.609375 0.53125 1.671875 0.53125zm4.25 1.3125q-0.171875 -0.75 -0.328125 -1.625q-1.078125 1.078125 -2.015625 1.484375q-0.9375 0.40625 -2.203125 0.40625q-1.796875 0 -2.890625 -0.9375q-1.09375 -0.953125 -1.09375 -2.71875q0 -1.96875 1.484375 -2.90625q1.5 -0.953125 4.3125 -1.1875q0.390625 -0.046875 1.15625 -0.109375q0.78125 -0.0625 1.171875 -0.09375l0 -1.140625q0 -1.359375 -0.640625 -2.015625q-0.625 -0.65625 -1.984375 -0.65625q-1.890625 0 -3.828125 0.9375q-0.0625 -0.140625 -0.3125 -0.8125q-0.234375 -0.671875 -0.25 -0.703125q0.859375 -0.46875 2.03125 -0.75q1.171875 -0.296875 2.390625 -0.296875q2.40625 0 3.46875 1.046875q1.0625 1.046875 1.0625 3.5625l0 8.515625l-1.53125 0zm10.6640625 -12.96875q0.53125 0 0.96875 0.0625l-0.078125 1.8125q-0.53125 -0.09375 -0.9375 -0.09375q-1.640625 0 -2.671875 1.140625q-1.015625 1.140625 -1.015625 2.828125l0 7.21875l-1.953125 0q-0.015625 -11.84375 -0.015625 -12.859375l1.625 0l0.1875 2.3125q0.671875 -1.09375 1.703125 -1.75q1.03125 -0.671875 2.1875 -0.671875zm6.6953125 11.65625q1.390625 0 2.453125 -0.765625q1.0625 -0.765625 1.375 -2.078125l0 -2.15625q-0.0625 0 -0.71875 0.0625q-0.640625 0.046875 -0.84375 0.0625q-2.546875 0.21875 -3.546875 0.828125q-1.0 0.609375 -1.0 1.953125q0 1.03125 0.609375 1.5625q0.609375 0.53125 1.671875 0.53125zm4.25 1.3125q-0.171875 -0.75 -0.328125 -1.625q-1.078125 1.078125 -2.015625 1.484375q-0.9375 0.40625 -2.203125 0.40625q-1.796875 0 -2.890625 -0.9375q-1.09375 -0.953125 -1.09375 -2.71875q0 -1.96875 1.484375 -2.90625q1.5 -0.953125 4.3125 -1.1875q0.390625 -0.046875 1.15625 -0.109375q0.78125 -0.0625 1.171875 -0.09375l0 -1.140625q0 -1.359375 -0.640625 -2.015625q-0.625 -0.65625 -1.984375 -0.65625q-1.890625 0 -3.828125 0.9375q-0.0625 -0.140625 -0.3125 -0.8125q-0.234375 -0.671875 -0.25 -0.703125q0.859375 -0.46875 2.03125 -0.75q1.171875 -0.296875 2.390625 -0.296875q2.40625 0 3.46875 1.046875q1.0625 1.046875 1.0625 3.5625l0 8.515625l-1.53125 0zm21.226562 0l0 -6.6875q0 -0.9375 -0.046875 -1.5625q-0.03125 -0.640625 -0.1875 -1.296875q-0.140625 -0.65625 -0.40625 -1.03125q-0.265625 -0.390625 -0.734375 -0.625q-0.46875 -0.25 -1.125 -0.25q-1.28125 0 -2.1875 0.703125q-0.90625 0.6875 -1.296875 1.9375q-0.109375 0.84375 -0.109375 1.796875l0 7.015625l-1.953125 0l0 -6.90625q0 -0.859375 -0.0625 -1.5q-0.0625 -0.640625 -0.234375 -1.234375q-0.15625 -0.609375 -0.4375 -0.984375q-0.265625 -0.375 -0.71875 -0.59375q-0.453125 -0.234375 -1.09375 -0.234375q-1.40625 0 -2.359375 0.71875q-0.953125 0.71875 -1.28125 1.890625q-0.109375 0.90625 -0.109375 1.96875l0 6.875l-1.953125 0q-0.03125 -12.0625 -0.03125 -12.859375l1.640625 0l0.25 1.84375q0.59375 -0.890625 1.671875 -1.5q1.078125 -0.609375 2.4375 -0.609375q0.71875 0 1.3125 0.15625q0.609375 0.140625 1.015625 0.359375q0.40625 0.21875 0.71875 0.53125q0.328125 0.3125 0.5 0.609375q0.171875 0.296875 0.296875 0.625q1.40625 -2.28125 4.296875 -2.28125q2.140625 0 3.140625 1.234375q1.0 1.21875 1.0 3.609375l0 8.28125l-1.953125 0zm8.292969 0.265625q-1.3125 0 -2.421875 -0.28125q-1.109375 -0.28125 -1.796875 -0.71875l0.234375 -1.65625q1.96875 1.046875 3.84375 1.046875q2.859375 0 2.953125 -2.015625q0 -0.859375 -0.609375 -1.34375q-0.609375 -0.5 -2.390625 -1.109375l-0.984375 -0.34375q-1.6875 -0.5625 -2.40625 -1.390625q-0.71875 -0.828125 -0.734375 -2.078125q0 -1.515625 1.21875 -2.5q1.21875 -1.0 3.328125 -1.0q2.171875 0 3.96875 0.84375l-0.578125 1.5q-1.8125 -0.75 -3.390625 -0.75q-1.234375 0 -1.9375 0.484375q-0.6875 0.484375 -0.6875 1.359375q0 0.75 0.5 1.15625q0.5 0.390625 2.015625 0.90625q0.390625 0.140625 0.96875 0.328125q1.953125 0.640625 2.75 1.5q0.8125 0.859375 0.8125 2.328125q-0.015625 1.78125 -1.28125 2.765625q-1.25 0.96875 -3.375 0.96875z" fill-rule="nonzero"></path><path fill="#d9ead3" d="m364.53662 114.49475l165.3858 0l0 -10.157478l20.315002 20.314957l-20.315002 20.314964l0 -10.157486l-165.3858 0z" fill-rule="nonzero"></path><path stroke="#000000" stroke-width="1.0" stroke-linejoin="round" stroke-linecap="butt" d="m364.53662 114.49475l165.3858 0l0 -10.157478l20.315002 20.314957l-20.315002 20.314964l0 -10.157486l-165.3858 0z" fill-rule="nonzero"></path><path fill="#000000" fill-opacity="0.0" d="m869.16943 64.937004l185.7008 0l0 40.62993l-185.7008 0z" fill-rule="nonzero"></path><path fill="#000000" d="m953.1038 97.24263q-2.828125 0 -4.4375 -1.828125q-1.59375 -1.84375 -1.59375 -4.828125q0.015625 -3.0 1.640625 -4.859375q1.625 -1.875 4.4375 -1.875q1.0 0 1.921875 0.25q0.9375 0.234375 1.484375 0.640625l-0.546875 1.515625q-1.359375 -0.734375 -2.890625 -0.734375q-1.859375 0 -2.953125 1.359375q-1.078125 1.359375 -1.078125 3.71875q0 2.296875 1.0625 3.640625q1.078125 1.34375 2.984375 1.34375q1.515625 0 3.09375 -0.828125l0.25 1.5625q-1.28125 0.921875 -3.375 0.921875zm10.015625 -0.03125q-1.90625 0 -2.703125 -0.921875q-0.796875 -0.9375 -0.84375 -3.0l0 -7.71875l-1.90625 0l0.078125 -1.28125l1.828125 -0.171875l0.65625 -2.9375l1.296875 -0.046875l0 2.984375l3.578125 0l0 1.453125l-3.578125 0l0 7.375q0 1.46875 0.4375 2.0625q0.453125 0.59375 1.53125 0.59375q0.390625 0 1.671875 -0.1875l0.078125 1.546875q-1.390625 0.25 -2.125 0.25zm7.6171875 -6.78125l-4.53125 -6.3125l2.234375 0l3.4375 4.90625l3.4375 -4.90625l2.234375 0l-4.546875 6.34375l4.671875 6.515625l-2.171875 0l-3.625 -5.171875l-3.609375 5.171875l-2.25 0l4.71875 -6.546875z" fill-rule="nonzero"></path><path fill="#000000" fill-opacity="0.0" d="m869.1707 218.14816l185.70074 0l0 40.629913l-185.70074 0z" fill-rule="nonzero"></path><path fill="#000000" d="m946.6168 250.18817l0 -6.6875q0 -0.9375 -0.046875 -1.5625q-0.03125 -0.640625 -0.1875 -1.296875q-0.140625 -0.65625 -0.40625 -1.03125q-0.265625 -0.390625 -0.734375 -0.625q-0.46875 -0.25 -1.125 -0.25q-1.28125 0 -2.1875 0.703125q-0.90625 0.6875 -1.296875 1.9375q-0.109375 0.84375 -0.109375 1.796875l0 7.015625l-1.953125 0l0 -6.90625q0 -0.859375 -0.0625 -1.5q-0.0625 -0.640625 -0.234375 -1.234375q-0.15625 -0.609375 -0.4375 -0.984375q-0.265625 -0.375 -0.71875 -0.59375q-0.453125 -0.234375 -1.09375 -0.234375q-1.40625 0 -2.359375 0.71875q-0.953125 0.71875 -1.28125 1.890625q-0.109375 0.90625 -0.109375 1.96875l0 6.875l-1.953125 0q-0.03125 -12.0625 -0.03125 -12.859375l1.640625 0l0.25 1.84375q0.59375 -0.890625 1.671875 -1.5q1.078125 -0.609375 2.4375 -0.609375q0.71875 0 1.3125 0.15625q0.609375 0.140625 1.015625 0.359375q0.40625 0.21875 0.71875 0.53125q0.328125 0.3125 0.5 0.609375q0.171875 0.296875 0.296875 0.625q1.40625 -2.28125 4.296875 -2.28125q2.140625 0 3.140625 1.234375q1.0 1.21875 1.0 3.609375l0 8.28125l-1.953125 0zm11.871094 -10.484375q-0.859375 -1.03125 -2.359375 -1.03125q-1.5 0 -2.453125 1.0625q-0.953125 1.0625 -1.109375 2.90625l6.78125 0q0 -1.90625 -0.859375 -2.9375zm-1.984375 10.75q-2.796875 0 -4.40625 -1.78125q-1.609375 -1.78125 -1.609375 -4.875q0 -2.984375 1.546875 -4.84375q1.5625 -1.859375 4.109375 -1.890625q2.390625 0 3.78125 1.640625q1.40625 1.625 1.40625 4.359375q0 0.140625 0 0.515625q0 0.375 0 0.53125l-8.828125 0q0.03125 2.203125 1.125 3.421875q1.09375 1.21875 2.953125 1.21875q2.03125 0 4.09375 -1.078125l0.296875 1.59375q-1.953125 1.1875 -4.46875 1.1875zm12.5625 -1.6875q1.9375 0 2.875 -1.234375q0.953125 -1.25 0.953125 -3.5625q0 -2.59375 -0.90625 -3.90625q-0.90625 -1.328125 -2.9375 -1.328125q-0.90625 0 -1.59375 0.390625q-0.6875 0.390625 -1.109375 1.078125q-0.421875 0.6875 -0.640625 1.59375q-0.21875 0.890625 -0.21875 1.953125q0 1.5 0.359375 2.609375q0.375 1.09375 1.1875 1.75q0.828125 0.65625 2.03125 0.65625zm3.859375 -0.4375q-0.625 0.96875 -1.6875 1.546875q-1.046875 0.578125 -2.359375 0.578125q-2.53125 0 -3.984375 -1.8125q-1.4375 -1.8125 -1.4375 -4.9375q0 -2.96875 1.46875 -4.796875q1.46875 -1.84375 3.921875 -1.84375q1.28125 0 2.40625 0.5625q1.140625 0.546875 1.703125 1.484375l-0.046875 -1.109375l0 -5.65625l1.9375 -0.125l0 17.96875l-1.65625 0l-0.265625 -1.859375zm7.6289062 -11.0l0 12.859375l-1.96875 0l0 -12.859375l1.96875 0zm0 -4.671875l0 2.3125l-1.96875 0l0 -2.3125l1.96875 0zm7.3945312 16.21875q1.390625 0 2.453125 -0.765625q1.0625 -0.765625 1.375 -2.078125l0 -2.15625q-0.0625 0 -0.71875 0.0625q-0.640625 0.046875 -0.84375 0.0625q-2.546875 0.21875 -3.546875 0.828125q-1.0 0.609375 -1.0 1.953125q0 1.03125 0.609375 1.5625q0.609375 0.53125 1.671875 0.53125zm4.25 1.3125q-0.171875 -0.75 -0.328125 -1.625q-1.078125 1.078125 -2.015625 1.484375q-0.9375 0.40625 -2.203125 0.40625q-1.796875 0 -2.890625 -0.9375q-1.09375 -0.953125 -1.09375 -2.71875q0 -1.96875 1.484375 -2.90625q1.5 -0.953125 4.3125 -1.1875q0.390625 -0.046875 1.15625 -0.109375q0.78125 -0.0625 1.171875 -0.09375l0 -1.140625q0 -1.359375 -0.640625 -2.015625q-0.625 -0.65625 -1.984375 -0.65625q-1.890625 0 -3.828125 0.9375q-0.0625 -0.140625 -0.3125 -0.8125q-0.234375 -0.671875 -0.25 -0.703125q0.859375 -0.46875 2.03125 -0.75q1.171875 -0.296875 2.390625 -0.296875q2.40625 0 3.46875 1.046875q1.0625 1.046875 1.0625 3.5625l0 8.515625l-1.53125 0z" fill-rule="nonzero"></path><path fill="#000000" fill-opacity="0.0" d="m490.697 218.14816l185.70078 0l0 40.629913l-185.70078 0z" fill-rule="nonzero"></path><path fill="#000000" d="m558.8501 253.62567l-5.3125 0l0 -20.8125l5.3125 0l0 1.546875l-3.28125 0l0 17.71875l3.28125 0l0 1.546875zm1.875 -1.546875l3.28125 0l0 -17.71875l-3.28125 0l0 -1.546875l5.3125 0l0 20.8125l-5.3125 0l0 -1.546875zm14.515625 -13.390625q-1.875 0 -2.859375 1.28125q-0.984375 1.28125 -0.984375 3.765625q0 5.09375 3.828125 5.09375q0.953125 0 1.671875 -0.390625q0.71875 -0.390625 1.125 -1.09375q0.421875 -0.71875 0.625 -1.609375q0.203125 -0.890625 0.203125 -1.984375q0 -1.46875 -0.34375 -2.5625q-0.34375 -1.109375 -1.171875 -1.796875q-0.828125 -0.703125 -2.09375 -0.703125zm0.1875 -1.625q1.71875 0 2.953125 0.875q1.25 0.859375 1.859375 2.34375q0.625 1.484375 0.625 3.40625q0 2.0 -0.609375 3.515625q-0.609375 1.5 -1.859375 2.375q-1.25 0.875 -2.984375 0.875q-1.28125 0 -2.34375 -0.546875q-1.046875 -0.546875 -1.75 -1.5l-0.203125 1.78125l-1.671875 0l0 -17.84375l1.953125 -0.125l0 4.25q0 1.578125 -0.046875 2.703125q0.6875 -0.96875 1.765625 -1.53125q1.09375 -0.578125 2.3125 -0.578125zm6.5507812 0.265625l2.078125 0l4.0625 10.703125l3.609375 -10.703125l2.0625 0q-5.203125 14.328125 -5.375 14.765625q-0.8125 2.03125 -1.96875 2.96875q-1.140625 0.953125 -3.015625 0.953125q-0.5625 0 -1.171875 -0.09375l-0.125 -1.671875q0.65625 0.046875 0.984375 0.046875q1.328125 0 2.015625 -0.484375q0.6875 -0.484375 1.21875 -1.8125q0.484375 -1.234375 0.71875 -1.90625l-5.09375 -12.765625zm17.726562 13.09375q-1.90625 0 -2.703125 -0.921875q-0.796875 -0.9375 -0.84375 -3.0l0 -7.71875l-1.90625 0l0.078125 -1.28125l1.828125 -0.171875l0.65625 -2.9375l1.296875 -0.046875l0 2.984375l3.578125 0l0 1.453125l-3.578125 0l0 7.375q0 1.46875 0.4375 2.0625q0.453125 0.59375 1.53125 0.59375q0.390625 0 1.671875 -0.1875l0.078125 1.546875q-1.390625 0.25 -2.125 0.25zm11.6328125 -10.71875q-0.859375 -1.03125 -2.359375 -1.03125q-1.5 0 -2.453125 1.0625q-0.953125 1.0625 -1.109375 2.90625l6.78125 0q0 -1.90625 -0.859375 -2.9375zm-1.984375 10.75q-2.796875 0 -4.40625 -1.78125q-1.609375 -1.78125 -1.609375 -4.875q0 -2.984375 1.546875 -4.84375q1.5625 -1.859375 4.109375 -1.890625q2.390625 0 3.78125 1.640625q1.40625 1.625 1.40625 4.359375q0 0.140625 0 0.515625q0 0.375 0 0.53125l-8.828125 0q0.03125 2.203125 1.125 3.421875q1.09375 1.21875 2.953125 1.21875q2.03125 0 4.09375 -1.078125l0.296875 1.59375q-1.953125 1.1875 -4.46875 1.1875z" fill-rule="nonzero"></path><path fill="#f4cccc" d="m574.5276 301.66635l185.70074 0l0 50.614166l-185.70074 0z" fill-rule="nonzero"></path><path stroke="#000000" stroke-width="2.0" stroke-linejoin="round" stroke-linecap="butt" d="m574.5276 301.66635l185.70074 0l0 50.614166l-185.70074 0z" fill-rule="nonzero"></path><path fill="#000000" d="m633.23926 332.03445q1.0 0 1.75 -0.34375q0.75 -0.359375 1.171875 -0.984375q0.421875 -0.625 0.625 -1.375q0.203125 -0.765625 0.203125 -1.671875l0 -0.953125q0 -0.9375 -0.21875 -1.71875q-0.203125 -0.796875 -0.640625 -1.421875q-0.4375 -0.625 -1.171875 -0.96875q-0.734375 -0.359375 -1.703125 -0.359375q-0.8125 0 -1.484375 0.3125q-0.65625 0.296875 -1.09375 0.796875q-0.421875 0.484375 -0.71875 1.15625q-0.296875 0.65625 -0.421875 1.34375q-0.125 0.671875 -0.125 1.359375q0 0.6875 0.140625 1.359375q0.140625 0.65625 0.4375 1.296875q0.3125 0.625 0.734375 1.109375q0.4375 0.46875 1.078125 0.765625q0.65625 0.296875 1.4375 0.296875zm-3.015625 7.5625l-0.171875 -1.78125l2.390625 0q1.0 0 1.734375 -0.140625q0.734375 -0.140625 1.21875 -0.46875q0.5 -0.3125 0.796875 -0.703125q0.3125 -0.390625 0.46875 -1.015625q0.15625 -0.625 0.203125 -1.25q0.0625 -0.609375 0.0625 -1.5l0 -1.140625q-0.703125 1.0 -1.625 1.546875q-0.921875 0.546875 -2.359375 0.546875q-1.09375 0 -2.03125 -0.375q-0.9375 -0.390625 -1.578125 -1.015625q-0.625 -0.640625 -1.078125 -1.46875q-0.453125 -0.828125 -0.65625 -1.71875q-0.203125 -0.890625 -0.203125 -1.796875q0 -1.40625 0.34375 -2.59375q0.34375 -1.203125 1.015625 -2.140625q0.6875 -0.9375 1.796875 -1.46875q1.109375 -0.53125 2.53125 -0.53125q1.265625 0 2.203125 0.484375q0.953125 0.484375 1.703125 1.5l0 -1.71875l1.90625 0l0 11.9375q0 0.8125 -0.046875 1.421875q-0.03125 0.625 -0.1875 1.375q-0.15625 0.75 -0.4375 1.28125q-0.265625 0.546875 -0.75 1.09375q-0.484375 0.546875 -1.15625 0.875q-0.671875 0.34375 -1.671875 0.546875q-1.0 0.21875 -2.25 0.21875l-2.171875 0zm13.363281 -12.296875q0 2.296875 1.015625 3.671875q1.015625 1.375 2.953125 1.375q1.921875 0 2.890625 -1.375q0.984375 -1.375 0.984375 -3.6875q0 -2.359375 -0.96875 -3.703125q-0.953125 -1.359375 -2.9375 -1.359375q-1.921875 0 -2.9375 1.390625q-1.0 1.375 -1.0 3.6875zm9.875 -0.03125q0 2.984375 -1.59375 4.84375q-1.59375 1.859375 -4.40625 1.859375q-2.703125 0 -4.3125 -1.875q-1.59375 -1.875 -1.59375 -4.8125q0 -3.0 1.609375 -4.84375q1.609375 -1.859375 4.40625 -1.859375q2.75 0 4.3125 1.859375q1.578125 1.859375 1.578125 4.828125zm6.4804688 5.125q1.390625 0 2.453125 -0.765625q1.0625 -0.765625 1.375 -2.078125l0 -2.15625q-0.0625 0 -0.71875 0.0625q-0.640625 0.046875 -0.84375 0.0625q-2.546875 0.21875 -3.546875 0.828125q-1.0 0.609375 -1.0 1.953125q0 1.03125 0.609375 1.5625q0.609375 0.53125 1.671875 0.53125zm4.25 1.3125q-0.171875 -0.75 -0.328125 -1.625q-1.078125 1.078125 -2.015625 1.484375q-0.9375 0.40625 -2.203125 0.40625q-1.796875 0 -2.890625 -0.9375q-1.09375 -0.953125 -1.09375 -2.71875q0 -1.96875 1.484375 -2.90625q1.5 -0.953125 4.3125 -1.1875q0.390625 -0.046875 1.15625 -0.109375q0.78125 -0.0625 1.171875 -0.09375l0 -1.140625q0 -1.359375 -0.640625 -2.015625q-0.625 -0.65625 -1.984375 -0.65625q-1.890625 0 -3.828125 0.9375q-0.0625 -0.140625 -0.3125 -0.8125q-0.234375 -0.671875 -0.25 -0.703125q0.859375 -0.46875 2.03125 -0.75q1.171875 -0.296875 2.390625 -0.296875q2.40625 0 3.46875 1.046875q1.0625 1.046875 1.0625 3.5625l0 8.515625l-1.53125 0zm9.8984375 -1.671875q1.0 0 1.75 -0.34375q0.75 -0.359375 1.171875 -0.984375q0.421875 -0.625 0.625 -1.375q0.203125 -0.765625 0.203125 -1.671875l0 -0.953125q0 -0.9375 -0.21875 -1.71875q-0.203125 -0.796875 -0.640625 -1.421875q-0.4375 -0.625 -1.171875 -0.96875q-0.734375 -0.359375 -1.703125 -0.359375q-0.8125 0 -1.484375 0.3125q-0.65625 0.296875 -1.09375 0.796875q-0.421875 0.484375 -0.71875 1.15625q-0.296875 0.65625 -0.421875 1.34375q-0.125 0.671875 -0.125 1.359375q0 0.6875 0.140625 1.359375q0.140625 0.65625 0.4375 1.296875q0.3125 0.625 0.734375 1.109375q0.4375 0.46875 1.078125 0.765625q0.65625 0.296875 1.4375 0.296875zm-3.015625 7.5625l-0.171875 -1.78125l2.390625 0q1.0 0 1.734375 -0.140625q0.734375 -0.140625 1.21875 -0.46875q0.5 -0.3125 0.796875 -0.703125q0.3125 -0.390625 0.46875 -1.015625q0.15625 -0.625 0.203125 -1.25q0.0625 -0.609375 0.0625 -1.5l0 -1.140625q-0.703125 1.0 -1.625 1.546875q-0.921875 0.546875 -2.359375 0.546875q-1.09375 0 -2.03125 -0.375q-0.9375 -0.390625 -1.578125 -1.015625q-0.625 -0.640625 -1.078125 -1.46875q-0.453125 -0.828125 -0.65625 -1.71875q-0.203125 -0.890625 -0.203125 -1.796875q0 -1.40625 0.34375 -2.59375q0.34375 -1.203125 1.015625 -2.140625q0.6875 -0.9375 1.796875 -1.46875q1.109375 -0.53125 2.53125 -0.53125q1.265625 0 2.203125 0.484375q0.953125 0.484375 1.703125 1.5l0 -1.71875l1.90625 0l0 11.9375q0 0.8125 -0.046875 1.421875q-0.03125 0.625 -0.1875 1.375q-0.15625 0.75 -0.4375 1.28125q-0.265625 0.546875 -0.75 1.09375q-0.484375 0.546875 -1.15625 0.875q-0.671875 0.34375 -1.671875 0.546875q-1.0 0.21875 -2.25 0.21875l-2.171875 0zm19.347656 -16.375q-0.859375 -1.03125 -2.359375 -1.03125q-1.5 0 -2.453125 1.0625q-0.953125 1.0625 -1.109375 2.90625l6.78125 0q0 -1.90625 -0.859375 -2.9375zm-1.984375 10.75q-2.796875 0 -4.40625 -1.78125q-1.609375 -1.78125 -1.609375 -4.875q0 -2.984375 1.546875 -4.84375q1.5625 -1.859375 4.109375 -1.890625q2.390625 0 3.78125 1.640625q1.40625 1.625 1.40625 4.359375q0 0.140625 0 0.515625q0 0.375 0 0.53125l-8.828125 0q0.03125 2.203125 1.125 3.421875q1.09375 1.21875 2.953125 1.21875q2.03125 0 4.09375 -1.078125l0.296875 1.59375q-1.953125 1.1875 -4.46875 1.1875zm7.546875 -0.265625l0 -12.859375l1.640625 0l0.25 1.84375q0.765625 -0.953125 1.90625 -1.53125q1.140625 -0.578125 2.46875 -0.578125q2.218811 0 3.281311 1.25q1.078125 1.25 1.078125 3.828125l0 8.046875l-1.953125 0q0 -7.734375 -0.015625 -8.28125q-0.046875 -1.640625 -0.671875 -2.40625q-0.609375 -0.765625 -2.046936 -0.765625q-1.515625 0 -2.53125 0.734375q-1.0 0.71875 -1.296875 1.875q-0.125 0.796875 -0.125 1.8125l0 7.03125l-1.984375 0z" fill-rule="nonzero"></path><path fill="#000000" fill-opacity="0.0" d="m760.22833 326.97342l75.62207 0l0 -68.44095" fill-rule="nonzero"></path><path stroke="#000000" stroke-width="3.0" stroke-linejoin="round" stroke-linecap="butt" d="m760.22833 326.97342l75.62207 0l0 -58.1597" fill-rule="evenodd"></path><path fill="#000000" stroke="#000000" stroke-width="3.0" stroke-linecap="butt" d="m835.8504 268.81375l3.3737183 3.3737488l-3.3737183 -9.269318l-3.3737793 9.269318z" fill-rule="evenodd"></path></g></svg>

