<?xml version="1.0" standalone="yes"?>

<svg version="1.1" viewBox="0.0 0.0 469.6640419947507 240.66929133858267" fill="none" stroke="none" stroke-linecap="square" stroke-miterlimit="10" xmlns="http://www.w3.org/2000/svg" xmlns:xlink="http://www.w3.org/1999/xlink"><clipPath id="p.0"><path d="m0 0l469.66403 0l0 240.6693l-469.66403 0l0 -240.6693z" clip-rule="nonzero"></path></clipPath><g clip-path="url(#p.0)"><path fill="#000000" fill-opacity="0.0" d="m0 0l469.66403 0l0 240.6693l-469.66403 0z" fill-rule="nonzero"></path><path fill="#000000" fill-opacity="0.0" d="m195.12073 104.09974l67.74805 0l0 32.472435l-67.74805 0z" fill-rule="nonzero"></path><path stroke="#434343" stroke-width="2.0" stroke-linejoin="round" stroke-linecap="butt" d="m195.12073 104.09974l67.74805 0l0 32.472435l-67.74805 0z" fill-rule="nonzero"></path><path fill="#000000" d="m212.60765 120.46408q0 -1.96875 -1.015625 -2.859375q-1.015625 -0.90625 -2.96875 -0.90625l-1.46875 0l0 7.484375l1.65625 0q1.859375 0 2.828125 -0.9375q0.96875 -0.9375 0.96875 -2.78125zm1.171875 -0.03125q0 2.296875 -1.3125 3.5q-1.296875 1.203125 -3.625 1.203125l-2.78125 0l0 -9.390625l2.59375 0q1.171875 0 2.09375 0.28125q0.9375 0.265625 1.609375 0.828125q0.6875 0.5625 1.046875 1.46875q0.375 0.90625 0.375 2.109375zm2.056076 4.703125l0 -9.390625l5.375 0l-0.046875 0.96875l-4.234375 0l0 3.078125l4.03125 0l0 0.953125l-4.03125 0l0 3.421875l4.375 0l-0.046875 0.96875l-5.421875 0zm7.251007 -1.546875q1.46875 0.71875 3.140625 0.71875q2.0625 0 2.0625 -1.875q0 -0.609375 -0.328125 -0.984375q-0.3125 -0.375 -1.1875 -0.59375l-1.859375 -0.46875q-2.140625 -0.546875 -2.140625 -2.296875q0 -1.328125 0.921875 -1.984375q0.921875 -0.65625 2.546875 -0.65625q0.84375 0 1.578125 0.1875q0.75 0.1875 1.25 0.5l-0.3125 0.890625q-0.421875 -0.234375 -1.125 -0.40625q-0.703125 -0.1875 -1.421875 -0.1875q-2.296875 0 -2.296875 1.59375q0 0.53125 0.34375 0.859375q0.359375 0.328125 1.0625 0.5l1.78125 0.4375q1.15625 0.265625 1.734375 0.875q0.59375 0.59375 0.59375 1.6875q0 1.4375 -0.875 2.171875q-0.875 0.71875 -2.390625 0.71875q-1.125 0 -2.015625 -0.21875q-0.875 -0.234375 -1.390625 -0.5625l0.328125 -0.90625zm9.313293 1.546875l-1.09375 0l0 -9.390625l1.09375 0l0 9.390625zm6.4673767 0.140625q-1.078125 0 -1.9375 -0.359375q-0.84375 -0.359375 -1.40625 -1.0q-0.546875 -0.640625 -0.84375 -1.515625q-0.296875 -0.890625 -0.296875 -1.953125q0 -1.421875 0.53125 -2.515625q0.546875 -1.09375 1.609375 -1.71875q1.0625 -0.625 2.53125 -0.625q1.625 0 2.84375 0.734375l-0.421875 0.90625q-1.171875 -0.671875 -2.40625 -0.671875q-0.859375 0 -1.546875 0.296875q-0.671875 0.296875 -1.09375 0.828125q-0.421875 0.515625 -0.65625 1.21875q-0.21875 0.703125 -0.21875 1.546875q0 1.796875 0.890625 2.84375q0.890625 1.03125 2.625 1.03125q1.0 0 2.015625 -0.40625l0 -2.671875l-2.21875 0l0.046875 -0.96875l3.203125 0l0 4.296875q-0.796875 0.375 -1.546875 0.546875q-0.75 0.15625 -1.703125 0.15625zm12.820511 -0.140625l-1.234375 0l-4.875 -7.390625l-0.328125 -0.4375q0.0625 1.328125 0.0625 2.375l0 5.453125l-1.03125 0l0 -9.390625l1.21875 0l4.890625 7.390625l0.328125 0.4375q-0.046875 -2.03125 -0.046875 -2.34375l0 -5.484375l1.015625 0l0 9.390625z" fill-rule="nonzero"></path><path fill="#000000" fill-opacity="0.0" d="m185.38846 15.153543l87.212585 0l0 32.472443l-87.212585 0z" fill-rule="nonzero"></path><path stroke="#434343" stroke-width="2.0" stroke-linejoin="round" stroke-linecap="butt" d="m185.38846 15.153543l87.212585 0l0 32.472443l-87.212585 0z" fill-rule="nonzero"></path><path fill="#000000" d="m220.1862 30.955389q0.78125 -0.84375 2.109375 -0.84375q1.09375 0 1.71875 0.5625q0.640625 0.546875 0.640625 1.8437481l0 3.671875l-0.890625 0l0 -0.65625q-0.9375 0.796875 -2.125 0.796875q-0.46875 0 -0.84375 -0.140625q-0.359375 -0.140625 -0.625 -0.375q-0.265625 -0.234375 -0.40625 -0.53125q-0.125 -0.296875 -0.125 -0.609375q0 -0.890625 0.765625 -1.40625q0.78125 -0.515625 2.234375 -0.578125l1.125 0l0 -0.21875q0 -0.8906231 -0.375 -1.2343731q-0.375 -0.34375 -1.15625 -0.34375q-0.953125 0 -1.59375 0.65625l-0.453125 -0.59375zm3.609375 2.453123l-0.21875 0q-0.1875 0 -0.359375 0q-0.15625 -0.015625 -0.3125 -0.015625q-0.703125 0 -1.171875 0.109375q-0.453125 0.09375 -0.71875 0.265625q-0.25 0.15625 -0.34375 0.375q-0.09375 0.21875 -0.09375 0.453125q0 0.421875 0.359375 0.71875q0.359375 0.296875 0.890625 0.296875q0.390625 0 0.703125 -0.109375q0.3125 -0.125 0.546875 -0.296875q0.234375 -0.1875 0.375 -0.375q0.15625 -0.1875 0.21875 -0.328125q0.125 -0.265625 0.125 -0.703125l0 -0.390625zm2.648407 -3.156248l0.953125 0l0 0.90625q0.296875 -0.484375 0.796875 -0.765625q0.5 -0.28125 1.0 -0.28125q0.5 0 0.9375 0.203125q0.453125 0.1875 0.796875 0.5625q0.34375 0.375 0.546875 0.953125q0.203125 0.5624981 0.203125 1.3437481q0 0.78125 -0.21875 1.375q-0.203125 0.59375 -0.5625 1.0q-0.34375 0.390625 -0.796875 0.59375q-0.453125 0.203125 -0.921875 0.203125q-0.53125 0 -1.0 -0.25q-0.46875 -0.25 -0.78125 -0.6875l0 2.953125l-0.953125 0l0 -8.109373zm0.953125 3.468748q0.015625 0.953125 0.4375 1.375q0.421875 0.421875 1.03125 0.421875q0.3125 0 0.640625 -0.109375q0.328125 -0.109375 0.59375 -0.359375q0.28125 -0.25 0.4375 -0.65625q0.171875 -0.421875 0.171875 -1.046875q0 -1.140625 -0.484375 -1.7656231q-0.46875 -0.640625 -1.328125 -0.671875q-0.25 0 -0.53125 0.09375q-0.265625 0.09375 -0.484375 0.3125q-0.21875 0.21875 -0.359375 0.59375q-0.125 0.3749981 -0.125 0.9218731l0 0.890625zm5.710907 -3.468748l0.953125 0l0 0.90625q0.296875 -0.484375 0.796875 -0.765625q0.5 -0.28125 1.0 -0.28125q0.5 0 0.9375 0.203125q0.453125 0.1875 0.796875 0.5625q0.34375 0.375 0.546875 0.953125q0.203125 0.5624981 0.203125 1.3437481q0 0.78125 -0.21875 1.375q-0.203125 0.59375 -0.5625 1.0q-0.34375 0.390625 -0.796875 0.59375q-0.453125 0.203125 -0.921875 0.203125q-0.53125 0 -1.0 -0.25q-0.46875 -0.25 -0.78125 -0.6875l0 2.953125l-0.953125 0l0 -8.109373zm0.953125 3.468748q0.015625 0.953125 0.4375 1.375q0.421875 0.421875 1.03125 0.421875q0.3125 0 0.640625 -0.109375q0.328125 -0.109375 0.59375 -0.359375q0.28125 -0.25 0.4375 -0.65625q0.171875 -0.421875 0.171875 -1.046875q0 -1.140625 -0.484375 -1.7656231q-0.46875 -0.640625 -1.328125 -0.671875q-0.25 0 -0.53125 0.09375q-0.265625 0.09375 -0.484375 0.3125q-0.21875 0.21875 -0.359375 0.59375q-0.125 0.3749981 -0.125 0.9218731l0 0.890625z" fill-rule="nonzero"></path><path fill="#000000" fill-opacity="0.0" d="m293.34647 46.072178l87.212585 0l0 32.47244l-87.212585 0z" fill-rule="nonzero"></path><path stroke="#434343" stroke-width="2.0" stroke-linejoin="round" stroke-linecap="butt" d="m293.34647 46.072178l87.212585 0l0 32.47244l-87.212585 0z" fill-rule="nonzero"></path><path fill="#000000" d="m326.0622 59.57715l1.03125 -0.171875q0 0.125 -0.03125 0.21875q-0.03125 0.09375 -0.046875 0.140625l-0.15625 1.40625l1.953125 0l0 0.765625l-1.953125 0q-0.109375 1.15625 -0.109375 2.171875q0 0.625 0.015625 1.0625q0.03125 0.421875 0.140625 0.671875q0.109375 0.234375 0.3125 0.375q0.21875 0.140625 0.5625 0.140625q0.609375 0 1.328125 -0.53125l0.28125 0.734375q-0.890625 0.65625 -1.84375 0.65625q-0.9375 0 -1.375 -0.5625q-0.421875 -0.5625 -0.375 -1.828125q0 -0.46875 0.015625 -1.203125q0.03125 -0.734375 0.109375 -1.6875l-1.390625 0l0 -0.765625l1.4375 0l0.09375 -1.59375zm7.585907 1.453125q0.46875 0 0.90625 0.171875q0.453125 0.15625 0.78125 0.5q0.328125 0.34375 0.53125 0.890625q0.203125 0.53125 0.203125 1.25q0 0.109375 -0.015625 0.21875q0 0.109375 0 0.21875l-4.234375 0q0.03125 0.625 0.21875 1.046875q0.1875 0.421875 0.46875 0.6875q0.296875 0.25 0.640625 0.359375q0.359375 0.109375 0.703125 0.109375q0.921875 0 1.53125 -0.65625l0.515625 0.5q-0.75 0.90625 -2.078125 0.90625q-0.640625 0 -1.1875 -0.1875q-0.53125 -0.203125 -0.921875 -0.59375q-0.375 -0.390625 -0.578125 -0.96875q-0.203125 -0.578125 -0.203125 -1.328125q0 -0.75 0.203125 -1.328125q0.21875 -0.59375 0.59375 -0.984375q0.375 -0.40625 0.859375 -0.609375q0.5 -0.203125 1.0625 -0.203125zm-1.78125 2.515625l3.265625 0q0 -0.046875 0 -0.09375q0 -0.046875 0 -0.109375q0 -0.328125 -0.125 -0.625q-0.109375 -0.296875 -0.328125 -0.5q-0.203125 -0.21875 -0.484375 -0.34375q-0.28125 -0.140625 -0.609375 -0.140625q-0.609375 0 -1.109375 0.4375q-0.484375 0.4375 -0.609375 1.375zm10.695282 -1.578125l-0.546875 0.8125q-0.0625 -0.015625 -0.0625 -0.109375q0 -0.09375 -0.015625 -0.125q-0.234375 -0.296875 -0.671875 -0.546875q-0.421875 -0.265625 -0.96875 -0.265625q-0.25 0 -0.484375 0.0625q-0.21875 0.0625 -0.40625 0.171875q-0.171875 0.09375 -0.28125 0.265625q-0.09375 0.15625 -0.09375 0.359375q0 0.15625 0.078125 0.28125q0.078125 0.125 0.25 0.25q0.171875 0.109375 0.46875 0.234375q0.3125 0.109375 0.796875 0.25q1.125 0.296875 1.578125 0.71875q0.46875 0.40625 0.46875 1.0q0 0.390625 -0.171875 0.75q-0.171875 0.34375 -0.5 0.609375q-0.3125 0.25 -0.765625 0.40625q-0.453125 0.140625 -1.03125 0.140625q-1.5 0 -2.515625 -0.9375l0.546875 -0.921875q0.03125 0.03125 0.046875 0.125q0.015625 0.078125 0.09375 0.203125q0.078125 0.109375 0.28125 0.265625q0.203125 0.140625 0.640625 0.328125q0.1875 0.078125 0.4375 0.125q0.25 0.03125 0.5 0.03125q0.25 0 0.515625 -0.0625q0.265625 -0.0625 0.484375 -0.1875q0.21875 -0.125 0.34375 -0.296875q0.140625 -0.171875 0.140625 -0.390625q0 -0.34375 -0.3125 -0.578125q-0.3125 -0.234375 -1.15625 -0.484375q-0.5625 -0.171875 -0.75 -0.234375q-0.46875 -0.171875 -0.6875 -0.3125q-0.203125 -0.140625 -0.375 -0.328125q-0.15625 -0.1875 -0.265625 -0.421875q-0.09375 -0.25 -0.09375 -0.53125q0 -0.3125 0.15625 -0.59375q0.171875 -0.296875 0.46875 -0.515625q0.3125 -0.21875 0.734375 -0.34375q0.421875 -0.140625 0.921875 -0.140625q1.359375 0 2.203125 0.9375zm3.492157 -2.390625l1.03125 -0.171875q0 0.125 -0.03125 0.21875q-0.03125 0.09375 -0.046875 0.140625l-0.15625 1.40625l1.953125 0l0 0.765625l-1.953125 0q-0.109375 1.15625 -0.109375 2.171875q0 0.625 0.015625 1.0625q0.03125 0.421875 0.140625 0.671875q0.109375 0.234375 0.3125 0.375q0.21875 0.140625 0.5625 0.140625q0.609375 0 1.328125 -0.53125l0.28125 0.734375q-0.890625 0.65625 -1.84375 0.65625q-0.9375 0 -1.375 -0.5625q-0.421875 -0.5625 -0.375 -1.828125q0 -0.46875 0.015625 -1.203125q0.03125 -0.734375 0.109375 -1.6875l-1.390625 0l0 -0.765625l1.4375 0l0.09375 -1.59375z" fill-rule="nonzero"></path><path fill="#000000" fill-opacity="0.0" d="m305.021 104.09843l87.212585 0l0 32.472435l-87.212585 0z" fill-rule="nonzero"></path><path stroke="#434343" stroke-width="2.0" stroke-linejoin="round" stroke-linecap="butt" d="m305.021 104.09843l87.212585 0l0 32.472435l-87.212585 0z" fill-rule="nonzero"></path><path fill="#000000" d="m334.5727 120.18152l-0.65625 0.765625q-0.0625 -0.03125 -0.0625 -0.078125q0 -0.046875 -0.015625 -0.125q-0.015625 -0.078125 -0.09375 -0.1875q-0.078125 -0.125 -0.3125 -0.328125q-0.4375 -0.359375 -1.203125 -0.359375q-0.375 0 -0.734375 0.15625q-0.34375 0.15625 -0.609375 0.453125q-0.25 0.28125 -0.40625 0.703125q-0.15625 0.40625 -0.15625 0.90625q0 0.515625 0.15625 0.953125q0.15625 0.421875 0.421875 0.734375q0.28125 0.3125 0.65625 0.484375q0.375 0.171875 0.828125 0.171875q0.90625 0 1.546875 -0.734375l0.546875 0.640625q-0.875 0.9375 -2.171875 0.9375q-0.625 0 -1.171875 -0.234375q-0.53125 -0.234375 -0.9375 -0.640625q-0.390625 -0.421875 -0.609375 -0.984375q-0.21875 -0.5625 -0.21875 -1.25q0 -0.65625 0.21875 -1.21875q0.21875 -0.578125 0.609375 -0.984375q0.40625 -0.421875 0.953125 -0.65625q0.546875 -0.234375 1.203125 -0.234375q0.703125 0 1.28125 0.296875q0.578125 0.296875 0.9375 0.8125zm1.835907 -3.6875l2.625 0l0 7.890625l1.734375 0l0 0.75l-4.4375 0l0 -0.75l1.75 0l0 -7.140625l-1.671875 0l0 -0.75zm6.929657 2.703125l2.375 0l0 5.1875l1.390625 0l0 0.75l-3.84375 0l0 -0.75l1.53125 0l0 -4.4375l-1.453125 0l0 -0.75zm1.453125 -2.390625q0.203125 -0.203125 0.46875 -0.203125q0.28125 0 0.484375 0.203125q0.203125 0.203125 0.203125 0.46875q0 0.28125 -0.203125 0.484375q-0.203125 0.1875 -0.484375 0.1875q-0.265625 0 -0.46875 -0.1875q-0.1875 -0.203125 -0.1875 -0.484375q0 -0.28125 0.1875 -0.46875zm7.195282 2.25q0.46875 0 0.90625 0.171875q0.453125 0.15625 0.78125 0.5q0.328125 0.34375 0.53125 0.890625q0.203125 0.53125 0.203125 1.25q0 0.109375 -0.015625 0.21875q0 0.109375 0 0.21875l-4.234375 0q0.03125 0.625 0.21875 1.046875q0.1875 0.421875 0.46875 0.6875q0.296875 0.25 0.640625 0.359375q0.359375 0.109375 0.703125 0.109375q0.921875 0 1.53125 -0.65625l0.515625 0.5q-0.75 0.90625 -2.078125 0.90625q-0.640625 0 -1.1875 -0.1875q-0.53125 -0.203125 -0.921875 -0.59375q-0.375 -0.390625 -0.578125 -0.96875q-0.203125 -0.578125 -0.203125 -1.328125q0 -0.75 0.203125 -1.328125q0.21875 -0.59375 0.59375 -0.984375q0.375 -0.40625 0.859375 -0.609375q0.5 -0.203125 1.0625 -0.203125zm-1.78125 2.515625l3.265625 0q0 -0.046875 0 -0.09375q0 -0.046875 0 -0.109375q0 -0.328125 -0.125 -0.625q-0.109375 -0.296875 -0.328125 -0.5q-0.203125 -0.21875 -0.484375 -0.34375q-0.28125 -0.140625 -0.609375 -0.140625q-0.609375 0 -1.109375 0.4375q-0.484375 0.4375 -0.609375 1.375zm5.976532 3.5625l0 -5.9375l0.953125 0l0 1.046875q0.34375 -0.546875 0.859375 -0.859375q0.53125 -0.328125 1.078125 -0.328125q0.390625 0 0.71875 0.140625q0.34375 0.125 0.59375 0.421875q0.25 0.296875 0.375 0.765625q0.140625 0.46875 0.140625 1.15625l0 3.59375l-0.921875 0l0 -3.578125q0 -0.9375 -0.3125 -1.3125q-0.3125 -0.375 -0.78125 -0.375q-0.296875 0 -0.609375 0.140625q-0.3125 0.125 -0.5625 0.359375q-0.25 0.234375 -0.421875 0.578125q-0.15625 0.34375 -0.15625 0.765625l0 3.421875l-0.953125 0zm8.210907 -7.53125l1.03125 -0.171875q0 0.125 -0.03125 0.21875q-0.03125 0.09375 -0.046875 0.140625l-0.15625 1.40625l1.953125 0l0 0.765625l-1.953125 0q-0.109375 1.15625 -0.109375 2.171875q0 0.625 0.015625 1.0625q0.03125 0.421875 0.140625 0.671875q0.109375 0.234375 0.3125 0.375q0.21875 0.140625 0.5625 0.140625q0.609375 0 1.328125 -0.53125l0.28125 0.734375q-0.890625 0.65625 -1.84375 0.65625q-0.9375 0 -1.375 -0.5625q-0.421875 -0.5625 -0.375 -1.828125q0 -0.46875 0.015625 -1.203125q0.03125 -0.734375 0.109375 -1.6875l-1.390625 0l0 -0.765625l1.4375 0l0.09375 -1.59375z" fill-rule="nonzero"></path><path fill="#000000" fill-opacity="0.0" d="m293.34647 162.12466l87.212585 0l0 32.472443l-87.212585 0z" fill-rule="nonzero"></path><path stroke="#434343" stroke-width="2.0" stroke-linejoin="round" stroke-linecap="butt" d="m293.34647 162.12466l87.212585 0l0 32.472443l-87.212585 0z" fill-rule="nonzero"></path><path fill="#000000" d="m326.0622 175.62964l1.03125 -0.171875q0 0.125 -0.03125 0.21875q-0.03125 0.09375 -0.046875 0.140625l-0.15625 1.40625l1.953125 0l0 0.765625l-1.953125 0q-0.109375 1.15625 -0.109375 2.171875q0 0.625 0.015625 1.0625q0.03125 0.421875 0.140625 0.671875q0.109375 0.234375 0.3125 0.375q0.21875 0.140625 0.5625 0.140625q0.609375 0 1.328125 -0.53125l0.28125 0.734375q-0.890625 0.65625 -1.84375 0.65625q-0.9375 0 -1.375 -0.5625q-0.421875 -0.5625 -0.375 -1.828125q0 -0.46875 0.015625 -1.203125q0.03125 -0.734375 0.109375 -1.6875l-1.390625 0l0 -0.765625l1.4375 0l0.09375 -1.59375zm7.523407 1.453125q0.546875 0 1.03125 0.21875q0.5 0.21875 0.859375 0.625q0.359375 0.390625 0.578125 0.984375q0.21875 0.578125 0.21875 1.28125q0 0.734375 -0.21875 1.3125q-0.203125 0.5625 -0.5625 0.984375q-0.359375 0.40625 -0.859375 0.625q-0.5 0.203125 -1.0625 0.203125q-0.5625 0 -1.0625 -0.234375q-0.5 -0.234375 -0.875 -0.640625q-0.375 -0.40625 -0.609375 -0.984375q-0.21875 -0.578125 -0.21875 -1.234375q0 -0.65625 0.21875 -1.234375q0.234375 -0.59375 0.609375 -1.0q0.390625 -0.421875 0.890625 -0.65625q0.515625 -0.25 1.0625 -0.25zm1.75 3.140625q0 -0.5625 -0.15625 -1.0q-0.140625 -0.4375 -0.390625 -0.734375q-0.25 -0.296875 -0.578125 -0.453125q-0.3125 -0.15625 -0.65625 -0.15625q-0.359375 0 -0.671875 0.15625q-0.3125 0.15625 -0.5625 0.453125q-0.234375 0.296875 -0.375 0.734375q-0.140625 0.421875 -0.140625 0.953125q0 0.515625 0.140625 0.953125q0.140625 0.421875 0.375 0.734375q0.25 0.3125 0.5625 0.484375q0.328125 0.15625 0.6875 0.15625q0.375 0 0.6875 -0.140625q0.328125 -0.15625 0.5625 -0.4375q0.234375 -0.296875 0.375 -0.71875q0.140625 -0.4375 0.140625 -0.984375zm4.914032 -3.140625q0.546875 0 1.03125 0.21875q0.5 0.21875 0.859375 0.625q0.359375 0.390625 0.578125 0.984375q0.21875 0.578125 0.21875 1.28125q0 0.734375 -0.21875 1.3125q-0.203125 0.5625 -0.5625 0.984375q-0.359375 0.40625 -0.859375 0.625q-0.5 0.203125 -1.0625 0.203125q-0.5625 0 -1.0625 -0.234375q-0.5 -0.234375 -0.875 -0.640625q-0.375 -0.40625 -0.609375 -0.984375q-0.21875 -0.578125 -0.21875 -1.234375q0 -0.65625 0.21875 -1.234375q0.234375 -0.59375 0.609375 -1.0q0.390625 -0.421875 0.890625 -0.65625q0.515625 -0.25 1.0625 -0.25zm1.75 3.140625q0 -0.5625 -0.15625 -1.0q-0.140625 -0.4375 -0.390625 -0.734375q-0.25 -0.296875 -0.578125 -0.453125q-0.3125 -0.15625 -0.65625 -0.15625q-0.359375 0 -0.671875 0.15625q-0.3125 0.15625 -0.5625 0.453125q-0.234375 0.296875 -0.375 0.734375q-0.140625 0.421875 -0.140625 0.953125q0 0.515625 0.140625 0.953125q0.140625 0.421875 0.375 0.734375q0.25 0.3125 0.5625 0.484375q0.328125 0.15625 0.6875 0.15625q0.375 0 0.6875 -0.140625q0.328125 -0.15625 0.5625 -0.4375q0.234375 -0.296875 0.375 -0.71875q0.140625 -0.4375 0.140625 -0.984375zm2.726532 -5.703125l2.625 0l0 7.890625l1.734375 0l0 0.75l-4.4375 0l0 -0.75l1.75 0l0 -7.140625l-1.671875 0l0 -0.75z" fill-rule="nonzero"></path><path fill="#000000" fill-opacity="0.0" d="m185.38846 193.0433l87.212585 0l0 32.472443l-87.212585 0z" fill-rule="nonzero"></path><path stroke="#434343" stroke-width="2.0" stroke-linejoin="round" stroke-linecap="butt" d="m185.38846 193.0433l87.212585 0l0 32.472443l-87.212585 0z" fill-rule="nonzero"></path><path fill="#000000" d="m211.32689 206.9389l-0.578125 0.78125q-0.0625 -0.03125 -0.078125 -0.109375q0 -0.078125 -0.015625 -0.125q-0.25 -0.359375 -0.671875 -0.578125q-0.421875 -0.21875 -1.046875 -0.21875q-0.59375 0 -1.0 0.359375q-0.390625 0.34375 -0.390625 0.8125q0 0.296875 0.09375 0.5q0.09375 0.203125 0.296875 0.40625q0.203125 0.1875 0.59375 0.390625q0.390625 0.203125 1.015625 0.453125q0.59375 0.25 0.984375 0.484375q0.390625 0.234375 0.625 0.515625q0.234375 0.265625 0.328125 0.578125q0.109375 0.296875 0.109375 0.6875q0 0.40625 -0.15625 0.828125q-0.15625 0.421875 -0.5 0.765625q-0.328125 0.328125 -0.84375 0.53125q-0.5 0.203125 -1.203125 0.203125q-1.578125 0 -2.546875 -1.03125l0.53125 -0.9375q0.078125 0.03125 0.078125 0.125q0 0.09375 0.03125 0.140625q0.296875 0.375 0.796875 0.640625q0.515625 0.25 1.234375 0.25q0.359375 0 0.65625 -0.125q0.3125 -0.125 0.53125 -0.328125q0.234375 -0.203125 0.359375 -0.46875q0.125 -0.28125 0.125 -0.59375q0 -0.25 -0.09375 -0.453125q-0.078125 -0.203125 -0.28125 -0.375q-0.1875 -0.1875 -0.546875 -0.359375q-0.34375 -0.171875 -0.9375 -0.40625q-0.640625 -0.25 -1.0625 -0.5q-0.421875 -0.25 -0.6875 -0.5q-0.25 -0.265625 -0.359375 -0.5625q-0.109375 -0.3125 -0.109375 -0.65625q0 -0.453125 0.1875 -0.828125q0.1875 -0.390625 0.515625 -0.6875q0.328125 -0.296875 0.78125 -0.453125q0.46875 -0.171875 0.984375 -0.171875q0.65625 0 1.234375 0.265625q0.59375 0.265625 1.015625 0.75zm1.210907 1.203125l0.953125 0l0 0.046875q0 0.078125 -0.03125 0.1875q-0.015625 0.09375 -0.015625 0.171875q0 0.0625 0.015625 0.078125l0.859375 4.28125l1.015625 -4.203125l0.578125 0l1.265625 4.1875q0.15625 -1.140625 0.265625 -1.875q0.109375 -0.75 0.171875 -1.234375q0.0625 -0.484375 0.078125 -0.796875q0.015625 -0.328125 0.015625 -0.65625l0 -0.1875l0.875 0q-0.1875 1.5 -0.4375 2.984375q-0.25 1.484375 -0.546875 2.96875l-0.890625 0l-1.09375 -3.84375l-1.03125 3.84375l-0.84375 0l-1.203125 -5.953125zm7.648407 0.703125q0.78125 -0.84375 2.109375 -0.84375q1.09375 0 1.71875 0.5625q0.640625 0.546875 0.640625 1.84375l0 3.671875l-0.890625 0l0 -0.65625q-0.9375 0.796875 -2.125 0.796875q-0.46875 0 -0.84375 -0.140625q-0.359375 -0.140625 -0.625 -0.375q-0.265625 -0.234375 -0.40625 -0.53125q-0.125 -0.296875 -0.125 -0.609375q0 -0.890625 0.765625 -1.40625q0.78125 -0.515625 2.234375 -0.578125l1.125 0l0 -0.21875q0 -0.890625 -0.375 -1.234375q-0.375 -0.34375 -1.15625 -0.34375q-0.953125 0 -1.59375 0.65625l-0.453125 -0.59375zm3.609375 2.453125l-0.21875 0q-0.1875 0 -0.359375 0q-0.15625 -0.015625 -0.3125 -0.015625q-0.703125 0 -1.171875 0.109375q-0.453125 0.09375 -0.71875 0.265625q-0.25 0.15625 -0.34375 0.375q-0.09375 0.21875 -0.09375 0.453125q0 0.421875 0.359375 0.71875q0.359375 0.296875 0.890625 0.296875q0.390625 0 0.703125 -0.109375q0.3125 -0.125 0.546875 -0.296875q0.234375 -0.1875 0.375 -0.375q0.15625 -0.1875 0.21875 -0.328125q0.125 -0.265625 0.125 -0.703125l0 -0.390625zm3.882782 -2.21875q-0.203125 0.1875 -0.296875 0.421875q-0.078125 0.234375 -0.078125 0.5q0 0.25 0.09375 0.5q0.109375 0.234375 0.28125 0.421875q0.1875 0.171875 0.421875 0.28125q0.234375 0.09375 0.5 0.09375q0.28125 0 0.5 -0.09375q0.234375 -0.109375 0.421875 -0.296875q0.1875 -0.1875 0.28125 -0.421875q0.109375 -0.234375 0.109375 -0.484375q0 -0.265625 -0.109375 -0.5q-0.09375 -0.25 -0.28125 -0.421875q-0.1875 -0.1875 -0.421875 -0.28125q-0.234375 -0.109375 -0.5 -0.109375q-0.53125 0 -0.921875 0.390625zm2.390625 -0.5625q0.625 -0.53125 1.484375 -0.53125l0.171875 0l0.109375 0.765625q-0.09375 -0.015625 -0.171875 -0.015625q-0.078125 -0.015625 -0.171875 -0.015625q-0.578125 0 -1.03125 0.296875q0.296875 0.453125 0.296875 1.0q0 0.40625 -0.171875 0.78125q-0.15625 0.375 -0.453125 0.65625q-0.296875 0.265625 -0.6875 0.4375q-0.390625 0.15625 -0.828125 0.15625q-0.359375 0 -0.75 -0.140625q-0.421875 0.40625 -0.421875 0.671875q0 0.21875 0.25 0.34375q0.25 0.125 0.703125 0.125q0.25 0 0.5 -0.015625q0.25 -0.015625 0.46875 -0.015625q0.59375 0 1.015625 0.109375q0.421875 0.109375 0.671875 0.3125q0.265625 0.203125 0.390625 0.484375q0.140625 0.265625 0.140625 0.578125q0 0.34375 -0.171875 0.671875q-0.171875 0.34375 -0.515625 0.59375q-0.328125 0.25 -0.84375 0.390625q-0.515625 0.15625 -1.203125 0.15625q-0.71875 0 -1.234375 -0.109375q-0.515625 -0.109375 -0.828125 -0.3125q-0.3125 -0.1875 -0.46875 -0.4375q-0.15625 -0.25 -0.15625 -0.546875q0 -0.703125 0.96875 -1.3125q-0.484375 -0.25 -0.484375 -0.8125q0 -0.5625 0.671875 -1.125q-0.40625 -0.265625 -0.640625 -0.6875q-0.234375 -0.4375 -0.234375 -0.921875q0 -0.4375 0.171875 -0.8125q0.1875 -0.390625 0.484375 -0.671875q0.3125 -0.296875 0.703125 -0.453125q0.40625 -0.171875 0.828125 -0.171875q0.859375 0 1.4375 0.578125zm-2.3125 5.25q-0.734375 0.421875 -0.734375 0.90625q0 0.265625 0.140625 0.4375q0.15625 0.171875 0.40625 0.28125q0.25 0.125 0.59375 0.171875q0.34375 0.046875 0.71875 0.046875q0.796875 0 1.3125 -0.28125q0.53125 -0.28125 0.53125 -0.765625q-0.03125 -0.359375 -0.296875 -0.546875q-0.265625 -0.203125 -0.84375 -0.203125q-0.0625 0 -0.125 0.015625q-0.0625 0 -0.125 0q-0.5 0 -0.890625 -0.015625q-0.390625 -0.015625 -0.6875 -0.046875zm6.585907 -4.6875q-0.203125 0.1875 -0.296875 0.421875q-0.078125 0.234375 -0.078125 0.5q0 0.25 0.09375 0.5q0.109375 0.234375 0.28125 0.421875q0.1875 0.171875 0.421875 0.28125q0.234375 0.09375 0.5 0.09375q0.28125 0 0.5 -0.09375q0.234375 -0.109375 0.421875 -0.296875q0.1875 -0.1875 0.28125 -0.421875q0.109375 -0.234375 0.109375 -0.484375q0 -0.265625 -0.109375 -0.5q-0.09375 -0.25 -0.28125 -0.421875q-0.1875 -0.1875 -0.421875 -0.28125q-0.234375 -0.109375 -0.5 -0.109375q-0.53125 0 -0.921875 0.390625zm2.390625 -0.5625q0.625 -0.53125 1.484375 -0.53125l0.171875 0l0.109375 0.765625q-0.09375 -0.015625 -0.171875 -0.015625q-0.078125 -0.015625 -0.171875 -0.015625q-0.578125 0 -1.03125 0.296875q0.296875 0.453125 0.296875 1.0q0 0.40625 -0.171875 0.78125q-0.15625 0.375 -0.453125 0.65625q-0.296875 0.265625 -0.6875 0.4375q-0.390625 0.15625 -0.828125 0.15625q-0.359375 0 -0.75 -0.140625q-0.421875 0.40625 -0.421875 0.671875q0 0.21875 0.25 0.34375q0.25 0.125 0.703125 0.125q0.25 0 0.5 -0.015625q0.25 -0.015625 0.46875 -0.015625q0.59375 0 1.015625 0.109375q0.421875 0.109375 0.671875 0.3125q0.265625 0.203125 0.390625 0.484375q0.140625 0.265625 0.140625 0.578125q0 0.34375 -0.171875 0.671875q-0.171875 0.34375 -0.515625 0.59375q-0.328125 0.25 -0.84375 0.390625q-0.515625 0.15625 -1.203125 0.15625q-0.71875 0 -1.234375 -0.109375q-0.515625 -0.109375 -0.828125 -0.3125q-0.3125 -0.1875 -0.46875 -0.4375q-0.15625 -0.25 -0.15625 -0.546875q0 -0.703125 0.96875 -1.3125q-0.484375 -0.25 -0.484375 -0.8125q0 -0.5625 0.671875 -1.125q-0.40625 -0.265625 -0.640625 -0.6875q-0.234375 -0.4375 -0.234375 -0.921875q0 -0.4375 0.171875 -0.8125q0.1875 -0.390625 0.484375 -0.671875q0.3125 -0.296875 0.703125 -0.453125q0.40625 -0.171875 0.828125 -0.171875q0.859375 0 1.4375 0.578125zm-2.3125 5.25q-0.734375 0.421875 -0.734375 0.90625q0 0.265625 0.140625 0.4375q0.15625 0.171875 0.40625 0.28125q0.25 0.125 0.59375 0.171875q0.34375 0.046875 0.71875 0.046875q0.796875 0 1.3125 -0.28125q0.53125 -0.28125 0.53125 -0.765625q-0.03125 -0.359375 -0.296875 -0.546875q-0.265625 -0.203125 -0.84375 -0.203125q-0.0625 0 -0.125 0.015625q-0.0625 0 -0.125 0q-0.5 0 -0.890625 -0.015625q-0.390625 -0.015625 -0.6875 -0.046875zm7.929657 -5.765625q0.46875 0 0.90625 0.171875q0.453125 0.15625 0.78125 0.5q0.328125 0.34375 0.53125 0.890625q0.203125 0.53125 0.203125 1.25q0 0.109375 -0.015625 0.21875q0 0.109375 0 0.21875l-4.234375 0q0.03125 0.625 0.21875 1.046875q0.1875 0.421875 0.46875 0.6875q0.296875 0.25 0.640625 0.359375q0.359375 0.109375 0.703125 0.109375q0.921875 0 1.53125 -0.65625l0.515625 0.5q-0.75 0.90625 -2.078125 0.90625q-0.640625 0 -1.1875 -0.1875q-0.53125 -0.203125 -0.921875 -0.59375q-0.375 -0.390625 -0.578125 -0.96875q-0.203125 -0.578125 -0.203125 -1.328125q0 -0.75 0.203125 -1.328125q0.21875 -0.59375 0.59375 -0.984375q0.375 -0.40625 0.859375 -0.609375q0.5 -0.203125 1.0625 -0.203125zm-1.78125 2.515625l3.265625 0q0 -0.046875 0 -0.09375q0 -0.046875 0 -0.109375q0 -0.328125 -0.125 -0.625q-0.109375 -0.296875 -0.328125 -0.5q-0.203125 -0.21875 -0.484375 -0.34375q-0.28125 -0.140625 -0.609375 -0.140625q-0.609375 0 -1.109375 0.4375q-0.484375 0.4375 -0.609375 1.375zm6.367157 -2.375l0.984375 0l-0.03125 1.140625q0.28125 -0.625 0.859375 -0.953125q0.59375 -0.328125 1.28125 -0.328125q0.953125 0 1.578125 0.640625l-0.421875 0.90625q-0.15625 -0.203125 -0.28125 -0.328125q-0.109375 -0.125 -0.25 -0.21875q-0.125 -0.09375 -0.296875 -0.140625q-0.15625 -0.0625 -0.390625 -0.0625q-0.421875 0 -0.796875 0.203125q-0.375 0.203125 -0.65625 0.53125q-0.28125 0.328125 -0.453125 0.765625q-0.171875 0.421875 -0.171875 0.890625l0 2.90625l-0.953125 0l0 -5.953125z" fill-rule="nonzero"></path><path fill="#000000" fill-opacity="0.0" d="m77.43044 162.12466l87.21261 0l0 32.472443l-87.21261 0z" fill-rule="nonzero"></path><path stroke="#434343" stroke-width="2.0" stroke-linejoin="round" stroke-linecap="butt" d="m77.43044 162.12466l87.21261 0l0 32.472443l-87.21261 0z" fill-rule="nonzero"></path><path fill="#000000" d="m109.943054 167.06714l3.703125 0l0 0.765625l-1.25 0l0 4.609375q0 0.796875 -0.15625 1.328125q-0.140625 0.53125 -0.46875 0.890625q-0.3125 0.34375 -0.703125 0.5q-0.375 0.140625 -0.8125 0.140625q-1.15625 0 -1.90625 -0.890625l0.609375 -0.75q0.03125 0.046875 0.03125 0.140625q0.015625 0.078125 0.0625 0.125l0.15625 0.15625q0.046875 0.0625 0.15625 0.140625q0.125 0.0625 0.265625 0.125q0.15625 0.0625 0.3125 0.109375q0.15625 0.046875 0.3125 0.046875q0.65625 0 0.953125 -0.453125q0.296875 -0.46875 0.296875 -1.59375l0 -4.625l-1.5625 0l0 -0.765625zm10.085907 0.953125l-0.578125 0.78125q-0.0625 -0.03125 -0.078125 -0.109375q0 -0.078125 -0.015625 -0.125q-0.25 -0.359375 -0.671875 -0.578125q-0.421875 -0.21875 -1.046875 -0.21875q-0.59375 0 -1.0 0.359375q-0.390625 0.34375 -0.390625 0.8125q0 0.296875 0.09375 0.5q0.09375 0.203125 0.296875 0.40625q0.203125 0.1875 0.59375 0.390625q0.390625 0.203125 1.015625 0.453125q0.59375 0.25 0.984375 0.484375q0.390625 0.234375 0.625 0.515625q0.234375 0.265625 0.328125 0.578125q0.109375 0.296875 0.109375 0.6875q0 0.40625 -0.15625 0.828125q-0.15625 0.421875 -0.5 0.765625q-0.328125 0.328125 -0.84375 0.53125q-0.5 0.203125 -1.203125 0.203125q-1.578125 0 -2.546875 -1.03125l0.53125 -0.9375q0.078125 0.03125 0.078125 0.125q0 0.09375 0.03125 0.140625q0.296875 0.375 0.796875 0.640625q0.515625 0.25 1.234375 0.25q0.359375 0 0.65625 -0.125q0.3125 -0.125 0.53125 -0.328125q0.234375 -0.203125 0.359375 -0.46875q0.125 -0.28125 0.125 -0.59375q0 -0.25 -0.09375 -0.453125q-0.078125 -0.203125 -0.28125 -0.375q-0.1875 -0.1875 -0.546875 -0.359375q-0.34375 -0.171875 -0.9375 -0.40625q-0.640625 -0.25 -1.0625 -0.5q-0.421875 -0.25 -0.6875 -0.5q-0.25 -0.265625 -0.359375 -0.5625q-0.109375 -0.3125 -0.109375 -0.65625q0 -0.453125 0.1875 -0.828125q0.1875 -0.390625 0.515625 -0.6875q0.328125 -0.296875 0.78125 -0.453125q0.46875 -0.171875 0.984375 -0.171875q0.65625 0 1.234375 0.265625q0.59375 0.265625 1.015625 0.75zm4.304657 7.265625q-0.65625 0 -1.203125 -0.296875q-0.53125 -0.3125 -0.921875 -0.859375q-0.375 -0.5625 -0.59375 -1.328125q-0.203125 -0.78125 -0.203125 -1.703125q0 -0.9375 0.21875 -1.703125q0.21875 -0.765625 0.609375 -1.296875q0.390625 -0.546875 0.921875 -0.828125q0.546875 -0.296875 1.203125 -0.296875q0.578125 0 1.0625 0.25q0.5 0.234375 0.90625 0.75q0.40625 0.5 0.609375 1.28125q0.21875 0.765625 0.21875 1.84375q0 1.171875 -0.25 1.984375q-0.25 0.796875 -0.65625 1.296875q-0.390625 0.484375 -0.890625 0.703125q-0.5 0.203125 -1.03125 0.203125zm-1.34375 -1.625q0.609375 0.734375 1.34375 0.734375q0.359375 0 0.6875 -0.140625q0.34375 -0.15625 0.625 -0.53125q0.28125 -0.375 0.4375 -1.015625q0.171875 -0.640625 0.171875 -1.625q0 -0.96875 -0.1875 -1.578125q-0.1875 -0.625 -0.46875 -0.984375q-0.265625 -0.359375 -0.578125 -0.515625q-0.3125 -0.171875 -0.65625 -0.171875q-0.40625 -0.015625 -0.75 0.140625q-0.328125 0.15625 -0.625 0.515625q-0.296875 0.34375 -0.484375 0.953125q-0.1875 0.609375 -0.1875 1.578125q0 0.890625 0.1875 1.578125q0.1875 0.6875 0.484375 1.0625zm5.367157 1.5l0 -8.09375l0.875 0l3.40625 6.0l0 -6.015625l0.96875 0q0 0.078125 -0.046875 0.171875q-0.046875 0.078125 -0.046875 0.171875l0 7.765625l-0.71875 0l-3.578125 -6.375l0 6.375l-0.859375 0z" fill-rule="nonzero"></path><path fill="#000000" d="m106.7009 184.02026l-0.578125 0.78125q-0.0625 -0.03125 -0.078125 -0.109375q0 -0.078125 -0.015625 -0.125q-0.25 -0.359375 -0.671875 -0.578125q-0.421875 -0.21875 -1.046875 -0.21875q-0.59375 0 -1.0 0.359375q-0.390625 0.34375 -0.390625 0.8125q0 0.296875 0.09375 0.5q0.09375 0.203125 0.296875 0.40625q0.203125 0.1875 0.59375 0.390625q0.390625 0.203125 1.015625 0.453125q0.59375 0.25 0.984375 0.484375q0.390625 0.234375 0.625 0.515625q0.234375 0.265625 0.328125 0.578125q0.109375 0.296875 0.109375 0.6875q0 0.40625 -0.15625 0.828125q-0.15625 0.421875 -0.5 0.765625q-0.328125 0.328125 -0.84375 0.53125q-0.5 0.203125 -1.203125 0.203125q-1.578125 0 -2.546875 -1.03125l0.53125 -0.9375q0.078125 0.03125 0.078125 0.125q0 0.09375 0.03125 0.140625q0.296875 0.375 0.796875 0.640625q0.515625 0.25 1.234375 0.25q0.359375 0 0.65625 -0.125q0.3125 -0.125 0.53125 -0.328125q0.234375 -0.203125 0.359375 -0.46875q0.125 -0.28125 0.125 -0.59375q0 -0.25 -0.09375 -0.453125q-0.078125 -0.203125 -0.28125 -0.375q-0.1875 -0.1875 -0.546875 -0.359375q-0.34375 -0.171875 -0.9375 -0.40625q-0.640625 -0.25 -1.0625 -0.5q-0.421875 -0.25 -0.6875 -0.5q-0.25 -0.265625 -0.359375 -0.5625q-0.109375 -0.3125 -0.109375 -0.65625q0 -0.453125 0.1875 -0.828125q0.1875 -0.390625 0.515625 -0.6875q0.328125 -0.296875 0.78125 -0.453125q0.46875 -0.171875 0.984375 -0.171875q0.65625 0 1.234375 0.265625q0.59375 0.265625 1.015625 0.75zm6.945282 2.1875l-0.65625 0.765625q-0.0625 -0.03125 -0.0625 -0.078125q0 -0.046875 -0.015625 -0.125q-0.015625 -0.078125 -0.09375 -0.1875q-0.078125 -0.125 -0.3125 -0.328125q-0.4375 -0.359375 -1.203125 -0.359375q-0.375 0 -0.734375 0.15625q-0.34375 0.15625 -0.609375 0.453125q-0.25 0.28125 -0.40625 0.703125q-0.15625 0.40625 -0.15625 0.90625q0 0.515625 0.15625 0.953125q0.15625 0.421875 0.421875 0.734375q0.28125 0.3125 0.65625 0.484375q0.375 0.171875 0.828125 0.171875q0.90625 0 1.546875 -0.734375l0.546875 0.640625q-0.875 0.9375 -2.171875 0.9375q-0.625 0 -1.171875 -0.234375q-0.53125 -0.234375 -0.9375 -0.640625q-0.390625 -0.421875 -0.609375 -0.984375q-0.21875 -0.5625 -0.21875 -1.25q0 -0.65625 0.21875 -1.21875q0.21875 -0.578125 0.609375 -0.984375q0.40625 -0.421875 0.953125 -0.65625q0.546875 -0.234375 1.203125 -0.234375q0.703125 0 1.28125 0.296875q0.578125 0.296875 0.9375 0.8125zm1.632782 4.953125l0 -8.640625l1.078125 0q0 0.015625 0 0.015625q0.015625 0 0.015625 0q0 0.046875 -0.0625 0.125q-0.046875 0.0625 -0.078125 0.171875l0 3.4375q0.34375 -0.546875 0.875 -0.859375q0.53125 -0.328125 1.078125 -0.328125q0.40625 0 0.734375 0.140625q0.328125 0.125 0.578125 0.421875q0.25 0.296875 0.375 0.765625q0.125 0.46875 0.125 1.15625l0 3.59375l-0.921875 0l0 -3.578125q0 -0.9375 -0.328125 -1.3125q-0.3125 -0.375 -0.765625 -0.375q-0.296875 0 -0.59375 0.140625q-0.296875 0.125 -0.578125 0.359375q-0.28125 0.234375 -0.4375 0.578125q-0.140625 0.328125 -0.140625 0.765625l0 3.421875l-0.953125 0zm9.117157 -6.078125q0.46875 0 0.90625 0.171875q0.453125 0.15625 0.78125 0.5q0.328125 0.34375 0.53125 0.890625q0.203125 0.53125 0.203125 1.25q0 0.109375 -0.015625 0.21875q0 0.109375 0 0.21875l-4.234375 0q0.03125 0.625 0.21875 1.046875q0.1875 0.421875 0.46875 0.6875q0.296875 0.25 0.640625 0.359375q0.359375 0.109375 0.703125 0.109375q0.921875 0 1.53125 -0.65625l0.515625 0.5q-0.75 0.90625 -2.078125 0.90625q-0.640625 0 -1.1875 -0.1875q-0.53125 -0.203125 -0.921875 -0.59375q-0.375 -0.390625 -0.578125 -0.96875q-0.203125 -0.578125 -0.203125 -1.328125q0 -0.75 0.203125 -1.328125q0.21875 -0.59375 0.59375 -0.984375q0.375 -0.40625 0.859375 -0.609375q0.5 -0.203125 1.0625 -0.203125zm-1.78125 2.515625l3.265625 0q0 -0.046875 0 -0.09375q0 -0.046875 0 -0.109375q0 -0.328125 -0.125 -0.625q-0.109375 -0.296875 -0.328125 -0.5q-0.203125 -0.21875 -0.484375 -0.34375q-0.28125 -0.140625 -0.609375 -0.140625q-0.609375 0 -1.109375 0.4375q-0.484375 0.4375 -0.609375 1.375zm5.585907 3.5625l0 -5.9375l0.859375 0l0 0.578125q0.203125 -0.328125 0.515625 -0.515625q0.328125 -0.203125 0.703125 -0.203125q0.375 0 0.65625 0.25q0.296875 0.234375 0.375 0.609375q0.171875 -0.390625 0.53125 -0.625q0.375 -0.234375 0.796875 -0.234375q0.609375 0 0.890625 0.4375q0.296875 0.421875 0.265625 1.078125l0 4.5625l-0.859375 0l0 -4.21875q0 -0.390625 -0.046875 -0.625q-0.03125 -0.234375 -0.125 -0.359375q-0.078125 -0.125 -0.171875 -0.15625q-0.09375 -0.03125 -0.234375 -0.03125q-0.171875 0 -0.34375 0.140625q-0.171875 0.125 -0.296875 0.34375q-0.125 0.203125 -0.203125 0.46875q-0.078125 0.265625 -0.078125 0.515625l0 3.921875l-0.875 0l0 -4.140625q0 -0.734375 -0.140625 -0.984375q-0.125 -0.25 -0.46875 -0.25q-0.3125 0 -0.609375 0.375q-0.28125 0.375 -0.28125 1.03125l0 3.96875l-0.859375 0zm7.351532 -5.234375q0.78125 -0.84375 2.109375 -0.84375q1.09375 0 1.71875 0.5625q0.640625 0.546875 0.640625 1.84375l0 3.671875l-0.890625 0l0 -0.65625q-0.9375 0.796875 -2.125 0.796875q-0.46875 0 -0.84375 -0.140625q-0.359375 -0.140625 -0.625 -0.375q-0.265625 -0.234375 -0.40625 -0.53125q-0.125 -0.296875 -0.125 -0.609375q0 -0.890625 0.765625 -1.40625q0.78125 -0.515625 2.234375 -0.578125l1.125 0l0 -0.21875q0 -0.890625 -0.375 -1.234375q-0.375 -0.34375 -1.15625 -0.34375q-0.953125 0 -1.59375 0.65625l-0.453125 -0.59375zm3.609375 2.453125l-0.21875 0q-0.1875 0 -0.359375 0q-0.15625 -0.015625 -0.3125 -0.015625q-0.703125 0 -1.171875 0.109375q-0.453125 0.09375 -0.71875 0.265625q-0.25 0.15625 -0.34375 0.375q-0.09375 0.21875 -0.09375 0.453125q0 0.421875 0.359375 0.71875q0.359375 0.296875 0.890625 0.296875q0.390625 0 0.703125 -0.109375q0.3125 -0.125 0.546875 -0.296875q0.234375 -0.1875 0.375 -0.375q0.15625 -0.1875 0.21875 -0.328125q0.125 -0.265625 0.125 -0.703125l0 -0.390625z" fill-rule="nonzero"></path><path fill="#000000" fill-opacity="0.0" d="m77.43044 46.072178l87.21261 0l0 32.47244l-87.21261 0z" fill-rule="nonzero"></path><path stroke="#434343" stroke-width="2.0" stroke-linejoin="round" stroke-linecap="butt" d="m77.43044 46.072178l87.21261 0l0 32.47244l-87.21261 0z" fill-rule="nonzero"></path><path fill="#000000" d="m114.68132 65.9834q0.234375 0.234375 0.234375 0.53125q0 0.296875 -0.234375 0.515625q-0.21875 0.21875 -0.546875 0.21875q-0.328125 0 -0.546875 -0.203125q-0.21875 -0.21875 -0.21875 -0.53125q0 -0.3125 0.234375 -0.53125q0.234375 -0.234375 0.53125 -0.234375q0.296875 0 0.546875 0.234375zm6.664032 0q0.234375 0.234375 0.234375 0.53125q0 0.296875 -0.234375 0.515625q-0.21875 0.21875 -0.546875 0.21875q-0.328125 0 -0.546875 -0.203125q-0.21875 -0.21875 -0.21875 -0.53125q0 -0.3125 0.234375 -0.53125q0.234375 -0.234375 0.53125 -0.234375q0.296875 0 0.546875 0.234375zm6.664032 0q0.234375 0.234375 0.234375 0.53125q0 0.296875 -0.234375 0.515625q-0.21875 0.21875 -0.546875 0.21875q-0.328125 0 -0.546875 -0.203125q-0.21875 -0.21875 -0.21875 -0.53125q0 -0.3125 0.234375 -0.53125q0.234375 -0.234375 0.53125 -0.234375q0.296875 0 0.546875 0.234375z" fill-rule="nonzero"></path><path fill="#000000" fill-opacity="0.0" d="m228.99475 104.09974l0 -56.472443" fill-rule="nonzero"></path><path stroke="#000000" stroke-width="1.0" stroke-linejoin="round" stroke-linecap="butt" d="m228.99475 104.09974l0 -53.045353" fill-rule="evenodd"></path><path fill="#000000" stroke="#000000" stroke-width="1.0" stroke-linecap="butt" d="m228.99475 51.054382l1.124588 1.1245842l-1.124588 -3.0897675l-1.124588 3.0897675z" fill-rule="evenodd"></path><path fill="#000000" fill-opacity="0.0" d="m262.86877 120.33596l30.48819 -58.01575" fill-rule="nonzero"></path><path stroke="#000000" stroke-width="1.0" stroke-linejoin="round" stroke-linecap="butt" d="m262.86877 120.33596l28.89392 -54.982063" fill-rule="evenodd"></path><path fill="#000000" stroke="#000000" stroke-width="1.0" stroke-linecap="butt" d="m291.7627 65.353905l0.47235107 1.5186386l0.4418335 -3.2582436l-2.4328308 2.2119484z" fill-rule="evenodd"></path><path fill="#000000" fill-opacity="0.0" d="m262.86877 120.33596l42.141724 0" fill-rule="nonzero"></path><path stroke="#000000" stroke-width="1.0" stroke-linejoin="round" stroke-linecap="butt" d="m262.86877 120.33596l38.71463 0" fill-rule="evenodd"></path><path fill="#000000" stroke="#000000" stroke-width="1.0" stroke-linecap="butt" d="m301.5834 120.33596l-1.1245728 1.1245804l3.0897522 -1.1245804l-3.0897522 -1.124588z" fill-rule="evenodd"></path><path fill="#000000" fill-opacity="0.0" d="m262.86877 120.33596l30.48819 58.01574" fill-rule="nonzero"></path><path stroke="#000000" stroke-width="1.0" stroke-linejoin="round" stroke-linecap="butt" d="m262.86877 120.33596l28.89392 54.982048" fill-rule="evenodd"></path><path fill="#000000" stroke="#000000" stroke-width="1.0" stroke-linecap="butt" d="m291.7627 175.31801l-1.5186462 -0.47233582l2.4328308 2.2119446l-0.4418335 -3.2582397z" fill-rule="evenodd"></path><path fill="#000000" fill-opacity="0.0" d="m228.99475 136.57217l0 56.472443" fill-rule="nonzero"></path><path stroke="#000000" stroke-width="1.0" stroke-linejoin="round" stroke-linecap="butt" d="m228.99475 136.57217l0 53.045364" fill-rule="evenodd"></path><path fill="#000000" stroke="#000000" stroke-width="1.0" stroke-linecap="butt" d="m228.99475 189.61754l-1.124588 -1.124588l1.124588 3.0897675l1.124588 -3.0897675z" fill-rule="evenodd"></path><path fill="#000000" fill-opacity="0.0" d="m195.12073 120.33596l-30.488174 58.01574" fill-rule="nonzero"></path><path stroke="#000000" stroke-width="1.0" stroke-linejoin="round" stroke-linecap="butt" d="m195.12073 120.33596l-28.893936 54.982048" fill-rule="evenodd"></path><path fill="#000000" stroke="#000000" stroke-width="1.0" stroke-linecap="butt" d="m166.22679 175.31801l-0.47233582 -1.518631l-0.44184875 3.2582397l2.4328308 -2.2119446z" fill-rule="evenodd"></path><path fill="#000000" fill-opacity="0.0" d="m195.12073 120.33596l-30.488174 -58.01575" fill-rule="nonzero"></path><path stroke="#000000" stroke-width="1.0" stroke-linejoin="round" stroke-linecap="butt" d="m195.12073 120.33596l-28.893936 -54.982063" fill-rule="evenodd"></path><path fill="#000000" stroke="#000000" stroke-width="1.0" stroke-linecap="butt" d="m166.22679 65.353905l1.5186462 0.47234344l-2.4328308 -2.2119484l0.44184875 3.2582436z" fill-rule="evenodd"></path><path fill="#000000" fill-opacity="0.0" d="m65.755905 104.09843l87.2126 0l0 32.472435l-87.2126 0z" fill-rule="nonzero"></path><path stroke="#434343" stroke-width="2.0" stroke-linejoin="round" stroke-linecap="butt" d="m65.755905 104.09843l87.2126 0l0 32.472435l-87.2126 0z" fill-rule="nonzero"></path><path fill="#000000" d="m78.27642 117.04089l3.703125 0l0 0.765625l-1.25 0l0 4.609375q0 0.796875 -0.15625 1.328125q-0.140625 0.53125 -0.46875 0.890625q-0.3125 0.34375 -0.703125 0.5q-0.375 0.140625 -0.8125 0.140625q-1.15625 0 -1.90625 -0.890625l0.609375 -0.75q0.03125 0.046875 0.03125 0.140625q0.015625 0.078125 0.0625 0.125l0.15625 0.15625q0.046875 0.0625 0.15625 0.140625q0.125 0.0625 0.265625 0.125q0.15625 0.0625 0.3125 0.109375q0.15625 0.046875 0.3125 0.046875q0.65625 0 0.953125 -0.453125q0.296875 -0.46875 0.296875 -1.59375l0 -4.625l-1.5625 0l0 -0.765625zm5.617157 2.859375q0.78125 -0.84375 2.109375 -0.84375q1.09375 0 1.71875 0.5625q0.640625 0.546875 0.640625 1.84375l0 3.671875l-0.890625 0l0 -0.65625q-0.9375 0.796875 -2.125 0.796875q-0.46875 0 -0.84375 -0.140625q-0.359375 -0.140625 -0.625 -0.375q-0.265625 -0.234375 -0.40625 -0.53125q-0.125 -0.296875 -0.125 -0.609375q0 -0.890625 0.765625 -1.40625q0.78125 -0.515625 2.234375 -0.578125l1.125 0l0 -0.21875q0 -0.890625 -0.375 -1.234375q-0.375 -0.34375 -1.15625 -0.34375q-0.953125 0 -1.59375 0.65625l-0.453125 -0.59375zm3.609375 2.453125l-0.21875 0q-0.1875 0 -0.359375 0q-0.15625 -0.015625 -0.3125 -0.015625q-0.703125 0 -1.171875 0.109375q-0.453125 0.09375 -0.71875 0.265625q-0.25 0.15625 -0.34375 0.375q-0.09375 0.21875 -0.09375 0.453125q0 0.421875 0.359375 0.71875q0.359375 0.296875 0.890625 0.296875q0.390625 0 0.703125 -0.109375q0.3125 -0.125 0.546875 -0.296875q0.234375 -0.1875 0.375 -0.375q0.15625 -0.1875 0.21875 -0.328125q0.125 -0.265625 0.125 -0.703125l0 -0.390625zm2.523407 -2.828125l-0.140625 -0.328125l1.125 0q0 0.09375 -0.03125 0.171875q-0.015625 0.0625 -0.015625 0.109375q0 0.03125 0.015625 0.046875l1.71875 4.328125l0.96875 -2.203125q0.3125 -0.71875 0.5 -1.328125q0.1875 -0.609375 0.296875 -1.125l0.84375 0q-0.25 1.09375 -0.890625 2.59375l-1.453125 3.375l-0.71875 0l-2.21875 -5.640625zm7.195282 0.375q0.78125 -0.84375 2.109375 -0.84375q1.09375 0 1.71875 0.5625q0.640625 0.546875 0.640625 1.84375l0 3.671875l-0.890625 0l0 -0.65625q-0.9375 0.796875 -2.125 0.796875q-0.46875 0 -0.84375 -0.140625q-0.359375 -0.140625 -0.625 -0.375q-0.265625 -0.234375 -0.40625 -0.53125q-0.125 -0.296875 -0.125 -0.609375q0 -0.890625 0.765625 -1.40625q0.78125 -0.515625 2.234375 -0.578125l1.125 0l0 -0.21875q0 -0.890625 -0.375 -1.234375q-0.375 -0.34375 -1.15625 -0.34375q-0.953125 0 -1.59375 0.65625l-0.453125 -0.59375zm3.609375 2.453125l-0.21875 0q-0.1875 0 -0.359375 0q-0.15625 -0.015625 -0.3125 -0.015625q-0.703125 0 -1.171875 0.109375q-0.453125 0.09375 -0.71875 0.265625q-0.25 0.15625 -0.34375 0.375q-0.09375 0.21875 -0.09375 0.453125q0 0.421875 0.359375 0.71875q0.359375 0.296875 0.890625 0.296875q0.390625 0 0.703125 -0.109375q0.3125 -0.125 0.546875 -0.296875q0.234375 -0.1875 0.375 -0.375q0.15625 -0.1875 0.21875 -0.328125q0.125 -0.265625 0.125 -0.703125l0 -0.390625zm7.523407 -4.359375l-0.578125 0.78125q-0.0625 -0.03125 -0.078125 -0.109375q0 -0.078125 -0.015625 -0.125q-0.25 -0.359375 -0.671875 -0.578125q-0.421875 -0.21875 -1.046875 -0.21875q-0.59375 0 -1.0 0.359375q-0.390625 0.34375 -0.390625 0.8125q0 0.296875 0.09375 0.5q0.09375 0.203125 0.296875 0.40625q0.203125 0.1875 0.59375 0.390625q0.390625 0.203125 1.015625 0.453125q0.59375 0.25 0.984375 0.484375q0.390625 0.234375 0.625 0.515625q0.234375 0.265625 0.328125 0.578125q0.109375 0.296875 0.109375 0.6875q0 0.40625 -0.15625 0.828125q-0.15625 0.421875 -0.5 0.765625q-0.328125 0.328125 -0.84375 0.53125q-0.5 0.203125 -1.203125 0.203125q-1.578125 0 -2.546875 -1.03125l0.53125 -0.9375q0.078125 0.03125 0.078125 0.125q0 0.09375 0.03125 0.140625q0.296875 0.375 0.796875 0.640625q0.515625 0.25 1.234375 0.25q0.359375 0 0.65625 -0.125q0.3125 -0.125 0.53125 -0.328125q0.234375 -0.203125 0.359375 -0.46875q0.125 -0.28125 0.125 -0.59375q0 -0.25 -0.09375 -0.453125q-0.078125 -0.203125 -0.28125 -0.375q-0.1875 -0.1875 -0.546875 -0.359375q-0.34375 -0.171875 -0.9375 -0.40625q-0.640625 -0.25 -1.0625 -0.5q-0.421875 -0.25 -0.6875 -0.5q-0.25 -0.265625 -0.359375 -0.5625q-0.109375 -0.3125 -0.109375 -0.65625q0 -0.453125 0.1875 -0.828125q0.1875 -0.390625 0.515625 -0.6875q0.328125 -0.296875 0.78125 -0.453125q0.46875 -0.171875 0.984375 -0.171875q0.65625 0 1.234375 0.265625q0.59375 0.265625 1.015625 0.75zm6.945282 2.1875l-0.65625 0.765625q-0.0625 -0.03125 -0.0625 -0.078125q0 -0.046875 -0.015625 -0.125q-0.015625 -0.078125 -0.09375 -0.1875q-0.078125 -0.125 -0.3125 -0.328125q-0.4375 -0.359375 -1.203125 -0.359375q-0.375 0 -0.734375 0.15625q-0.34375 0.15625 -0.609375 0.453125q-0.25 0.28125 -0.40625 0.703125q-0.15625 0.40625 -0.15625 0.90625q0 0.515625 0.15625 0.953125q0.15625 0.421875 0.421875 0.734375q0.28125 0.3125 0.65625 0.484375q0.375 0.171875 0.828125 0.171875q0.90625 0 1.546875 -0.734375l0.546875 0.640625q-0.875 0.9375 -2.171875 0.9375q-0.625 0 -1.171875 -0.234375q-0.53125 -0.234375 -0.9375 -0.640625q-0.390625 -0.421875 -0.609375 -0.984375q-0.21875 -0.5625 -0.21875 -1.25q0 -0.65625 0.21875 -1.21875q0.21875 -0.578125 0.609375 -0.984375q0.40625 -0.421875 0.953125 -0.65625q0.546875 -0.234375 1.203125 -0.234375q0.703125 0 1.28125 0.296875q0.578125 0.296875 0.9375 0.8125zm2.007782 -0.984375l0.984375 0l-0.03125 1.140625q0.28125 -0.625 0.859375 -0.953125q0.59375 -0.328125 1.28125 -0.328125q0.953125 0 1.578125 0.640625l-0.421875 0.90625q-0.15625 -0.203125 -0.28125 -0.328125q-0.109375 -0.125 -0.25 -0.21875q-0.125 -0.09375 -0.296875 -0.140625q-0.15625 -0.0625 -0.390625 -0.0625q-0.421875 0 -0.796875 0.203125q-0.375 0.203125 -0.65625 0.53125q-0.28125 0.328125 -0.453125 0.765625q-0.171875 0.421875 -0.171875 0.890625l0 2.90625l-0.953125 0l0 -5.953125zm6.757782 0l2.375 0l0 5.1875l1.390625 0l0 0.75l-3.84375 0l0 -0.75l1.53125 0l0 -4.4375l-1.453125 0l0 -0.75zm1.453125 -2.390625q0.203125 -0.203125 0.46875 -0.203125q0.28125 0 0.484375 0.203125q0.203125 0.203125 0.203125 0.46875q0 0.28125 -0.203125 0.484375q-0.203125 0.1875 -0.484375 0.1875q-0.265625 0 -0.46875 -0.1875q-0.1875 -0.203125 -0.1875 -0.484375q0 -0.28125 0.1875 -0.46875zm4.6171646 2.390625l0.953125 0l0 0.90625q0.296875 -0.484375 0.796875 -0.765625q0.5 -0.28125 1.0 -0.28125q0.5 0 0.9375 0.203125q0.453125 0.1875 0.796875 0.5625q0.34375 0.375 0.546875 0.953125q0.203125 0.5625 0.203125 1.34375q0 0.78125 -0.21875 1.375q-0.203125 0.59375 -0.5625 1.0q-0.34375 0.390625 -0.796875 0.59375q-0.453125 0.203125 -0.921875 0.203125q-0.53125 0 -1.0 -0.25q-0.46875 -0.25 -0.78125 -0.6875l0 2.953125l-0.953125 0l0 -8.109375zm0.953125 3.46875q0.015625 0.953125 0.4375 1.375q0.421875 0.421875 1.03125 0.421875q0.3125 0 0.640625 -0.109375q0.328125 -0.109375 0.59375 -0.359375q0.28125 -0.25 0.4375 -0.65625q0.171875 -0.421875 0.171875 -1.046875q0 -1.140625 -0.484375 -1.765625q-0.46875 -0.640625 -1.328125 -0.671875q-0.25 0 -0.53125 0.09375q-0.265625 0.09375 -0.484375 0.3125q-0.21875 0.21875 -0.359375 0.59375q-0.125 0.375 -0.125 0.921875l0 0.890625zm7.367157 -5.0625l1.03125 -0.171875q0 0.125 -0.03125 0.21875q-0.03125 0.09375 -0.046875 0.140625l-0.15625 1.40625l1.953125 0l0 0.765625l-1.953125 0q-0.109375 1.15625 -0.109375 2.171875q0 0.625 0.015625 1.0625q0.03125 0.421875 0.140625 0.671875q0.109375 0.234375 0.3125 0.375q0.21875 0.140625 0.5625 0.140625q0.609375 0 1.328125 -0.53125l0.28125 0.734375q-0.890625 0.65625 -1.84375 0.65625q-0.9375 0 -1.375 -0.5625q-0.421875 -0.5625 -0.375 -1.828125q0 -0.46875 0.015625 -1.203125q0.03125 -0.734375 0.109375 -1.6875l-1.390625 0l0 -0.765625l1.4375 0l0.09375 -1.59375z" fill-rule="nonzero"></path><path fill="#000000" fill-opacity="0.0" d="m195.12073 120.33596l-42.141724 0" fill-rule="nonzero"></path><path stroke="#000000" stroke-width="1.0" stroke-linejoin="round" stroke-linecap="butt" d="m195.12073 120.33596l-38.714645 0" fill-rule="evenodd"></path><path fill="#000000" stroke="#000000" stroke-width="1.0" stroke-linecap="butt" d="m156.40608 120.33596l1.124588 -1.124588l-3.0897675 1.124588l3.0897675 1.1245804z" fill-rule="evenodd"></path></g></svg>

