<?xml version="1.0" standalone="yes"?>

<svg version="1.1" viewBox="0.0 0.0 836.9580052493438 221.50918635170603" fill="none" stroke="none" stroke-linecap="square" stroke-miterlimit="10" xmlns="http://www.w3.org/2000/svg" xmlns:xlink="http://www.w3.org/1999/xlink"><clipPath id="p.0"><path d="m0 0l836.958 0l0 221.50919l-836.958 0l0 -221.50919z" clip-rule="nonzero"></path></clipPath><g clip-path="url(#p.0)"><path fill="#000000" fill-opacity="0.0" d="m0 0l836.958 0l0 221.50919l-836.958 0z" fill-rule="nonzero"></path><path fill="#d9ead3" d="m33.389763 129.30731l0 0c0 -6.3028336 5.1094627 -11.4123 11.412304 -11.4123l157.67934 0c3.0267334 0 5.929489 1.2023621 8.069717 3.3425903c2.140213 2.1402206 3.3425903 5.042984 3.3425903 8.06971l0 45.647842c0 6.302841 -5.1094666 11.4122925 -11.412308 11.4122925l-157.67934 0l0 0c-6.302841 0 -11.412304 -5.1094513 -11.412304 -11.4122925z" fill-rule="nonzero"></path><path stroke="#000000" stroke-width="2.0" stroke-linejoin="round" stroke-linecap="butt" d="m33.389763 129.30731l0 0c0 -6.3028336 5.1094627 -11.4123 11.412304 -11.4123l157.67934 0c3.0267334 0 5.929489 1.2023621 8.069717 3.3425903c2.140213 2.1402206 3.3425903 5.042984 3.3425903 8.06971l0 45.647842c0 6.302841 -5.1094666 11.4122925 -11.412308 11.4122925l-157.67934 0l0 0c-6.302841 0 -11.412304 -5.1094513 -11.412304 -11.4122925z" fill-rule="nonzero"></path><path fill="#000000" d="m78.11829 161.61685q1.328125 0 2.328125 -0.46875q1.0 -0.46875 1.5625 -1.296875q0.5625 -0.828125 0.828125 -1.84375q0.28125 -1.015625 0.28125 -2.21875l0 -1.265625q0 -1.25 -0.28125 -2.296875q-0.28125 -1.0625 -0.875 -1.890625q-0.578125 -0.84375 -1.5625 -1.3125q-0.96875 -0.46875 -2.265625 -0.46875q-1.078125 0 -1.96875 0.40625q-0.875 0.40625 -1.453125 1.078125q-0.5625 0.65625 -0.96875 1.546875q-0.390625 0.875 -0.5625 1.78125q-0.171875 0.90625 -0.171875 1.828125q0 0.90625 0.1875 1.796875q0.1875 0.890625 0.59375 1.734375q0.40625 0.84375 0.984375 1.484375q0.578125 0.625 1.4375 1.015625q0.875 0.390625 1.90625 0.390625zm-4.015625 10.078125l-0.234375 -2.359375l3.1875 0q1.328125 0 2.3125 -0.1875q0.984375 -0.1875 1.640625 -0.625q0.65625 -0.421875 1.0625 -0.953125q0.40625 -0.515625 0.609375 -1.359375q0.21875 -0.828125 0.28125 -1.65625q0.078125 -0.8125 0.078125 -2.0l0 -1.515625q-0.9375 1.34375 -2.171875 2.078125q-1.234375 0.71875 -3.140625 0.71875q-1.46875 0 -2.71875 -0.5q-1.234375 -0.515625 -2.09375 -1.359375q-0.84375 -0.84375 -1.453125 -1.953125q-0.59375 -1.109375 -0.875 -2.296875q-0.265625 -1.1875 -0.265625 -2.390625q0 -1.875 0.453125 -3.46875q0.46875 -1.59375 1.375 -2.84375q0.90625 -1.25 2.375 -1.953125q1.484375 -0.71875 3.390625 -0.71875q1.6875 0 2.9375 0.65625q1.265625 0.640625 2.265625 1.984375l0 -2.28125l2.546875 0l0 15.90625q0 1.09375 -0.0625 1.90625q-0.046875 0.828125 -0.265625 1.828125q-0.203125 1.0 -0.5625 1.71875q-0.359375 0.71875 -1.015625 1.4375q-0.640625 0.734375 -1.546875 1.171875q-0.890625 0.453125 -2.21875 0.734375q-1.328125 0.28125 -3.0 0.28125l-2.890625 0zm17.8125 -16.375q0 3.046875 1.34375 4.890625q1.359375 1.828125 3.953125 1.828125q2.5625 0 3.859375 -1.828125q1.3125 -1.828125 1.3125 -4.921875q0 -3.140625 -1.296875 -4.9375q-1.28125 -1.8125 -3.921875 -1.8125q-2.5625 0 -3.90625 1.84375q-1.34375 1.84375 -1.34375 4.9375zm13.171875 -0.046875q0 3.984375 -2.125 6.46875q-2.125 2.46875 -5.875 2.46875q-3.609375 0 -5.75 -2.5q-2.125 -2.5 -2.125 -6.421875q0 -4.0 2.140625 -6.46875q2.140625 -2.46875 5.875 -2.46875q3.671875 0 5.765625 2.484375q2.09375 2.46875 2.09375 6.4375zm8.640625 6.828125q1.859375 0 3.265625 -1.015625q1.421875 -1.03125 1.828125 -2.765625l0 -2.890625q-0.078125 0 -0.953125 0.078125q-0.859375 0.078125 -1.125 0.09375q-3.390625 0.296875 -4.734375 1.109375q-1.328125 0.8125 -1.328125 2.609375q0 1.375 0.8125 2.078125q0.8125 0.703125 2.234375 0.703125zm5.671875 1.75q-0.234375 -1.0 -0.453125 -2.15625q-1.421875 1.421875 -2.671875 1.96875q-1.25 0.546875 -2.9375 0.546875q-2.40625 0 -3.875 -1.25q-1.453125 -1.265625 -1.453125 -3.625q0 -2.625 1.984375 -3.890625q2.0 -1.265625 5.75 -1.578125q0.515625 -0.046875 1.546875 -0.125q1.046875 -0.09375 1.5625 -0.140625l0 -1.515625q0 -1.8125 -0.84375 -2.6875q-0.84375 -0.875 -2.65625 -0.875q-2.53125 0 -5.109375 1.25q-0.078125 -0.1875 -0.40625 -1.078125q-0.328125 -0.90625 -0.34375 -0.9375q1.140625 -0.640625 2.703125 -1.015625q1.578125 -0.390625 3.203125 -0.390625q3.203125 0 4.609375 1.40625q1.421875 1.390625 1.421875 4.75l0 11.34375l-2.03125 0zm13.187492 -2.234375q1.328125 0 2.328125 -0.46875q1.0 -0.46875 1.5625 -1.296875q0.5625 -0.828125 0.828125 -1.84375q0.28125 -1.015625 0.28125 -2.21875l0 -1.265625q0 -1.25 -0.28125 -2.296875q-0.28125 -1.0625 -0.875 -1.890625q-0.578125 -0.84375 -1.5625 -1.3125q-0.96875 -0.46875 -2.265625 -0.46875q-1.078125 0 -1.96875 0.40625q-0.875 0.40625 -1.453125 1.078125q-0.5625 0.65625 -0.96875 1.546875q-0.39061737 0.875 -0.5624924 1.78125q-0.171875 0.90625 -0.171875 1.828125q0 0.90625 0.1875 1.796875q0.1875 0.890625 0.5937424 1.734375q0.40625 0.84375 0.984375 1.484375q0.578125 0.625 1.4375 1.015625q0.875 0.390625 1.90625 0.390625zm-4.015625 10.078125l-0.234375 -2.359375l3.1875 0q1.328125 0 2.3125 -0.1875q0.984375 -0.1875 1.640625 -0.625q0.65625 -0.421875 1.0625 -0.953125q0.40625 -0.515625 0.609375 -1.359375q0.21875 -0.828125 0.28125 -1.65625q0.078125 -0.8125 0.078125 -2.0l0 -1.515625q-0.9375 1.34375 -2.171875 2.078125q-1.234375 0.71875 -3.140625 0.71875q-1.46875 0 -2.71875 -0.5q-1.234375 -0.515625 -2.0937424 -1.359375q-0.84375 -0.84375 -1.453125 -1.953125q-0.59375 -1.109375 -0.875 -2.296875q-0.265625 -1.1875 -0.265625 -2.390625q0 -1.875 0.453125 -3.46875q0.46875 -1.59375 1.375 -2.84375q0.90625 -1.25 2.3749924 -1.953125q1.484375 -0.71875 3.390625 -0.71875q1.6875 0 2.9375 0.65625q1.265625 0.640625 2.265625 1.984375l0 -2.28125l2.546875 0l0 15.90625q0 1.09375 -0.0625 1.90625q-0.046875 0.828125 -0.265625 1.828125q-0.203125 1.0 -0.5625 1.71875q-0.359375 0.71875 -1.015625 1.4375q-0.640625 0.734375 -1.546875 1.171875q-0.890625 0.453125 -2.21875 0.734375q-1.328125 0.28125 -3.0 0.28125l-2.890625 0zm25.78125 -21.8125q-1.140625 -1.375 -3.140625 -1.375q-2.0 0 -3.265625 1.421875q-1.265625 1.40625 -1.484375 3.859375l9.046875 0q0 -2.546875 -1.15625 -3.90625zm-2.625 14.328125q-3.734375 0 -5.890625 -2.375q-2.140625 -2.375 -2.140625 -6.5q0 -3.984375 2.078125 -6.453125q2.078125 -2.484375 5.46875 -2.53125q3.1875 0 5.046875 2.1875q1.875 2.171875 1.875 5.8125q0 0.1875 -0.015625 0.6875q0 0.5 0 0.71875l-11.765625 0q0.046875 2.921875 1.5 4.5625q1.46875 1.625 3.9375 1.625q2.71875 0 5.453125 -1.4375l0.40625 2.109375q-2.609375 1.59375 -5.953125 1.59375zm10.0625 -0.359375l0 -17.140625l2.1875 0l0.328125 2.453125q1.0156403 -1.265625 2.5312653 -2.03125q1.53125 -0.78125 3.296875 -0.78125q2.96875 0 4.390625 1.671875q1.421875 1.65625 1.421875 5.109375l0 10.71875l-2.609375 0q0 -10.3125 -0.015625 -11.046875q-0.0625 -2.1875 -0.890625 -3.203125q-0.8125 -1.015625 -2.734375 -1.015625q-2.015625 0 -3.359375 0.96875q-1.34375 0.96875 -1.7500153 2.515625q-0.15625 1.046875 -0.15625 2.40625l0 9.375l-2.640625 0z" fill-rule="nonzero"></path><path fill="#d9d9d9" d="m328.22702 129.30731l0 0c0 -6.3028336 5.1094666 -11.4123 11.412323 -11.4123l157.67932 0c3.0267334 0 5.9295044 1.2023621 8.069733 3.3425903c2.1401978 2.1402206 3.3425598 5.042984 3.3425598 8.06971l0 45.647842c0 6.302841 -5.109436 11.4122925 -11.4122925 11.4122925l-157.67932 0l0 0c-6.3028564 0 -11.412323 -5.1094513 -11.412323 -11.4122925z" fill-rule="nonzero"></path><path stroke="#000000" stroke-width="2.0" stroke-linejoin="round" stroke-linecap="butt" d="m328.22702 129.30731l0 0c0 -6.3028336 5.1094666 -11.4123 11.412323 -11.4123l157.67932 0c3.0267334 0 5.9295044 1.2023621 8.069733 3.3425903c2.1401978 2.1402206 3.3425598 5.042984 3.3425598 8.06971l0 45.647842c0 6.302841 -5.109436 11.4122925 -11.4122925 11.4122925l-157.67932 0l0 0c-6.3028564 0 -11.412323 -5.1094513 -11.412323 -11.4122925z" fill-rule="nonzero"></path><path fill="#000000" d="m356.36963 161.61685q1.328125 0 2.328125 -0.46875q1.0 -0.46875 1.5625 -1.296875q0.5625 -0.828125 0.828125 -1.84375q0.28125 -1.015625 0.28125 -2.21875l0 -1.265625q0 -1.25 -0.28125 -2.296875q-0.28125 -1.0625 -0.875 -1.890625q-0.578125 -0.84375 -1.5625 -1.3125q-0.96875 -0.46875 -2.265625 -0.46875q-1.078125 0 -1.96875 0.40625q-0.875 0.40625 -1.453125 1.078125q-0.5625 0.65625 -0.96875 1.546875q-0.390625 0.875 -0.5625 1.78125q-0.171875 0.90625 -0.171875 1.828125q0 0.90625 0.1875 1.796875q0.1875 0.890625 0.59375 1.734375q0.40625 0.84375 0.984375 1.484375q0.578125 0.625 1.4375 1.015625q0.875 0.390625 1.90625 0.390625zm-4.015625 10.078125l-0.234375 -2.359375l3.1875 0q1.328125 0 2.3125 -0.1875q0.984375 -0.1875 1.640625 -0.625q0.65625 -0.421875 1.0625 -0.953125q0.40625 -0.515625 0.609375 -1.359375q0.21875 -0.828125 0.28125 -1.65625q0.078125 -0.8125 0.078125 -2.0l0 -1.515625q-0.9375 1.34375 -2.171875 2.078125q-1.234375 0.71875 -3.140625 0.71875q-1.46875 0 -2.71875 -0.5q-1.234375 -0.515625 -2.09375 -1.359375q-0.84375 -0.84375 -1.453125 -1.953125q-0.59375 -1.109375 -0.875 -2.296875q-0.265625 -1.1875 -0.265625 -2.390625q0 -1.875 0.453125 -3.46875q0.46875 -1.59375 1.375 -2.84375q0.90625 -1.25 2.375 -1.953125q1.484375 -0.71875 3.390625 -0.71875q1.6875 0 2.9375 0.65625q1.265625 0.640625 2.265625 1.984375l0 -2.28125l2.546875 0l0 15.90625q0 1.09375 -0.0625 1.90625q-0.046875 0.828125 -0.265625 1.828125q-0.203125 1.0 -0.5625 1.71875q-0.359375 0.71875 -1.015625 1.4375q-0.640625 0.734375 -1.546875 1.171875q-0.890625 0.453125 -2.21875 0.734375q-1.328125 0.28125 -3.0 0.28125l-2.890625 0zm25.78125 -21.8125q-1.140625 -1.375 -3.140625 -1.375q-2.0 0 -3.265625 1.421875q-1.265625 1.40625 -1.484375 3.859375l9.046875 0q0 -2.546875 -1.15625 -3.90625zm-2.625 14.328125q-3.734375 0 -5.890625 -2.375q-2.140625 -2.375 -2.140625 -6.5q0 -3.984375 2.078125 -6.453125q2.078125 -2.484375 5.46875 -2.53125q3.1875 0 5.046875 2.1875q1.875 2.171875 1.875 5.8125q0 0.1875 -0.015625 0.6875q0 0.5 0 0.71875l-11.765625 0q0.046875 2.921875 1.5 4.5625q1.46875 1.625 3.9375 1.625q2.71875 0 5.453125 -1.4375l0.40625 2.109375q-2.609375 1.59375 -5.953125 1.59375zm10.0625 -0.359375l0 -17.140625l2.1875 0l0.328125 2.453125q1.015625 -1.265625 2.53125 -2.03125q1.53125 -0.78125 3.296875 -0.78125q2.96875 0 4.390625 1.671875q1.421875 1.65625 1.421875 5.109375l0 10.71875l-2.609375 0q0 -10.3125 -0.015625 -11.046875q-0.0625 -2.1875 -0.890625 -3.203125q-0.8125 -1.015625 -2.734375 -1.015625q-2.015625 0 -3.359375 0.96875q-1.34375 0.96875 -1.75 2.515625q-0.15625 1.046875 -0.15625 2.40625l0 9.375l-2.640625 0zm28.375 -13.96875q-1.140625 -1.375 -3.140625 -1.375q-2.0 0 -3.265625 1.421875q-1.265625 1.40625 -1.484375 3.859375l9.046875 0q0 -2.546875 -1.15625 -3.90625zm-2.625 14.328125q-3.734375 0 -5.890625 -2.375q-2.140625 -2.375 -2.140625 -6.5q0 -3.984375 2.078125 -6.453125q2.078125 -2.484375 5.46875 -2.53125q3.1875 0 5.046875 2.1875q1.875 2.171875 1.875 5.8125q0 0.1875 -0.015625 0.6875q0 0.5 0 0.71875l-11.765625 0q0.046875 2.921875 1.5 4.5625q1.46875 1.625 3.9375 1.625q2.71875 0 5.453125 -1.4375l0.40625 2.109375q-2.609375 1.59375 -5.953125 1.59375zm17.75 -17.65625q0.703125 0 1.28125 0.09375l-0.09375 2.40625q-0.71875 -0.125 -1.25 -0.125q-2.1875 0 -3.5625 1.53125q-1.359375 1.515625 -1.359375 3.765625l0 9.625l-2.609375 0q-0.015625 -15.78125 -0.015625 -17.140625l2.171875 0l0.25 3.078125q0.890625 -1.453125 2.265625 -2.34375q1.375 -0.890625 2.921875 -0.890625zm8.921875 15.546875q1.859375 0 3.265625 -1.015625q1.421875 -1.03125 1.828125 -2.765625l0 -2.890625q-0.078125 0 -0.953125 0.078125q-0.859375 0.078125 -1.125 0.09375q-3.390625 0.296875 -4.734375 1.109375q-1.328125 0.8125 -1.328125 2.609375q0 1.375 0.8125 2.078125q0.8125 0.703125 2.234375 0.703125zm5.671875 1.75q-0.234375 -1.0 -0.453125 -2.15625q-1.421875 1.421875 -2.671875 1.96875q-1.25 0.546875 -2.9375 0.546875q-2.40625 0 -3.875 -1.25q-1.453125 -1.265625 -1.453125 -3.625q0 -2.625 1.984375 -3.890625q2.0 -1.265625 5.75 -1.578125q0.515625 -0.046875 1.546875 -0.125q1.046875 -0.09375 1.5625 -0.140625l0 -1.515625q0 -1.8125 -0.84375 -2.6875q-0.84375 -0.875 -2.65625 -0.875q-2.53125 0 -5.109375 1.25q-0.078125 -0.1875 -0.40625 -1.078125q-0.328125 -0.90625 -0.34375 -0.9375q1.140625 -0.640625 2.703125 -1.015625q1.578125 -0.390625 3.203125 -0.390625q3.203125 0 4.609375 1.40625q1.421875 1.390625 1.421875 4.75l0 11.34375l-2.03125 0zm12.0 0.3125q-2.53125 0 -3.59375 -1.234375q-1.0625 -1.234375 -1.125 -3.984375l0 -10.296875l-2.546875 0l0.109375 -1.71875l2.421875 -0.21875l0.890625 -3.921875l1.71875 -0.0625l0 3.984375l4.765625 0l0 1.9375l-4.765625 0l0 9.828125q0 1.953125 0.59375 2.75q0.59375 0.796875 2.03125 0.796875q0.515625 0 2.234375 -0.25l0.109375 2.0625q-1.859375 0.328125 -2.84375 0.328125zm7.53125 -8.84375q0 3.046875 1.34375 4.890625q1.359375 1.828125 3.953125 1.828125q2.5625 0 3.859375 -1.828125q1.3125 -1.828125 1.3125 -4.921875q0 -3.140625 -1.296875 -4.9375q-1.28125 -1.8125 -3.921875 -1.8125q-2.5625 0 -3.90625 1.84375q-1.34375 1.84375 -1.34375 4.9375zm13.171875 -0.046875q0 3.984375 -2.125 6.46875q-2.125 2.46875 -5.875 2.46875q-3.609375 0 -5.75 -2.5q-2.125 -2.5 -2.125 -6.421875q0 -4.0 2.140625 -6.46875q2.140625 -2.46875 5.875 -2.46875q3.671875 0 5.765625 2.484375q2.09375 2.46875 2.09375 6.4375zm11.375 -8.71875q0.703125 0 1.28125 0.09375l-0.09375 2.40625q-0.71875 -0.125 -1.25 -0.125q-2.1875 0 -3.5625 1.53125q-1.359375 1.515625 -1.359375 3.765625l0 9.625l-2.609375 0q-0.015625 -15.78125 -0.015625 -17.140625l2.171875 0l0.25 3.078125q0.890625 -1.453125 2.265625 -2.34375q1.375 -0.890625 2.921875 -0.890625z" fill-rule="nonzero"></path><path fill="#000000" fill-opacity="0.0" d="m213.8937 152.13124l114.33069 0" fill-rule="nonzero"></path><path stroke="#000000" stroke-width="2.0" stroke-linejoin="round" stroke-linecap="butt" d="m213.8937 152.13124l107.47653 0" fill-rule="evenodd"></path><path fill="#000000" stroke="#000000" stroke-width="2.0" stroke-linecap="butt" d="m321.37024 152.13124l-2.249176 2.2491608l6.179535 -2.2491608l-6.179535 -2.249176z" fill-rule="evenodd"></path><path fill="#cfe2f3" d="m33.389763 46.554035l0 0c0 -6.302841 5.1094627 -11.412304 11.412304 -11.412304l157.67934 0c3.0267334 0 5.929489 1.2023659 8.069717 3.3425865c2.140213 2.1402206 3.3425903 5.042984 3.3425903 8.069717l0 45.64784c0 6.302841 -5.1094666 11.4123 -11.412308 11.4123l-157.67934 0l0 0c-6.302841 0 -11.412304 -5.109459 -11.412304 -11.4123z" fill-rule="nonzero"></path><path stroke="#000000" stroke-width="2.0" stroke-linejoin="round" stroke-linecap="butt" d="m33.389763 46.554035l0 0c0 -6.302841 5.1094627 -11.412304 11.412304 -11.412304l157.67934 0c3.0267334 0 5.929489 1.2023659 8.069717 3.3425865c2.140213 2.1402206 3.3425903 5.042984 3.3425903 8.069717l0 45.64784c0 6.302841 -5.1094666 11.4123 -11.412308 11.4123l-157.67934 0l0 0c-6.302841 0 -11.412304 -5.109459 -11.412304 -11.4123z" fill-rule="nonzero"></path><path fill="#000000" d="m84.48548 79.20733q2.578125 0 3.828125 -1.65625q1.265625 -1.65625 1.265625 -4.734375q0 -3.46875 -1.21875 -5.21875q-1.203125 -1.765625 -3.90625 -1.765625q-1.203125 0 -2.125 0.515625q-0.921875 0.515625 -1.484375 1.4375q-0.5625 0.921875 -0.859375 2.125q-0.28125 1.1875 -0.28125 2.609375q0 2.0 0.484375 3.46875q0.5 1.46875 1.59375 2.34375q1.09375 0.875 2.703125 0.875zm5.140625 -0.59375q-0.84375 1.296875 -2.25 2.0625q-1.40625 0.765625 -3.140625 0.765625q-3.390625 0 -5.3125 -2.40625q-1.921875 -2.421875 -1.921875 -6.578125q0 -3.96875 1.953125 -6.40625q1.953125 -2.4531288 5.234375 -2.4531288q1.703125 0 3.203125 0.7500038q1.515625 0.734375 2.265625 1.984375l-0.046875 -1.484375l0 -7.546879l2.578125 -0.15625l0 23.953129l-2.21875 0l-0.34375 -2.484375zm16.96875 -11.484375q-1.140625 -1.375 -3.140625 -1.375q-2.0 0 -3.265625 1.421875q-1.265625 1.40625 -1.484375 3.859375l9.046875 0q0 -2.546875 -1.15625 -3.90625zm-2.625 14.328125q-3.734375 0 -5.890625 -2.375q-2.140625 -2.375 -2.140625 -6.5q0 -3.984375 2.078125 -6.453125q2.078125 -2.4843788 5.46875 -2.5312538q3.1875 0 5.046875 2.1875038q1.875 2.171875 1.875 5.8125q0 0.1875 -0.015625 0.6875q0 0.5 0 0.71875l-11.765625 0q0.046875 2.921875 1.5 4.5625q1.46875 1.625 3.9375 1.625q2.71875 0 5.453125 -1.4375l0.40625 2.109375q-2.609375 1.59375 -5.953125 1.59375zm15.171875 0q-1.75 0 -3.234375 -0.375q-1.46875 -0.375 -2.390625 -0.96875l0.328125 -2.203125q2.609375 1.390625 5.125 1.390625q3.8125 0 3.921875 -2.6875q0 -1.140625 -0.8125 -1.796875q-0.8125 -0.65625 -3.1875 -1.46875l-1.296875 -0.453125q-2.25 -0.75 -3.21875 -1.859375q-0.953125 -1.109375 -0.96875 -2.765625q0 -2.015625 1.609375 -3.34375q1.625 -1.3281288 4.4375 -1.3281288q2.90625 0 5.296875 1.1250038l-0.765625 2.0q-2.421875 -1.0 -4.53125 -1.0q-1.640625 0 -2.578125 0.65625q-0.921875 0.640625 -0.921875 1.8125q0 1.0 0.671875 1.53125q0.671875 0.53125 2.6875 1.21875q0.515625 0.1875 1.296875 0.4375q2.59375 0.84375 3.671875 2.0q1.078125 1.140625 1.078125 3.09375q-0.03125 2.375 -1.703125 3.6875q-1.671875 1.296875 -4.515625 1.296875zm12.859367 -17.500004l0 17.140629l-2.625 0l0 -17.140629l2.625 0zm0 -6.234375l0 3.09375l-2.625 0l0 -3.09375l2.625 0zm11.5625 21.140629q1.328125 0 2.328125 -0.46875q1.0 -0.46875 1.5625 -1.296875q0.5625 -0.828125 0.828125 -1.84375q0.28125 -1.015625 0.28125 -2.21875l0 -1.265625q0 -1.25 -0.28125 -2.296875q-0.28125 -1.0625 -0.875 -1.890625q-0.578125 -0.84375 -1.5625 -1.3125q-0.96875 -0.46875 -2.265625 -0.46875q-1.078125 0 -1.96875 0.40625q-0.875 0.40625 -1.453125 1.078125q-0.5625 0.65625 -0.96875 1.546875q-0.390625 0.875 -0.5625 1.78125q-0.171875 0.90625 -0.171875 1.828125q0 0.90625 0.1875 1.796875q0.1875 0.890625 0.59375 1.734375q0.40625 0.84375 0.984375 1.484375q0.578125 0.625 1.4375 1.015625q0.875 0.390625 1.90625 0.390625zm-4.015625 10.078125l-0.234375 -2.359375l3.1875 0q1.328125 0 2.3125 -0.1875q0.984375 -0.1875 1.640625 -0.625q0.65625 -0.421875 1.0625 -0.953125q0.40625 -0.515625 0.609375 -1.359375q0.21875 -0.828125 0.28125 -1.65625q0.078125 -0.8125 0.078125 -2.0l0 -1.515625q-0.9375 1.34375 -2.171875 2.078125q-1.234375 0.71875 -3.140625 0.71875q-1.46875 0 -2.71875 -0.5q-1.234375 -0.515625 -2.09375 -1.359375q-0.84375 -0.84375 -1.453125 -1.953125q-0.59375 -1.109375 -0.875 -2.296875q-0.265625 -1.1875 -0.265625 -2.390625q0 -1.875 0.453125 -3.46875q0.46875 -1.59375 1.375 -2.84375q0.90625 -1.25 2.375 -1.953125q1.484375 -0.7187538 3.390625 -0.7187538q1.6875 0 2.9375 0.6562538q1.265625 0.640625 2.265625 1.984375l0 -2.2812538l2.546875 0l0 15.906254q0 1.09375 -0.0625 1.90625q-0.046875 0.828125 -0.265625 1.828125q-0.203125 1.0 -0.5625 1.71875q-0.359375 0.71875 -1.015625 1.4375q-0.640625 0.734375 -1.546875 1.171875q-0.890625 0.453125 -2.21875 0.734375q-1.328125 0.28125 -3.0 0.28125l-2.890625 0zm15.90625 -7.84375l0 -17.140629l2.1875 0l0.328125 2.4531288q1.015625 -1.265625 2.53125 -2.03125q1.53125 -0.7812538 3.296875 -0.7812538q2.9687653 0 4.3906403 1.6718788q1.421875 1.65625 1.421875 5.109375l0 10.71875l-2.609375 0q0 -10.3125 -0.015625 -11.046875q-0.0625 -2.1875 -0.890625 -3.203125q-0.8125 -1.015625 -2.7343903 -1.015625q-2.015625 0 -3.359375 0.96875q-1.34375 0.96875 -1.75 2.515625q-0.15625 1.046875 -0.15625 2.40625l0 9.375l-2.640625 0z" fill-rule="nonzero"></path><path fill="#000000" fill-opacity="0.0" d="m213.8937 69.37795l57.166504 0l0 82.74015l57.164185 0" fill-rule="nonzero"></path><path stroke="#000000" stroke-width="2.0" stroke-linejoin="round" stroke-linecap="butt" d="m213.8937 69.37795l57.166504 0l0 82.74015l57.164185 0" fill-rule="nonzero"></path><path fill="#000000" fill-opacity="0.0" d="m508.73096 152.13124l114.33075 0" fill-rule="nonzero"></path><path stroke="#000000" stroke-width="2.0" stroke-linejoin="round" stroke-linecap="butt" d="m508.73096 152.13124l107.47656 0" fill-rule="evenodd"></path><path fill="#000000" stroke="#000000" stroke-width="2.0" stroke-linecap="butt" d="m616.2075 152.13124l-2.2492065 2.2491608l6.1795654 -2.2491608l-6.1795654 -2.249176z" fill-rule="evenodd"></path><path fill="#f4cccc" d="m623.06433 129.30731l0 0c0 -6.3028336 5.109436 -11.4123 11.4122925 -11.4123l157.67932 0c3.0267334 0 5.9295044 1.2023621 8.069702 3.3425903c2.1402588 2.1402206 3.3425903 5.042984 3.3425903 8.06971l0 45.647842c0 6.302841 -5.109436 11.4122925 -11.4122925 11.4122925l-157.67932 0l0 0c-6.3028564 0 -11.4122925 -5.1094513 -11.4122925 -11.4122925z" fill-rule="nonzero"></path><path stroke="#000000" stroke-width="2.0" stroke-linejoin="round" stroke-linecap="butt" d="m623.06433 129.30731l0 0c0 -6.3028336 5.109436 -11.4123 11.4122925 -11.4123l157.67932 0c3.0267334 0 5.9295044 1.2023621 8.069702 3.3425903c2.1402588 2.1402206 3.3425903 5.042984 3.3425903 8.06971l0 45.647842c0 6.302841 -5.109436 11.4122925 -11.4122925 11.4122925l-157.67932 0l0 0c-6.3028564 0 -11.4122925 -5.1094513 -11.4122925 -11.4122925z" fill-rule="nonzero"></path><path fill="#000000" d="m670.41003 155.31998q0 3.046875 1.34375 4.890625q1.359375 1.828125 3.953125 1.828125q2.5625 0 3.859375 -1.828125q1.3125 -1.828125 1.3125 -4.921875q0 -3.140625 -1.296875 -4.9375q-1.28125 -1.8125 -3.921875 -1.8125q-2.5625 0 -3.90625 1.84375q-1.34375 1.84375 -1.34375 4.9375zm13.171875 -0.046875q0 3.984375 -2.125 6.46875q-2.125 2.46875 -5.875 2.46875q-3.609375 0 -5.75 -2.5q-2.125 -2.5 -2.125 -6.421875q0 -4.0 2.140625 -6.46875q2.140625 -2.46875 5.875 -2.46875q3.671875 0 5.765625 2.484375q2.09375 2.46875 2.09375 6.4375zm3.09375 2.859375l0 -11.421875l2.625 0l0 11.453125q0 1.125 0.3125 1.90625q0.328125 0.78125 0.921875 1.21875q0.609375 0.421875 1.359375 0.609375q0.765625 0.1875 1.75 0.1875q2.03125 0 3.15625 -0.890625q1.140625 -0.890625 1.140625 -3.03125l0 -11.453125l2.625 0l0 11.421875q0 1.3125 -0.375 2.359375q-0.375 1.046875 -1.015625 1.75q-0.625 0.6875 -1.515625 1.140625q-0.890625 0.453125 -1.890625 0.65625q-0.984375 0.203125 -2.125 0.203125q-1.125 0 -2.125 -0.203125q-1.0 -0.203125 -1.90625 -0.65625q-0.890625 -0.46875 -1.546875 -1.15625q-0.640625 -0.703125 -1.015625 -1.75q-0.375 -1.046875 -0.375 -2.34375zm23.25 6.03125q-2.53125 0 -3.59375 -1.234375q-1.0625 -1.234375 -1.125 -3.984375l0 -10.296875l-2.546875 0l0.109375 -1.71875l2.421875 -0.21875l0.890625 -3.921875l1.71875 -0.0625l0 3.984375l4.765625 0l0 1.9375l-4.765625 0l0 9.828125q0 1.953125 0.59375 2.75q0.59375 0.796875 2.03125 0.796875q0.515625 0 2.234375 -0.25l0.109375 2.0625q-1.859375 0.328125 -2.84375 0.328125zm5.625 7.125l0 -24.578125l2.296875 0l0.25 2.328125q2.25 -2.6875 5.40625 -2.6875q2.34375 0 3.96875 1.171875q1.625 1.171875 2.390625 3.171875q0.78125 2.0 0.78125 4.671875q0 2.5625 -0.84375 4.5625q-0.84375 1.984375 -2.484375 3.140625q-1.625 1.140625 -3.8125 1.140625q-1.65625 0 -3.109375 -0.734375q-1.453125 -0.75 -2.328125 -1.96875q0.09375 1.6875 0.09375 3.28125l0 6.328125l-2.609375 0.171875zm7.59375 -9.28125q1.1875 0 2.125 -0.53125q0.9375 -0.546875 1.515625 -1.484375q0.578125 -0.9375 0.875 -2.125q0.296875 -1.203125 0.296875 -2.59375q0 -2.9375 -1.234375 -4.8125q-1.234375 -1.890625 -3.609375 -1.890625q-4.96875 0 -4.96875 6.421875q0 3.484375 1.15625 5.25q1.171875 1.765625 3.84375 1.765625zm10.578125 -3.875l0 -11.421875l2.625 0l0 11.453125q0 1.125 0.3125 1.90625q0.328125 0.78125 0.921875 1.21875q0.609375 0.421875 1.359375 0.609375q0.765625 0.1875 1.75 0.1875q2.03125 0 3.15625 -0.890625q1.140625 -0.890625 1.140625 -3.03125l0 -11.453125l2.625 0l0 11.421875q0 1.3125 -0.375 2.359375q-0.375 1.046875 -1.015625 1.75q-0.625 0.6875 -1.515625 1.140625q-0.890625 0.453125 -1.890625 0.65625q-0.984375 0.203125 -2.125 0.203125q-1.125 0 -2.125 -0.203125q-1.0 -0.203125 -1.90625 -0.65625q-0.890625 -0.46875 -1.546875 -1.15625q-0.640625 -0.703125 -1.015625 -1.75q-0.375 -1.046875 -0.375 -2.34375zm23.25 6.03125q-2.53125 0 -3.59375 -1.234375q-1.0625 -1.234375 -1.125 -3.984375l0 -10.296875l-2.546875 0l0.109375 -1.71875l2.421875 -0.21875l0.890625 -3.921875l1.71875 -0.0625l0 3.984375l4.765625 0l0 1.9375l-4.765625 0l0 9.828125q0 1.953125 0.59375 2.75q0.59375 0.796875 2.03125 0.796875q0.515625 0 2.234375 -0.25l0.109375 2.0625q-1.859375 0.328125 -2.84375 0.328125z" fill-rule="nonzero"></path></g></svg>

