<?xml version="1.0" encoding="UTF-8" standalone="no"?>
<svg width="164px" height="100px" viewBox="0 0 82 50" version="1.1" xmlns="http://www.w3.org/2000/svg" xmlns:xlink="http://www.w3.org/1999/xlink" xmlns:sketch="http://www.bohemiancoding.com/sketch/ns">
    <!-- Generator: Sketch 3.5.2 (25235) - http://www.bohemiancoding.com/sketch -->
    <title>goa-logo</title>
    <desc>Created with Sketch.</desc>
    <defs></defs>
    <g id="Page-1" stroke="none" stroke-width="1" fill="none" fill-rule="evenodd" sketch:type="MSPage">
        <g id="goa" sketch:type="MSArtboardGroup" transform="translate(-223.000000, -156.000000)" fill="#333333">
            <g id="goa-logo" sketch:type="MSLayerGroup" transform="translate(223.000000, 156.000000)">
                <g id="group" transform="translate(58.000000, 0.000000)" sketch:type="MSShapeGroup">
                    <path d="M0.0924855491,19.6300578 C0.0924855491,25.5260116 3.90751445,29.132948 9.4566474,29.132948 C13.7572254,29.132948 16.3236994,27.0520231 17.9190751,25.5953757 L18.7514451,27.4682081 C19.0982659,28.2312139 19.4450867,28.4393064 19.9306358,28.4393064 L22.4277457,28.4393064 C23.1213873,28.4393064 23.7456647,27.8150289 23.7456647,27.1213873 L23.7456647,12.0693642 C23.7456647,4.50867052 21.734104,3.55271368e-15 13.0635838,3.55271368e-15 C8.62427746,3.55271368e-15 4.1849711,1.10982659 3.6300578,1.31791908 C3.00578035,1.52601156 2.45086705,2.01156069 2.65895954,3.05202312 L3.28323699,6.65895954 C3.42196532,7.56069364 3.90751445,8.1849711 4.87861272,7.90751445 C6.47398844,7.42196532 10.0809249,6.86705202 12.6473988,6.86705202 C15.2138728,6.86705202 16.3236994,8.11560694 16.2543353,11.6531792 C16.2543353,11.6531792 13.9653179,10.8901734 11.1907514,10.8901734 C4.11560694,10.8901734 0.0924855491,14.7052023 0.0924855491,19.6300578 L0.0924855491,19.6300578 Z M7.72254335,19.6300578 C7.72254335,17.4104046 9.52601156,15.8843931 12.2312139,15.8843931 C14.2427746,15.8843931 16.1156069,16.716763 16.1156069,16.716763 L16.1156069,20.5317919 C15.699422,21.3641618 13.5491329,23.2369942 11.3294798,23.2369942 C9.17919075,23.2369942 7.72254335,21.7109827 7.72254335,19.6300578 L7.72254335,19.6300578 Z" id="shape"></path>
                </g>
                <g id="group" transform="translate(28.000000, 0.000000)" sketch:type="MSShapeGroup">
                    <path d="M0.901734104,14.4971098 C0.901734104,22.4739884 7.28323699,29.132948 15.1213873,29.132948 C22.9595376,29.132948 29.3410405,22.4739884 29.3410405,14.4971098 C29.3410405,6.65895954 22.9595376,-3.55271368e-15 15.1213873,-3.55271368e-15 C7.28323699,-3.55271368e-15 0.901734104,6.65895954 0.901734104,14.4971098 L0.901734104,14.4971098 Z M20.5767186,13.3684114 C21.8416348,14.0460451 21.8425725,15.1442041 20.5767186,15.8223401 L13.0186571,19.8713016 C11.7537409,20.5489352 10.7283237,19.9326439 10.7283237,18.4976106 L10.7283237,10.6931409 C10.7283237,9.2568386 11.7528032,8.64131388 13.0186571,9.31944989 L20.5767186,13.3684114 L20.5767186,13.3684114 Z" id="shape"></path>
                </g>
                <g id="group" sketch:type="MSShapeGroup">
                    <path d="M0,26.3583815 C0,31.4219653 4.02312139,33.2947977 5.20231214,33.6416185 L5.20231214,33.849711 C4.50867052,34.265896 1.04046243,36.2774566 1.04046243,40.4393064 C1.04046243,44.8786127 4.92485549,49.9421965 15.1907514,49.9421965 C25.2485549,49.9421965 30.3815029,44.5317919 30.3815029,38.150289 C30.3815029,32.0462428 25.2485549,28.4393064 18.9364162,28.4393064 L10.0578035,28.4393064 C8.53179191,28.4393064 7.28323699,27.5375723 7.28323699,26.0809249 C7.28323699,24.416185 8.87861272,23.4450867 9.84971098,23.4450867 C10.9595376,23.4450867 12.7630058,24 15.3988439,24 C22.6820809,24 27.2601156,18.5895954 27.2601156,13.1098266 C27.2601156,8.1849711 24.4855491,6.03468208 24.4855491,6.03468208 L28.3699422,4.78612717 C28.8554913,4.64739884 29.132948,4.09248555 29.132948,3.60693642 L29.132948,1.31791908 C29.132948,0.554913295 28.5780347,0 27.8150289,0 L15.1907514,0 C8.32369942,0 3.12138728,5.61849711 3.12138728,12.0693642 C3.12138728,16.2312139 5.20231214,18.5895954 5.20231214,18.5895954 C5.20231214,18.5895954 0,20.9479769 0,26.3583815 L0,26.3583815 Z M9.01734104,38.9132948 C9.01734104,36.7630058 11.1676301,35.7919075 12,35.5144509 C13.4566474,35.3063584 14.982659,35.2369942 16.5086705,35.2369942 C20.6011561,35.2369942 21.5722543,37.3872832 21.5722543,38.6358382 C21.5722543,41.2716763 19.0057803,43.0057803 15.1213873,43.0057803 C11.3757225,43.0057803 9.01734104,41.3410405 9.01734104,38.9132948 L9.01734104,38.9132948 Z M10.5433526,12.416185 C10.5433526,9.50289017 12.6242775,7.42196532 15.3988439,7.42196532 C18.2427746,7.42196532 20.1849711,9.50289017 20.1849711,12.416185 C20.1849711,15.3294798 18.2427746,17.4104046 15.3988439,17.4104046 C12.6242775,17.4104046 10.5433526,15.3294798 10.5433526,12.416185 L10.5433526,12.416185 Z" id="shape"></path>
                </g>
            </g>
        </g>
    </g>
</svg>
